<svg width="731" height="164" viewBox="0 0 731 164" fill="none" xmlns="http://www.w3.org/2000/svg">
<path d="M84.4844 87.7031C83 87.7031 82.2578 86.7656 82.2578 84.8906C82.2578 83.7188 82.6875 82.9766 83.5469 82.6641C84.4062 82.2734 85.7734 82 87.6484 81.8438C88.8984 81.7656 89.875 81.6484 90.5781 81.4922C91.3594 81.3359 92.1016 81.0625 92.8047 80.6719C93.5859 80.2812 94.1328 79.6953 94.4453 78.9141C94.8359 78.0547 95.0312 77 95.0312 75.75V49.7344C95.0312 37.625 94.9141 31.2188 94.6797 30.5156C94.6016 30.0469 94.3281 29.8125 93.8594 29.8125C93.3125 29.8125 92.7656 30.2812 92.2188 31.2188C89.1719 36.1406 85.1484 43.1328 80.1484 52.1953C75.2266 61.1797 70.9297 69.1094 67.2578 75.9844C63.5859 82.8594 61.4766 86.6484 60.9297 87.3516C60.1484 88.2891 59.25 88.7578 58.2344 88.7578C56.8281 88.7578 55.4219 87.3125 54.0156 84.4219C50.1094 76.375 45.6172 67.8984 40.5391 58.9922C35.5391 50.0859 31.4375 43.0547 28.2344 37.8984C25.0312 32.7422 23.2344 30.0469 22.8438 29.8125C22.7656 29.7344 22.6484 29.6953 22.4922 29.6953C22.1797 29.6953 22.0234 29.8906 22.0234 30.2812C21.5547 38.7188 21.3203 47.0391 21.3203 55.2422C21.3203 62.0391 21.4766 69.1875 21.7891 76.6875C21.9453 78.9531 22.2578 80.2812 22.7266 80.6719C23.5078 81.2188 24.7969 81.4922 26.5938 81.4922C28.4688 81.4922 30.0312 81.7266 31.2812 82.1953C32.6094 82.5859 33.2734 83.5234 33.2734 85.0078C33.2734 86.8047 32.5703 87.7031 31.1641 87.7031C31.0859 87.7031 30.7734 87.6641 30.2266 87.5859C29.6797 87.5859 28.9375 87.5469 28 87.4688C27.1406 87.3906 26.1641 87.3125 25.0703 87.2344C23.9766 87.1562 22.6484 87.0781 21.0859 87C19.6016 87 18.1562 87 16.75 87C15.3438 87 13.8594 87 12.2969 87C10.8125 87.0781 9.52344 87.1562 8.42969 87.2344C7.33594 87.3125 6.32031 87.3906 5.38281 87.4688C4.52344 87.5469 3.82031 87.5859 3.27344 87.5859C2.72656 87.6641 2.41406 87.7031 2.33594 87.7031C0.851562 87.7031 0.109375 86.8438 0.109375 85.125C0.109375 84.5781 0.148438 84.1484 0.226562 83.8359C0.382812 83.4453 0.578125 83.1328 0.8125 82.8984C1.125 82.5859 1.39844 82.3906 1.63281 82.3125C1.94531 82.1562 2.41406 82.0391 3.03906 81.9609C3.66406 81.8047 4.17188 81.6875 4.5625 81.6094C5.03125 81.5312 5.73438 81.4531 6.67188 81.375C7.60938 81.2969 8.39062 81.2188 9.01562 81.1406C9.64062 81.0625 10.1875 80.9453 10.6562 80.7891C11.125 80.5547 11.4766 80.3594 11.7109 80.2031C11.9453 79.9688 12.1406 79.6172 12.2969 79.1484C12.4531 78.6016 12.5312 78.2109 12.5312 77.9766C12.6094 77.6641 12.6875 77.1562 12.7656 76.4531C12.8438 75.6719 12.8828 75.125 12.8828 74.8125C14.9141 50.2031 15.9297 32.3125 15.9297 21.1406C15.9297 20.2031 15.4609 19.1875 14.5234 18.0938C14.4453 18.0156 13.9375 17.4297 13 16.3359C12.0625 15.1641 11.2812 14.3047 10.6562 13.7578C10.0312 13.1328 9.01562 12.5078 7.60938 11.8828C6.20312 11.1797 4.67969 10.8281 3.03906 10.8281C1.47656 10.5938 0.695312 9.85156 0.695312 8.60156C0.695312 7.82031 0.8125 7.23438 1.04688 6.84375C1.35938 6.375 1.63281 6.14062 1.86719 6.14062C2.10156 6.0625 2.41406 6.02344 2.80469 6.02344H20.0312C21.4375 6.02344 22.4531 6.53125 23.0781 7.54688L45.8125 45.5156L59.7578 67.7812C60.2266 68.7188 60.9297 69.1875 61.8672 69.1875C62.5703 69.1875 63.1172 68.7578 63.5078 67.8984L96.0859 7.07812C96.4766 6.375 97.1797 6.02344 98.1953 6.02344H115.656C116.047 6.02344 116.32 6.0625 116.477 6.14062C116.711 6.14062 116.906 6.375 117.062 6.84375C117.297 7.23438 117.414 7.82031 117.414 8.60156C117.414 9.22656 117.297 9.73438 117.062 10.125C116.906 10.5156 116.516 10.8281 115.891 11.0625C115.344 11.2969 114.758 11.4922 114.133 11.6484C113.508 11.7266 112.609 11.9219 111.438 12.2344C110.266 12.4688 109.133 12.7422 108.039 13.0547C106.086 13.5234 105.109 14.6953 105.109 16.5703C105.266 29.8516 105.383 41.0625 105.461 50.2031C105.617 59.3438 105.695 65.3984 105.695 68.3672C105.773 71.2578 105.812 73.4453 105.812 74.9297V75.75C105.812 77.0781 105.852 78.0547 105.93 78.6797C106.008 79.2266 106.359 79.8125 106.984 80.4375C107.609 81.0625 108.586 81.4531 109.914 81.6094C110.461 81.6875 111.125 81.7656 111.906 81.8438C112.766 81.8438 113.391 81.8828 113.781 81.9609C114.172 81.9609 114.641 82 115.188 82.0781C115.734 82.1562 116.086 82.2734 116.242 82.4297C116.477 82.5859 116.711 82.7812 116.945 83.0156C117.258 83.25 117.453 83.5625 117.531 83.9531C117.609 84.2656 117.648 84.6562 117.648 85.125C117.648 85.9062 117.414 86.5312 116.945 87C116.477 87.4688 115.891 87.7031 115.188 87.7031L112.961 87.4688C111.477 87.3906 109.484 87.2734 106.984 87.1172C104.562 87.0391 102.141 87 99.7188 87C98.1562 87 96.5938 87 95.0312 87C93.4688 87.0781 92.1016 87.1562 90.9297 87.2344C89.7578 87.3125 88.6641 87.3906 87.6484 87.4688C86.7109 87.5469 85.9688 87.5859 85.4219 87.5859C84.875 87.6641 84.5625 87.7031 84.4844 87.7031Z" fill="#09233F"/>
<path d="M123.859 5.4375L125.852 5.55469C127.18 5.63281 128.938 5.75 131.125 5.90625C133.312 5.98438 135.5 6.02344 137.688 6.02344C139.953 6.02344 142.023 5.98438 143.898 5.90625C145.773 5.82812 147.219 5.75 148.234 5.67188C149.328 5.59375 149.992 5.55469 150.227 5.55469C151.555 5.55469 152.219 6.29688 152.219 7.78125C152.219 8.17188 152.18 8.52344 152.102 8.83594C152.102 9.07031 152.062 9.30469 151.984 9.53906C151.984 9.77344 151.906 9.96875 151.75 10.125C151.594 10.2812 151.438 10.4375 151.281 10.5938C151.203 10.6719 151.008 10.75 150.695 10.8281C150.383 10.9062 150.109 10.9844 149.875 11.0625C149.719 11.1406 149.406 11.2188 148.938 11.2969C148.469 11.2969 148.078 11.3359 147.766 11.4141C147.453 11.4141 146.945 11.4531 146.242 11.5312C145.617 11.5312 145.07 11.5703 144.602 11.6484C143.352 11.7266 142.727 12.3906 142.727 13.6406V78.4453C142.727 80.3203 143.43 81.3359 144.836 81.4922C145.617 81.5703 146.477 81.6484 147.414 81.7266C148.352 81.7266 149.094 81.7266 149.641 81.7266C150.188 81.7266 150.734 81.7656 151.281 81.8438C151.906 81.9219 152.375 82 152.688 82.0781C153 82.1562 153.273 82.2734 153.508 82.4297C153.82 82.5859 154.016 82.8203 154.094 83.1328C154.25 83.4453 154.328 83.7969 154.328 84.1875C154.328 86.5312 153.547 87.7031 151.984 87.7031C151.906 87.7031 151.594 87.6641 151.047 87.5859C150.5 87.5859 149.719 87.5469 148.703 87.4688C147.766 87.3906 146.711 87.3125 145.539 87.2344C144.367 87.1562 143 87.0781 141.438 87C139.875 87 138.312 87 136.75 87C135.188 87 133.625 87 132.062 87C130.5 87.0781 129.094 87.1562 127.844 87.2344C126.672 87.3125 125.617 87.3906 124.68 87.4688C123.742 87.5469 122.961 87.5859 122.336 87.5859C121.789 87.6641 121.477 87.7031 121.398 87.7031C120.148 87.7031 119.445 86.8047 119.289 85.0078C119.211 84.7734 119.172 84.3828 119.172 83.8359C119.172 82.8984 119.484 82.3125 120.109 82.0781C120.812 81.8438 122.414 81.6484 124.914 81.4922C126.633 81.4141 128.078 81.3359 129.25 81.2578C130.969 81.1797 131.828 80.0469 131.828 77.8594V15.5156C131.828 15.2812 131.828 14.9688 131.828 14.5781C131.906 14.1094 131.945 13.8359 131.945 13.7578C131.945 12.7422 131.633 12.1172 131.008 11.8828C130.383 11.6484 128.977 11.4922 126.789 11.4141C125.617 11.4141 124.68 11.375 123.977 11.2969C122.18 11.1406 121.281 10.2812 121.281 8.71875C121.281 6.53125 122.141 5.4375 123.859 5.4375Z" fill="#09233F"/>
<path d="M200.266 89.9297C188.938 89.9297 179.094 85.5156 170.734 76.6875C162.375 67.7812 158.195 57.0781 158.195 44.5781C158.195 32.5469 162.102 22.5078 169.914 14.4609C177.805 6.33594 187.336 2.27344 198.508 2.27344C201.789 2.27344 204.992 2.66406 208.117 3.44531C211.242 4.22656 213.703 5.08594 215.5 6.02344C217.375 6.96094 219.016 7.89844 220.422 8.83594C221.906 9.69531 222.727 10.125 222.883 10.125H223.352C224.211 10.125 225.227 9.38281 226.398 7.89844C227.648 6.33594 228.391 5.51562 228.625 5.4375C229.016 5.20312 229.523 5.08594 230.148 5.08594C231.242 5.08594 231.789 5.63281 231.789 6.72656V10.0078C231.789 12.2734 231.828 14.5781 231.906 16.9219C231.984 19.2656 232.102 21.2969 232.258 23.0156C232.414 24.7344 232.531 26.2969 232.609 27.7031C232.766 29.0312 232.883 30.0859 232.961 30.8672C233.039 31.6484 233.078 32.0781 233.078 32.1562C233.078 33.4062 231.945 34.0312 229.68 34.0312C228.586 34.0312 227.922 33.6797 227.688 32.9766C227.453 32.1953 227.023 30.75 226.398 28.6406C225.852 26.4531 224.758 24.2266 223.117 21.9609C220.07 17.8203 216.242 14.4609 211.633 11.8828C207.023 9.30469 202.18 8.01562 197.102 8.01562C193.898 8.01562 190.773 8.64062 187.727 9.89062C184.758 11.1406 181.906 13.0547 179.172 15.6328C176.516 18.2109 174.367 21.8828 172.727 26.6484C171.086 31.3359 170.266 36.7656 170.266 42.9375C170.266 50.4375 171.281 56.9609 173.312 62.5078C175.344 68.0547 178 72.2734 181.281 75.1641C184.641 78.0547 188 80.1641 191.359 81.4922C194.719 82.8203 198.117 83.4844 201.555 83.4844C206.086 83.4844 210.344 82.5469 214.328 80.6719C218.312 78.7969 220.656 77.1562 221.359 75.75C221.594 75.2812 221.711 74.5781 221.711 73.6406V60.1641C221.711 58.6016 221.203 57.5859 220.188 57.1172C219.172 56.6484 217.062 56.2969 213.859 56.0625C212.453 55.9844 211.32 55.9062 210.461 55.8281C208.195 55.6719 207.062 54.7344 207.062 53.0156C207.062 51.2188 207.961 50.3203 209.758 50.3203C209.992 50.3203 210.617 50.3594 211.633 50.4375C212.727 50.5156 214.172 50.5938 215.969 50.6719C217.844 50.75 219.875 50.7891 222.062 50.7891H222.297C224.562 50.7891 226.672 50.75 228.625 50.6719C230.578 50.5938 232.102 50.5156 233.195 50.4375C234.289 50.3594 234.953 50.3203 235.188 50.3203C236.203 50.3203 236.945 50.5938 237.414 51.1406C237.961 51.6094 238.234 52.1562 238.234 52.7812C238.234 54.1094 237.219 55.125 235.188 55.8281C233.234 56.5312 232.141 57.3516 231.906 58.2891C231.828 58.5234 231.789 58.9531 231.789 59.5781V79.8516C231.789 81.4141 231.242 82.1953 230.148 82.1953C229.68 82.1953 229.016 81.8047 228.156 81.0234C227.375 80.1641 226.828 79.7344 226.516 79.7344C226.047 79.7344 225.5 80.0469 224.875 80.6719C217.844 86.8438 209.641 89.9297 200.266 89.9297Z" fill="#09233F"/>
<path d="M291.789 27.4688C291.789 22.5469 289.758 18.2891 285.695 14.6953C281.633 11.0234 276.633 9.1875 270.695 9.1875C267.023 9.1875 264.641 9.61719 263.547 10.4766C263.078 10.7891 262.844 11.4141 262.844 12.3516C262.844 12.4297 262.844 12.4688 262.844 12.4688L262.961 12.7031V40.9453C262.961 41.9609 263.352 42.5859 264.133 42.8203C264.914 42.9766 267.141 43.0547 270.812 43.0547C275.344 43.0547 279.055 42.5078 281.945 41.4141C284.68 40.3203 286.984 38.5625 288.859 36.1406C290.812 33.7188 291.789 30.8281 291.789 27.4688ZM273.156 4.61719C278.234 4.61719 282.688 5.32031 286.516 6.72656C290.344 8.05469 293.234 9.8125 295.188 12C297.219 14.1094 298.703 16.2969 299.641 18.5625C300.578 20.8281 301.047 23.1328 301.047 25.4766C301.047 30.6328 299.445 35.0078 296.242 38.6016C293.039 42.1953 290.109 44.4609 287.453 45.3984C287.062 45.6328 286.867 45.8281 286.867 45.9844C286.867 46.1406 286.945 46.2969 287.102 46.4531C291.398 51.4531 295.031 56.1406 298 60.5156C301.047 64.8125 303.391 68.3672 305.031 71.1797C306.75 73.9922 308.156 76.0234 309.25 77.2734C311.516 79.8516 313.664 81.1406 315.695 81.1406C316.867 81.1406 317.922 80.7109 318.859 79.8516C319.797 78.9141 320.461 78.4453 320.852 78.4453C321.711 78.4453 322.141 78.9141 322.141 79.8516C322.141 81.1797 321.125 82.9766 319.094 85.2422C317.141 87.4297 314.641 88.5234 311.594 88.5234C307.531 88.5234 303.312 85.6328 298.938 79.8516L286.984 62.7422C280.188 53.2109 276.477 48.25 275.852 47.8594C275.461 47.5469 274.797 47.3906 273.859 47.3906H265.07C263.977 47.3906 263.43 47.9766 263.43 49.1484V77.2734C263.43 79.6172 264.445 80.9062 266.477 81.1406C267.18 81.2188 268 81.2969 268.938 81.375C269.875 81.4531 270.578 81.5312 271.047 81.6094C271.594 81.6094 272.18 81.6484 272.805 81.7266C273.508 81.7266 274.016 81.7656 274.328 81.8438C274.719 81.9219 275.109 82.0391 275.5 82.1953C275.969 82.2734 276.281 82.3906 276.438 82.5469C276.672 82.7031 276.867 82.9375 277.023 83.25C277.18 83.4844 277.297 83.7578 277.375 84.0703C277.453 84.3828 277.492 84.7344 277.492 85.125C277.492 86.8438 276.672 87.7031 275.031 87.7031C274.953 87.7031 274.602 87.6641 273.977 87.5859C273.43 87.5859 272.688 87.5469 271.75 87.4688C270.812 87.3906 269.719 87.3125 268.469 87.2344C267.297 87.1562 265.891 87.0781 264.25 87C262.688 87 261.125 87 259.562 87C258 87 256.398 87 254.758 87C253.195 87.0781 251.828 87.1562 250.656 87.2344C249.484 87.3125 248.391 87.3906 247.375 87.4688C246.438 87.5469 245.695 87.5859 245.148 87.5859C244.602 87.6641 244.289 87.7031 244.211 87.7031C242.805 87.7031 242.102 86.6094 242.102 84.4219C242.102 84.1094 242.102 83.8359 242.102 83.6016C242.18 83.3672 242.258 83.1719 242.336 83.0156C242.492 82.8594 242.609 82.7422 242.688 82.6641C242.844 82.5078 243.039 82.3906 243.273 82.3125C243.586 82.2344 243.859 82.1562 244.094 82.0781C244.328 82 244.68 81.9609 245.148 81.9609C245.617 81.8828 246.008 81.8438 246.32 81.8438C246.633 81.8438 247.102 81.8438 247.727 81.8438C248.43 81.7656 249.016 81.6875 249.484 81.6094C250.812 81.4531 251.672 81.0625 252.062 80.4375C252.531 79.7344 252.766 78.7188 252.766 77.3906V15.3984C252.766 13.6016 252.258 12.5078 251.242 12.1172C250.227 11.6484 247.375 11.0234 242.688 10.2422C241.438 10.0078 240.812 9.34375 240.812 8.25C240.812 6.76562 241.359 6.02344 242.453 6.02344H246.555C250.305 6.02344 255.07 5.78906 260.852 5.32031C266.633 4.85156 270.734 4.61719 273.156 4.61719Z" fill="#09233F"/>
<path d="M339.016 87C337.688 87 336.359 87 335.031 87C333.703 87.0781 332.531 87.1562 331.516 87.2344C330.5 87.3125 329.602 87.3906 328.82 87.4688C328.039 87.5469 327.414 87.5859 326.945 87.5859C326.477 87.6641 326.203 87.7031 326.125 87.7031C324.484 87.7031 323.664 86.8828 323.664 85.2422C323.664 84.8516 323.664 84.5391 323.664 84.3047C323.742 83.9922 323.82 83.7188 323.898 83.4844C324.055 83.25 324.172 83.0547 324.25 82.8984C324.328 82.7422 324.484 82.625 324.719 82.5469C325.031 82.3906 325.227 82.3125 325.305 82.3125C325.383 82.2344 325.617 82.1562 326.008 82.0781C326.477 82 326.75 81.9609 326.828 81.9609C326.984 81.8828 327.336 81.8047 327.883 81.7266C328.508 81.6484 328.898 81.6094 329.055 81.6094C330.93 81.375 332.336 80.9062 333.273 80.2031C334.211 79.4219 335.109 77.9766 335.969 75.8672C341.594 63.2891 347.688 50.4766 354.25 37.4297C365.812 15.5547 371.789 4.34375 372.18 3.79688C372.336 3.64062 372.57 3.44531 372.883 3.21094C373.742 2.58594 374.719 2.27344 375.812 2.27344C377.922 2.27344 379.602 3.79688 380.852 6.84375L398.078 46.6875C406.828 67.8594 411.281 78.5625 411.438 78.7969C412.297 80.0469 413.43 80.8672 414.836 81.2578C416.32 81.6484 417.57 81.9219 418.586 82.0781C419.68 82.2344 420.305 82.7031 420.461 83.4844C420.617 84.1094 420.695 84.6562 420.695 85.125C420.695 86.8438 419.875 87.7031 418.234 87.7031L416.242 87.4688C414.914 87.3906 413.117 87.2734 410.852 87.1172C408.664 87.0391 406.516 87 404.406 87C401.828 87 399.484 87.0391 397.375 87.1172C395.266 87.2734 393.586 87.3906 392.336 87.4688C391.164 87.625 390.461 87.7031 390.227 87.7031C388.586 87.7031 387.766 87.0391 387.766 85.7109C387.766 85.3203 387.766 84.9688 387.766 84.6562C387.844 84.3438 387.922 84.0703 388 83.8359C388.156 83.5234 388.234 83.2891 388.234 83.1328C388.312 82.9766 388.508 82.8203 388.82 82.6641C389.133 82.5078 389.367 82.4297 389.523 82.4297C389.68 82.3516 389.992 82.2734 390.461 82.1953C390.93 82.1172 391.281 82.0781 391.516 82.0781C391.828 82 392.336 81.9219 393.039 81.8438C393.742 81.7656 394.328 81.6875 394.797 81.6094C396.438 81.2969 397.258 80.5156 397.258 79.2656C397.258 78.0938 396.281 74.5391 394.328 68.6016C392.453 62.5859 390.422 57.1172 388.234 52.1953C387.922 51.4141 387.219 51.0234 386.125 51.0234H357.883C356.633 51.0234 355.734 51.4922 355.188 52.4297C352.453 57.5078 349.992 62.7812 347.805 68.25C345.695 73.6406 344.641 77 344.641 78.3281C344.641 79.7344 345.07 80.6719 345.93 81.1406C346.867 81.5312 348.469 81.8438 350.734 82.0781C351.438 82.0781 351.945 82.1172 352.258 82.1953C353.977 82.3516 354.836 83.3281 354.836 85.125C354.836 86.8438 353.977 87.7031 352.258 87.7031C352.023 87.7031 351.32 87.625 350.148 87.4688C349.055 87.3906 347.492 87.2734 345.461 87.1172C343.508 87.0391 341.359 87 339.016 87ZM383.664 44.8125C384.367 44.8125 384.719 44.5 384.719 43.875C384.719 43.25 383.156 39.3438 380.031 32.1562C376.984 24.9688 375.031 20.6328 374.172 19.1484C373.859 18.6016 373.43 18.3281 372.883 18.3281C372.18 18.3281 371.438 19.0312 370.656 20.4375C362.453 35.9062 358.352 43.8359 358.352 44.2266C358.352 44.6172 358.586 44.8125 359.055 44.8125H383.664Z" fill="#09233F"/>
<path d="M480.344 87.7031L478 87.4688C476.516 87.3906 474.445 87.2734 471.789 87.1172C469.211 87.0391 466.633 87 464.055 87C462.414 87 460.734 87 459.016 87C457.375 87.0781 455.891 87.1562 454.562 87.2344C453.312 87.3125 452.18 87.3906 451.164 87.4688C450.148 87.5469 449.328 87.5859 448.703 87.5859C448.078 87.6641 447.727 87.7031 447.648 87.7031C446.086 87.7031 445.305 86.6875 445.305 84.6562C445.305 83.4062 445.617 82.625 446.242 82.3125C446.945 82 448.508 81.7656 450.93 81.6094C452.258 81.5312 453.312 81.4531 454.094 81.375C455.734 81.2188 456.789 80.7891 457.258 80.0859C457.805 79.3828 458.078 78.3281 458.078 76.9219V16.1016C458.078 15.3203 458.039 14.7344 457.961 14.3438C457.883 13.9531 457.57 13.5234 457.023 13.0547C456.555 12.5859 455.852 12.3516 454.914 12.3516H436.984C435.5 12.3516 434.484 12.5469 433.938 12.9375C433.391 13.25 432.883 13.875 432.414 14.8125C429.133 21.2969 427.375 24.6953 427.141 25.0078C426.594 25.6328 425.93 25.9453 425.148 25.9453C424.367 25.9453 423.703 25.6719 423.156 25.125C422.688 24.5 422.453 23.7578 422.453 22.8984V22.7812C422.453 22.4688 423.625 16.9609 425.969 6.25781C426.203 5.00781 427.023 4.38281 428.43 4.38281H498.391C499.719 4.38281 500.539 5.32031 500.852 7.19531C502.805 17.3516 503.781 22.4688 503.781 22.5469C503.781 23.25 503.547 23.875 503.078 24.4219C502.609 24.9688 502.062 25.2422 501.438 25.2422C500.5 25.2422 499.602 24.4609 498.742 22.8984C498.273 22.1172 497.766 21.2578 497.219 20.3203C496.672 19.3047 496.242 18.5625 495.93 18.0938C495.695 17.5469 495.383 16.9609 494.992 16.3359C494.68 15.6328 494.406 15.1641 494.172 14.9297C493.938 14.6172 493.703 14.3047 493.469 13.9922C493.234 13.6016 493 13.3672 492.766 13.2891C492.609 13.1328 492.414 12.9766 492.18 12.8203C491.945 12.6641 491.672 12.5859 491.359 12.5859C491.125 12.5078 490.852 12.4688 490.539 12.4688C490.305 12.3906 489.992 12.3516 489.602 12.3516H471.906C471.125 12.3516 470.5 12.5469 470.031 12.9375C469.641 13.3281 469.406 13.7188 469.328 14.1094C469.328 14.4219 469.328 14.9297 469.328 15.6328V78.4453C469.328 79.6953 469.68 80.4766 470.383 80.7891C471.164 81.1016 473.156 81.375 476.359 81.6094C478 81.7656 479.289 81.8828 480.227 81.9609C481.086 82.0391 481.633 82.3125 481.867 82.7812C482.18 83.25 482.336 84.1094 482.336 85.3594C482.336 86.9219 481.672 87.7031 480.344 87.7031Z" fill="#09233F"/>
<path d="M510.227 5.4375L512.219 5.55469C513.547 5.63281 515.305 5.75 517.492 5.90625C519.68 5.98438 521.867 6.02344 524.055 6.02344C526.32 6.02344 528.391 5.98438 530.266 5.90625C532.141 5.82812 533.586 5.75 534.602 5.67188C535.695 5.59375 536.359 5.55469 536.594 5.55469C537.922 5.55469 538.586 6.29688 538.586 7.78125C538.586 8.17188 538.547 8.52344 538.469 8.83594C538.469 9.07031 538.43 9.30469 538.352 9.53906C538.352 9.77344 538.273 9.96875 538.117 10.125C537.961 10.2812 537.805 10.4375 537.648 10.5938C537.57 10.6719 537.375 10.75 537.062 10.8281C536.75 10.9062 536.477 10.9844 536.242 11.0625C536.086 11.1406 535.773 11.2188 535.305 11.2969C534.836 11.2969 534.445 11.3359 534.133 11.4141C533.82 11.4141 533.312 11.4531 532.609 11.5312C531.984 11.5312 531.438 11.5703 530.969 11.6484C529.719 11.7266 529.094 12.3906 529.094 13.6406V78.4453C529.094 80.3203 529.797 81.3359 531.203 81.4922C531.984 81.5703 532.844 81.6484 533.781 81.7266C534.719 81.7266 535.461 81.7266 536.008 81.7266C536.555 81.7266 537.102 81.7656 537.648 81.8438C538.273 81.9219 538.742 82 539.055 82.0781C539.367 82.1562 539.641 82.2734 539.875 82.4297C540.188 82.5859 540.383 82.8203 540.461 83.1328C540.617 83.4453 540.695 83.7969 540.695 84.1875C540.695 86.5312 539.914 87.7031 538.352 87.7031C538.273 87.7031 537.961 87.6641 537.414 87.5859C536.867 87.5859 536.086 87.5469 535.07 87.4688C534.133 87.3906 533.078 87.3125 531.906 87.2344C530.734 87.1562 529.367 87.0781 527.805 87C526.242 87 524.68 87 523.117 87C521.555 87 519.992 87 518.43 87C516.867 87.0781 515.461 87.1562 514.211 87.2344C513.039 87.3125 511.984 87.3906 511.047 87.4688C510.109 87.5469 509.328 87.5859 508.703 87.5859C508.156 87.6641 507.844 87.7031 507.766 87.7031C506.516 87.7031 505.812 86.8047 505.656 85.0078C505.578 84.7734 505.539 84.3828 505.539 83.8359C505.539 82.8984 505.852 82.3125 506.477 82.0781C507.18 81.8438 508.781 81.6484 511.281 81.4922C513 81.4141 514.445 81.3359 515.617 81.2578C517.336 81.1797 518.195 80.0469 518.195 77.8594V15.5156C518.195 15.2812 518.195 14.9688 518.195 14.5781C518.273 14.1094 518.312 13.8359 518.312 13.7578C518.312 12.7422 518 12.1172 517.375 11.8828C516.75 11.6484 515.344 11.4922 513.156 11.4141C511.984 11.4141 511.047 11.375 510.344 11.2969C508.547 11.1406 507.648 10.2812 507.648 8.71875C507.648 6.53125 508.508 5.4375 510.227 5.4375Z" fill="#09233F"/>
<path d="M633.859 46.5703C633.859 58.9922 629.641 69.3438 621.203 77.625C612.844 85.8281 602.727 89.9297 590.852 89.9297C584.992 89.9297 579.25 88.7969 573.625 86.5312C568 84.2656 563.039 81.0625 558.742 76.9219C549.602 68.0938 544.953 57.3516 544.797 44.6953C544.797 32.5859 549.133 22.2344 557.805 13.6406C566.555 4.96875 576.984 0.632812 589.094 0.632812C601.75 0.632812 612.375 5.16406 620.969 14.2266C629.562 23.2891 633.859 34.0703 633.859 46.5703ZM556.281 40.9453C556.281 46.2578 556.984 51.375 558.391 56.2969C559.875 61.2188 561.984 65.6719 564.719 69.6562C567.453 73.6406 571.047 76.8438 575.5 79.2656C579.953 81.6875 584.914 82.8984 590.383 82.8984C594.055 82.8984 597.648 82.2734 601.164 81.0234C604.68 79.7734 608.039 77.8984 611.242 75.3984C614.445 72.8203 617.023 69.2266 618.977 64.6172C621.008 60.0078 622.023 54.6953 622.023 48.6797C622.023 42.3516 620.93 36.1797 618.742 30.1641C616.633 24.0703 613.312 19.0312 608.781 15.0469C602.688 9.65625 595.5 6.96094 587.219 6.96094C583.391 6.96094 579.68 7.66406 576.086 9.07031C572.492 10.3984 569.172 12.3906 566.125 15.0469C563.156 17.625 560.773 21.1797 558.977 25.7109C557.18 30.1641 556.281 35.2422 556.281 40.9453Z" fill="#09233F"/>
<path d="M653.898 21.9609V21.4922C653.898 20.3984 652.57 18.6406 649.914 16.2188C646.789 13.0938 643.234 11.375 639.25 11.0625C637.766 11.0625 637.023 10.1641 637.023 8.36719C637.023 6.33594 637.922 5.32031 639.719 5.32031H654.484C656.438 5.32031 658.039 6.0625 659.289 7.54688L678.039 29.3438L689.055 41.6484C703.742 57.5859 711.398 65.75 712.023 66.1406C712.18 66.2969 712.336 66.375 712.492 66.375C713.039 66.375 713.312 65.9844 713.312 65.2031C713.312 64.2656 713.352 62.9375 713.43 61.2188C713.508 59.4219 713.547 57.8203 713.547 56.4141C713.625 54.9297 713.664 53.5625 713.664 52.3125C713.664 41.5312 713.273 29.6172 712.492 16.5703C712.414 14.2266 711.867 12.7422 710.852 12.1172C709.836 11.4922 707.805 11.0234 704.758 10.7109C702.961 10.4766 702.062 9.61719 702.062 8.13281C702.062 7.42969 702.336 6.80469 702.883 6.25781C703.43 5.63281 704.328 5.32031 705.578 5.32031C705.734 5.32031 706.281 5.35938 707.219 5.4375C708.234 5.4375 709.602 5.47656 711.32 5.55469C713.117 5.63281 715.031 5.67188 717.062 5.67188C719.094 5.67188 720.93 5.63281 722.57 5.55469C724.289 5.47656 725.617 5.4375 726.555 5.4375C727.57 5.35938 728.156 5.32031 728.312 5.32031C730.031 5.32031 730.891 6.21875 730.891 8.01562C730.891 8.64062 730.812 9.14844 730.656 9.53906C730.5 9.92969 730.188 10.2422 729.719 10.4766C729.25 10.6328 728.859 10.75 728.547 10.8281C728.312 10.8281 727.805 10.8672 727.023 10.9453C726.242 10.9453 725.695 10.9453 725.383 10.9453C723.352 11.1016 721.945 11.7266 721.164 12.8203C720.461 13.9141 720.07 16.0625 719.992 19.2656C719.68 32.8594 719.523 43.25 719.523 50.4375C719.523 56.375 719.562 61.8828 719.641 66.9609C719.719 72.0391 719.797 76.0234 719.875 78.9141C719.953 81.7266 719.992 83.4453 719.992 84.0703C719.992 87.8984 719.172 89.8125 717.531 89.8125C716.594 89.8125 714.641 88.1328 711.672 84.7734L686.828 56.4141C669.25 36.8828 660.383 27.1172 660.227 27.1172L659.758 27.5859C658.664 43.9922 658.117 58.2109 658.117 70.2422V73.6406C658.117 76.8438 658.43 78.9141 659.055 79.8516C659.68 80.7891 661.203 81.3359 663.625 81.4922C666.594 81.4922 669.016 81.7656 670.891 82.3125C671.906 82.7812 672.414 83.8359 672.414 85.4766C672.414 86.9609 671.75 87.7031 670.422 87.7031C670.344 87.7031 670.031 87.6641 669.484 87.5859C668.938 87.5859 668.195 87.5469 667.258 87.4688C666.398 87.3906 665.383 87.3125 664.211 87.2344C663.039 87.1562 661.711 87.0781 660.227 87C658.742 87 657.258 87 655.773 87C653.43 87 651.086 87.0391 648.742 87.1172C646.398 87.2734 644.523 87.3906 643.117 87.4688L641.008 87.7031C639.367 87.7031 638.547 86.9219 638.547 85.3594C638.547 83.6406 639.133 82.5859 640.305 82.1953C640.773 82.0391 641.828 81.9219 643.469 81.8438C645.188 81.6875 646.633 81.375 647.805 80.9062C649.055 80.3594 649.953 79.5 650.5 78.3281C650.812 77.5469 651.555 66.3359 652.727 44.6953C653.195 35.4766 653.586 27.8984 653.898 21.9609Z" fill="#09233F"/>
<path d="M89.4375 150.562C83.3958 150.562 78.1458 148.208 73.6875 143.5C69.2292 138.75 67 133.042 67 126.375C67 119.958 69.0833 114.604 73.25 110.312C77.4583 105.979 82.5417 103.812 88.5 103.812C90.25 103.812 91.9583 104.021 93.625 104.438C95.2917 104.854 96.6042 105.312 97.5625 105.812C98.5625 106.312 99.4375 106.812 100.188 107.312C100.979 107.771 101.417 108 101.5 108H101.75C102.208 108 102.75 107.604 103.375 106.812C104.042 105.979 104.438 105.542 104.562 105.5C104.771 105.375 105.042 105.312 105.375 105.312C105.958 105.312 106.25 105.604 106.25 106.188V107.938C106.25 109.146 106.271 110.375 106.312 111.625C106.354 112.875 106.417 113.958 106.5 114.875C106.583 115.792 106.646 116.625 106.688 117.375C106.771 118.083 106.833 118.646 106.875 119.062C106.917 119.479 106.938 119.708 106.938 119.75C106.938 120.417 106.333 120.75 105.125 120.75C104.542 120.75 104.188 120.562 104.062 120.188C103.938 119.771 103.708 119 103.375 117.875C103.083 116.708 102.5 115.521 101.625 114.312C100 112.104 97.9583 110.312 95.5 108.938C93.0417 107.562 90.4583 106.875 87.75 106.875C86.0417 106.875 84.375 107.208 82.75 107.875C81.1667 108.542 79.6458 109.562 78.1875 110.938C76.7708 112.312 75.625 114.271 74.75 116.812C73.875 119.312 73.4375 122.208 73.4375 125.5C73.4375 129.5 73.9792 132.979 75.0625 135.938C76.1458 138.896 77.5625 141.146 79.3125 142.688C81.1042 144.229 82.8958 145.354 84.6875 146.062C86.4792 146.771 88.2917 147.125 90.125 147.125C92.5417 147.125 94.8125 146.625 96.9375 145.625C99.0625 144.625 100.312 143.75 100.688 143C100.812 142.75 100.875 142.375 100.875 141.875V134.688C100.875 133.854 100.604 133.312 100.062 133.062C99.5208 132.812 98.3958 132.625 96.6875 132.5C95.9375 132.458 95.3333 132.417 94.875 132.375C93.6667 132.292 93.0625 131.792 93.0625 130.875C93.0625 129.917 93.5417 129.438 94.5 129.438C94.625 129.438 94.9583 129.458 95.5 129.5C96.0833 129.542 96.8542 129.583 97.8125 129.625C98.8125 129.667 99.8958 129.688 101.062 129.688H101.188C102.396 129.688 103.521 129.667 104.562 129.625C105.604 129.583 106.417 129.542 107 129.5C107.583 129.458 107.938 129.438 108.062 129.438C108.604 129.438 109 129.583 109.25 129.875C109.542 130.125 109.688 130.417 109.688 130.75C109.688 131.458 109.146 132 108.062 132.375C107.021 132.75 106.438 133.188 106.312 133.688C106.271 133.812 106.25 134.042 106.25 134.375V145.188C106.25 146.021 105.958 146.438 105.375 146.438C105.125 146.438 104.771 146.229 104.312 145.812C103.896 145.354 103.604 145.125 103.438 145.125C103.188 145.125 102.896 145.292 102.562 145.625C98.8125 148.917 94.4375 150.562 89.4375 150.562Z" fill="#09233F"/>
<path d="M124.75 148.125C124.75 148.958 124.5 149.375 124 149.375C123.958 149.375 123.812 149.354 123.562 149.312C123.354 149.312 123.062 149.292 122.688 149.25C122.312 149.208 121.896 149.167 121.438 149.125C120.979 149.083 120.438 149.042 119.812 149C119.188 149 118.583 149 118 149C117.417 149 116.833 149 116.25 149C115.667 149.042 115.146 149.062 114.688 149.062C114.229 149.104 113.812 149.146 113.438 149.188C113.104 149.229 112.833 149.25 112.625 149.25C112.417 149.292 112.292 149.312 112.25 149.312C111.625 149.312 111.312 148.938 111.312 148.188V148C111.312 147.458 111.438 147.125 111.688 147C111.979 146.833 112.729 146.688 113.938 146.562C114.688 146.479 115.167 146.25 115.375 145.875C115.625 145.458 115.75 144.875 115.75 144.125V111.562C115.75 111.438 115.729 111.333 115.688 111.25C115.688 111.125 115.667 111.021 115.625 110.938C115.583 110.854 115.542 110.792 115.5 110.75C115.5 110.667 115.438 110.604 115.312 110.562C115.229 110.479 115.146 110.417 115.062 110.375C115.021 110.333 114.896 110.271 114.688 110.188C114.521 110.062 114.396 109.979 114.312 109.938C113.896 109.688 113.438 109.438 112.938 109.188C112.479 108.896 112.146 108.688 111.938 108.562C111.771 108.438 111.583 108.312 111.375 108.188C111.167 108.021 111.021 107.896 110.938 107.812C110.896 107.688 110.875 107.562 110.875 107.438V107.375C110.875 107.167 111.667 106.646 113.25 105.812C115.208 104.854 117.042 103.917 118.75 103C119 102.833 119.271 102.75 119.562 102.75C120.146 102.75 120.438 103.146 120.438 103.938V144.438C120.438 144.688 120.438 144.896 120.438 145.062C120.479 145.229 120.521 145.396 120.562 145.562C120.604 145.688 120.646 145.792 120.688 145.875C120.729 145.958 120.812 146.042 120.938 146.125C121.104 146.208 121.208 146.271 121.25 146.312C121.333 146.354 121.479 146.417 121.688 146.5C121.938 146.542 122.104 146.583 122.188 146.625C122.312 146.625 122.542 146.646 122.875 146.688C123.25 146.729 123.521 146.771 123.688 146.812C124.396 146.938 124.75 147.375 124.75 148.125Z" fill="#09233F"/>
<path d="M126.812 135.938C126.812 131.646 128.167 128.146 130.875 125.438C133.625 122.729 136.875 121.375 140.625 121.375C144.458 121.375 147.646 122.75 150.188 125.5C152.729 128.208 154 131.688 154 135.938C154 140.312 152.667 143.792 150 146.375C147.375 148.917 144.167 150.188 140.375 150.188C136.375 150.188 133.104 148.812 130.562 146.062C128.062 143.312 126.812 139.938 126.812 135.938ZM134.188 143.875C135.812 146 137.938 147.062 140.562 147.062C143.188 147.062 145.354 146 147.062 143.875C148.771 141.708 149.625 139.146 149.625 136.188C149.625 132.854 148.667 130.062 146.75 127.812C144.875 125.521 142.688 124.375 140.188 124.375C138.104 124.375 136.167 125.292 134.375 127.125C132.625 128.958 131.75 131.792 131.75 135.625C131.75 138.958 132.562 141.708 134.188 143.875Z" fill="#09233F"/>
<path d="M164.375 123.75C164.375 124 164.479 124.125 164.688 124.125C164.771 124.125 165.167 123.917 165.875 123.5C166.583 123.042 167.604 122.604 168.938 122.188C170.312 121.729 171.792 121.5 173.375 121.5C177.125 121.5 180.125 122.812 182.375 125.438C184.667 128.021 185.812 131.417 185.812 135.625C185.812 137.25 185.625 138.833 185.25 140.375C184.875 141.875 184 143.479 182.625 145.188C181.292 146.854 179.521 148.104 177.312 148.938C175.062 149.771 172.688 150.188 170.188 150.188C169.062 150.188 167.875 149.979 166.625 149.562C165.375 149.188 164.479 149 163.938 149C163.188 149 162.521 149.229 161.938 149.688C161.354 150.146 160.958 150.375 160.75 150.375C160.083 150.375 159.75 149.729 159.75 148.438C159.75 145.938 159.771 139.708 159.812 129.75C159.896 119.75 159.938 113.5 159.938 111C159.938 110.417 159.667 109.938 159.125 109.562C158.833 109.396 158.542 109.229 158.25 109.062C157.958 108.854 157.708 108.708 157.5 108.625C157.333 108.5 157.146 108.375 156.938 108.25C156.729 108.125 156.562 108.021 156.438 107.938C156.354 107.854 156.25 107.771 156.125 107.688C156 107.604 155.896 107.542 155.812 107.5C155.771 107.458 155.729 107.417 155.688 107.375C155.646 107.292 155.604 107.229 155.562 107.188C155.562 107.104 155.562 107.042 155.562 107C155.562 106.667 155.833 106.396 156.375 106.188C161.083 104.312 163.521 103.375 163.688 103.375C164.271 103.458 164.562 103.875 164.562 104.625C164.562 106.042 164.521 109.458 164.438 114.875C164.396 120.292 164.375 123.25 164.375 123.75ZM181.812 136.688C181.812 133.229 180.75 130.396 178.625 128.188C176.5 125.979 174 124.875 171.125 124.875C169.625 124.875 168.083 125.229 166.5 125.938C164.958 126.646 164.188 127.333 164.188 128V144.375C164.188 144.417 164.167 144.5 164.125 144.625C164.125 144.708 164.125 144.771 164.125 144.812C164.125 145.604 164.438 146.125 165.062 146.375C167.062 147.167 169.021 147.562 170.938 147.562C174.188 147.562 176.812 146.562 178.812 144.562C180.812 142.521 181.812 139.896 181.812 136.688Z" fill="#09233F"/>
<path d="M188.25 126.938C188.25 125.688 189.25 124.438 191.25 123.188C193.292 121.896 195.562 121.25 198.062 121.25C198.854 121.25 199.667 121.333 200.5 121.5C201.333 121.667 202.271 121.958 203.312 122.375C204.396 122.792 205.292 123.521 206 124.562C206.75 125.562 207.208 126.792 207.375 128.25C207.458 129.25 207.5 130.021 207.5 130.562V143.188C207.5 143.938 207.646 144.542 207.938 145C208.229 145.458 208.521 145.75 208.812 145.875C209.104 145.958 209.396 146 209.688 146C210.271 146 210.729 145.833 211.062 145.5C211.396 145.125 211.646 144.771 211.812 144.438C212.021 144.062 212.25 143.875 212.5 143.875C212.875 143.875 213.062 144.146 213.062 144.688C213.062 145.688 212.604 146.792 211.688 148C210.771 149.167 209.583 149.75 208.125 149.75C207.583 149.75 207.062 149.667 206.562 149.5C206.062 149.333 205.646 149.125 205.312 148.875C204.979 148.583 204.667 148.312 204.375 148.062C204.125 147.812 203.917 147.583 203.75 147.375L203.562 147.125C203.521 147.125 203.5 147.125 203.5 147.125C203.5 147.083 203.479 147.062 203.438 147.062C203.354 147.062 203.292 147.104 203.25 147.188C203.208 147.271 203.062 147.438 202.812 147.688C202.562 147.938 202.208 148.208 201.75 148.5C199.875 149.667 197.896 150.25 195.812 150.25C193.646 150.25 191.875 149.562 190.5 148.188C189.167 146.812 188.5 145.125 188.5 143.125V143.062C188.5 140.646 189.396 138.75 191.188 137.375C191.812 136.875 192.625 136.438 193.625 136.062C194.625 135.646 195.604 135.333 196.562 135.125C197.562 134.917 198.5 134.75 199.375 134.625C200.25 134.458 200.979 134.354 201.562 134.312L202.438 134.25C202.771 134.167 202.938 133.875 202.938 133.375V131.062C202.938 128.854 202.438 127.146 201.438 125.938C200.396 124.812 199.146 124.25 197.688 124.25C195.438 124.25 193.604 125.667 192.188 128.5C191.812 129 191.354 129.25 190.812 129.25C190.146 129.25 189.542 129.042 189 128.625C188.5 128.208 188.25 127.646 188.25 126.938ZM197.312 146.75C198.271 146.75 199.167 146.542 200 146.125C200.875 145.708 201.479 145.333 201.812 145C202.146 144.667 202.417 144.375 202.625 144.125C202.875 143.792 203 143.312 203 142.688V138.5C203 137.708 202.958 137.208 202.875 137C202.833 136.75 202.667 136.625 202.375 136.625C201.333 136.625 200.021 136.792 198.438 137.125C196.896 137.458 195.667 138.062 194.75 138.938C193.75 139.771 193.25 140.938 193.25 142.438C193.25 144.021 193.688 145.188 194.562 145.938C195.146 146.479 196.062 146.75 197.312 146.75Z" fill="#09233F"/>
<path d="M228 148.125C228 148.958 227.75 149.375 227.25 149.375C227.208 149.375 227.062 149.354 226.812 149.312C226.604 149.312 226.312 149.292 225.938 149.25C225.562 149.208 225.146 149.167 224.688 149.125C224.229 149.083 223.688 149.042 223.062 149C222.438 149 221.833 149 221.25 149C220.667 149 220.083 149 219.5 149C218.917 149.042 218.396 149.062 217.938 149.062C217.479 149.104 217.062 149.146 216.688 149.188C216.354 149.229 216.083 149.25 215.875 149.25C215.667 149.292 215.542 149.312 215.5 149.312C214.875 149.312 214.562 148.938 214.562 148.188V148C214.562 147.458 214.688 147.125 214.938 147C215.229 146.833 215.979 146.688 217.188 146.562C217.938 146.479 218.417 146.25 218.625 145.875C218.875 145.458 219 144.875 219 144.125V111.562C219 111.438 218.979 111.333 218.938 111.25C218.938 111.125 218.917 111.021 218.875 110.938C218.833 110.854 218.792 110.792 218.75 110.75C218.75 110.667 218.688 110.604 218.562 110.562C218.479 110.479 218.396 110.417 218.312 110.375C218.271 110.333 218.146 110.271 217.938 110.188C217.771 110.062 217.646 109.979 217.562 109.938C217.146 109.688 216.688 109.438 216.188 109.188C215.729 108.896 215.396 108.688 215.188 108.562C215.021 108.438 214.833 108.312 214.625 108.188C214.417 108.021 214.271 107.896 214.188 107.812C214.146 107.688 214.125 107.562 214.125 107.438V107.375C214.125 107.167 214.917 106.646 216.5 105.812C218.458 104.854 220.292 103.917 222 103C222.25 102.833 222.521 102.75 222.812 102.75C223.396 102.75 223.688 103.146 223.688 103.938V144.438C223.688 144.688 223.688 144.896 223.688 145.062C223.729 145.229 223.771 145.396 223.812 145.562C223.854 145.688 223.896 145.792 223.938 145.875C223.979 145.958 224.062 146.042 224.188 146.125C224.354 146.208 224.458 146.271 224.5 146.312C224.583 146.354 224.729 146.417 224.938 146.5C225.188 146.542 225.354 146.583 225.438 146.625C225.562 146.625 225.792 146.646 226.125 146.688C226.5 146.729 226.771 146.771 226.938 146.812C227.646 146.938 228 147.375 228 148.125Z" fill="#09233F"/>
<path d="M252.062 126.375C252.062 132.25 253.812 137.208 257.312 141.25C260.812 145.25 265.062 147.25 270.062 147.25C273.812 147.25 277.229 146.104 280.312 143.812C283.438 141.521 285.583 138.479 286.75 134.688C286.958 134.104 287.271 133.812 287.688 133.812C288.396 133.812 288.75 134.062 288.75 134.562C287.792 141.188 287.25 144.646 287.125 144.938C286.917 145.646 286.438 146 285.688 146H283.875C283.375 146 283 146.042 282.75 146.125C282.542 146.208 282.229 146.396 281.812 146.688C281.438 146.979 281.125 147.188 280.875 147.312C277.125 149.479 273.167 150.562 269 150.562C266.042 150.562 263.146 149.979 260.312 148.812C257.479 147.646 254.979 146.021 252.812 143.938C250.646 141.812 248.938 139.312 247.688 136.438C246.479 133.562 245.875 130.604 245.875 127.562C245.875 124.438 246.521 121.417 247.812 118.5C249.104 115.583 250.833 113.083 253 111C257.583 106.625 263.021 104.438 269.312 104.438H269.375C271.667 104.438 273.771 104.729 275.688 105.312C277.646 105.854 279.146 106.417 280.188 107C281.271 107.583 281.854 107.875 281.938 107.875C282.271 107.875 282.562 107.521 282.812 106.812C283.062 106.104 283.396 105.688 283.812 105.562C283.896 105.562 284.021 105.562 284.188 105.562C284.354 105.521 284.458 105.5 284.5 105.5C284.958 105.5 285.229 105.75 285.312 106.25L285.75 109.5C286.042 111.708 286.333 113.938 286.625 116.188C286.917 118.438 287.062 119.646 287.062 119.812C287.062 120.521 286.625 120.875 285.75 120.875C284.958 120.875 284.5 120.75 284.375 120.5C284.25 120.208 284.104 119.333 283.938 117.875C283.729 116.292 283.167 114.896 282.25 113.688C280.792 111.854 278.938 110.354 276.688 109.188C274.438 107.979 271.938 107.375 269.188 107.375C264.562 107.375 260.542 109.125 257.125 112.625C253.75 116.125 252.062 120.708 252.062 126.375Z" fill="#09233F"/>
<path d="M295.438 141.25C295.438 139.083 295.438 137.062 295.438 135.188C295.438 133.312 295.438 131.854 295.438 130.812C295.479 129.729 295.5 129.083 295.5 128.875C295.5 128.417 295.333 128.104 295 127.938C294.708 127.729 293.438 127.167 291.188 126.25C290.646 126.042 290.375 125.771 290.375 125.438C290.375 125.312 290.396 125.188 290.438 125.062C290.521 124.938 290.625 124.833 290.75 124.75C290.917 124.667 291.062 124.604 291.188 124.562C291.312 124.479 291.479 124.396 291.688 124.312C291.896 124.229 292.042 124.167 292.125 124.125C296.792 121.875 299.146 120.75 299.188 120.75H299.25C299.833 120.75 300.125 121.104 300.125 121.812L300.062 123.875C299.979 125.25 299.896 127.104 299.812 129.438C299.771 131.729 299.75 134.021 299.75 136.312V138.438C299.75 142.396 299.812 144.729 299.938 145.438C300.062 146.146 300.479 146.542 301.188 146.625C302.438 146.792 303.229 146.938 303.562 147.062C303.896 147.188 304.062 147.5 304.062 148C304.062 148.917 303.812 149.375 303.312 149.375C303.271 149.375 303.146 149.354 302.938 149.312C302.729 149.312 302.438 149.292 302.062 149.25C301.688 149.208 301.271 149.167 300.812 149.125C300.354 149.083 299.812 149.042 299.188 149C298.604 149 298.021 149 297.438 149C296.854 149 296.25 149 295.625 149C295 149.042 294.458 149.083 294 149.125C293.583 149.167 293.188 149.208 292.812 149.25C292.438 149.292 292.146 149.312 291.938 149.312C291.729 149.354 291.604 149.375 291.562 149.375C290.896 149.375 290.562 149.021 290.562 148.312C290.562 147.604 290.688 147.188 290.938 147.062C291.229 146.938 292.167 146.771 293.75 146.562C294.5 146.438 294.958 146.208 295.125 145.875C295.333 145.5 295.438 144.958 295.438 144.25V141.25ZM296.062 109.438C296.062 108.604 296.375 107.896 297 107.312C297.625 106.729 298.354 106.438 299.188 106.438C300.021 106.438 300.729 106.729 301.312 107.312C301.938 107.896 302.25 108.583 302.25 109.375C302.25 110.25 301.938 110.979 301.312 111.562C300.729 112.146 300 112.438 299.125 112.438C298.25 112.438 297.521 112.167 296.938 111.625C296.354 111.042 296.062 110.312 296.062 109.438Z" fill="#09233F"/>
<path d="M307.5 125.625C306.625 125.625 306.188 125.354 306.188 124.812C306.188 124.562 306.479 124.188 307.062 123.688C307.688 123.146 308.562 122.271 309.688 121.062C310.812 119.812 311.875 118.354 312.875 116.688C313.333 115.896 313.75 115.5 314.125 115.5C314.708 115.5 315 115.854 315 116.562C315 116.854 314.979 117.604 314.938 118.812C314.938 120.021 314.938 120.771 314.938 121.062C314.938 121.896 315.354 122.312 316.188 122.312H321.938C322.021 122.312 322.125 122.333 322.25 122.375C322.375 122.375 322.458 122.375 322.5 122.375C323.583 122.375 324.125 122.771 324.125 123.562C324.125 124.354 323.938 124.979 323.562 125.438C323.354 125.646 322.979 125.75 322.438 125.75H314.938C314.521 125.75 314.312 125.958 314.312 126.375C314.312 129.833 314.292 132.708 314.25 135C314.25 137.292 314.229 138.833 314.188 139.625C314.188 140.417 314.188 140.979 314.188 141.312C314.188 144.479 315.292 146.062 317.5 146.062C318.375 146.062 319.292 145.75 320.25 145.125C321.208 144.458 322.042 143.812 322.75 143.188C323.5 142.521 324.062 142.188 324.438 142.188C324.771 142.188 325.042 142.312 325.25 142.562C325.5 142.812 325.625 143.083 325.625 143.375C325.625 143.625 325.479 143.979 325.188 144.438C321.812 148.271 318.833 150.188 316.25 150.188C314.708 150.188 313.292 149.583 312 148.375C310.75 147.125 310.021 145.146 309.812 142.438C309.771 141.979 309.75 141.292 309.75 140.375C309.75 139.333 309.792 136.812 309.875 132.812C309.958 128.771 310 126.562 310 126.188C310 125.812 309.854 125.625 309.562 125.625H307.5Z" fill="#09233F"/>
<path d="M332.188 141.25C332.188 139.083 332.188 137.062 332.188 135.188C332.188 133.312 332.188 131.854 332.188 130.812C332.229 129.729 332.25 129.083 332.25 128.875C332.25 128.417 332.083 128.104 331.75 127.938C331.458 127.729 330.188 127.167 327.938 126.25C327.396 126.042 327.125 125.771 327.125 125.438C327.125 125.312 327.146 125.188 327.188 125.062C327.271 124.938 327.375 124.833 327.5 124.75C327.667 124.667 327.812 124.604 327.938 124.562C328.062 124.479 328.229 124.396 328.438 124.312C328.646 124.229 328.792 124.167 328.875 124.125C333.542 121.875 335.896 120.75 335.938 120.75H336C336.583 120.75 336.875 121.104 336.875 121.812L336.812 123.875C336.729 125.25 336.646 127.104 336.562 129.438C336.521 131.729 336.5 134.021 336.5 136.312V138.438C336.5 142.396 336.562 144.729 336.688 145.438C336.812 146.146 337.229 146.542 337.938 146.625C339.188 146.792 339.979 146.938 340.312 147.062C340.646 147.188 340.812 147.5 340.812 148C340.812 148.917 340.562 149.375 340.062 149.375C340.021 149.375 339.896 149.354 339.688 149.312C339.479 149.312 339.188 149.292 338.812 149.25C338.438 149.208 338.021 149.167 337.562 149.125C337.104 149.083 336.562 149.042 335.938 149C335.354 149 334.771 149 334.188 149C333.604 149 333 149 332.375 149C331.75 149.042 331.208 149.083 330.75 149.125C330.333 149.167 329.938 149.208 329.562 149.25C329.188 149.292 328.896 149.312 328.688 149.312C328.479 149.354 328.354 149.375 328.312 149.375C327.646 149.375 327.312 149.021 327.312 148.312C327.312 147.604 327.438 147.188 327.688 147.062C327.979 146.938 328.917 146.771 330.5 146.562C331.25 146.438 331.708 146.208 331.875 145.875C332.083 145.5 332.188 144.958 332.188 144.25V141.25ZM332.812 109.438C332.812 108.604 333.125 107.896 333.75 107.312C334.375 106.729 335.104 106.438 335.938 106.438C336.771 106.438 337.479 106.729 338.062 107.312C338.688 107.896 339 108.583 339 109.375C339 110.25 338.688 110.979 338.062 111.562C337.479 112.146 336.75 112.438 335.875 112.438C335 112.438 334.271 112.167 333.688 111.625C333.104 111.042 332.812 110.312 332.812 109.438Z" fill="#09233F"/>
<path d="M345.875 119.938H346.25C346.75 119.938 347.021 120.333 347.062 121.125C347.146 121.917 347.458 122.312 348 122.312H362C362.917 122.312 363.375 122.625 363.375 123.25C363.375 123.375 363.25 123.688 363 124.188C359.875 128.438 356.542 132.958 353 137.75C350 141.792 348.5 143.917 348.5 144.125C348.5 144.583 348.833 144.812 349.5 144.812H358.75C358.875 144.812 359.062 144.833 359.312 144.875C359.562 144.875 359.708 144.875 359.75 144.875C360.208 144.875 360.521 144.729 360.688 144.438C360.854 144.146 361.021 143.479 361.188 142.438C361.271 141.854 361.354 141.375 361.438 141C361.646 140.333 362.021 140 362.562 140C363.562 140 364.062 140.354 364.062 141.062C364.062 141.104 364.021 141.292 363.938 141.625C363.896 141.917 363.833 142.354 363.75 142.938C363.708 143.479 363.646 144.104 363.562 144.812C363.479 145.521 363.396 146.354 363.312 147.312C363.271 148.271 363.25 149.229 363.25 150.188C363.25 150.812 363.25 151.375 363.25 151.875C363.292 152.417 363.312 152.833 363.312 153.125C363.312 153.417 363.312 153.604 363.312 153.688C363.312 154.521 362.667 154.938 361.375 154.938C360.667 154.938 360.312 154.562 360.312 153.812V149.938C360.312 149.312 359.958 149 359.25 149H344.375C343.083 149 342.438 148.5 342.438 147.5C342.438 147.167 342.729 146.542 343.312 145.625L356.312 128C356.604 127.708 356.75 127.438 356.75 127.188C356.75 126.562 356.312 126.25 355.438 126.25H347.812C347.479 126.25 347.229 126.375 347.062 126.625C346.938 126.875 346.792 127.396 346.625 128.188C346.542 128.604 346.479 128.938 346.438 129.188C346.229 129.854 345.854 130.188 345.312 130.188C344.562 130.188 344.188 129.917 344.188 129.375C344.188 129.333 344.208 129.208 344.25 129C344.292 128.75 344.333 128.438 344.375 128.062C344.458 127.646 344.521 127.188 344.562 126.688C344.646 126.188 344.708 125.604 344.75 124.938C344.792 124.229 344.812 123.521 344.812 122.812V120.875C344.812 120.25 345.167 119.938 345.875 119.938Z" fill="#09233F"/>
<path d="M366.188 135.812C366.188 131.479 367.333 128 369.625 125.375C371.917 122.75 374.708 121.438 378 121.438C380.125 121.438 382.167 122.021 384.125 123.188C386.083 124.354 387.708 125.812 389 127.562C389.333 127.979 389.5 128.438 389.5 128.938V129.062C389.5 129.438 389.396 129.771 389.188 130.062C388.979 130.354 388.646 130.625 388.188 130.875C387.729 131.083 387.333 131.25 387 131.375C386.667 131.5 386.167 131.667 385.5 131.875C384.875 132.083 384.479 132.208 384.312 132.25C375.604 135.25 371.146 136.812 370.938 136.938C370.771 137.021 370.688 137.146 370.688 137.312C370.688 137.562 370.75 137.979 370.875 138.562C371 139.146 371.271 139.917 371.688 140.875C372.146 141.833 372.688 142.729 373.312 143.562C373.979 144.354 374.917 145.062 376.125 145.688C377.333 146.271 378.688 146.562 380.188 146.562C383.104 146.562 385.646 145.521 387.812 143.438C388.396 142.854 388.875 142.562 389.25 142.562C389.958 142.562 390.312 142.875 390.312 143.5C390.312 143.75 390.146 144.083 389.812 144.5C388.479 146.25 386.812 147.646 384.812 148.688C382.812 149.688 380.708 150.188 378.5 150.188C377.083 150.188 375.688 149.938 374.312 149.438C372.979 148.938 371.667 148.167 370.375 147.125C369.125 146.083 368.104 144.583 367.312 142.625C366.562 140.667 366.188 138.396 366.188 135.812ZM383.312 129.188C383.312 128.646 382.583 127.812 381.125 126.688C379.667 125.521 378.146 124.938 376.562 124.938C374.688 124.938 373.188 125.75 372.062 127.375C370.979 129 370.438 131.229 370.438 134.062C370.438 134.396 370.542 134.562 370.75 134.562C370.833 134.562 372.812 133.812 376.688 132.312C380.604 130.771 382.625 129.979 382.75 129.938C383.125 129.729 383.312 129.479 383.312 129.188Z" fill="#09233F"/>
<path d="M399.875 124.875C399.875 125.042 399.938 125.125 400.062 125.125H400.125C400.167 125.125 400.312 125 400.562 124.75C400.854 124.5 401.25 124.188 401.75 123.812C402.25 123.438 402.833 123.062 403.5 122.688C404.167 122.312 404.979 122 405.938 121.75C406.896 121.458 407.896 121.312 408.938 121.312H409.062C409.938 121.312 410.792 121.438 411.625 121.688C412.5 121.896 413.417 122.312 414.375 122.938C415.375 123.521 416.208 124.458 416.875 125.75C417.542 127.042 417.958 128.625 418.125 130.5C418.208 131.208 418.25 132.292 418.25 133.75C418.25 133.917 418.25 134.333 418.25 135C418.25 135.625 418.229 136.771 418.188 138.438C418.188 140.104 418.188 142.229 418.188 144.812V144.938C418.188 145.146 418.208 145.354 418.25 145.562C418.292 145.729 418.312 145.875 418.312 146C418.354 146.083 418.438 146.188 418.562 146.312C418.688 146.396 418.771 146.458 418.812 146.5C418.896 146.542 419.042 146.604 419.25 146.688C419.5 146.729 419.667 146.75 419.75 146.75C419.875 146.75 420.104 146.771 420.438 146.812C420.812 146.854 421.083 146.896 421.25 146.938C421.875 147.021 422.188 147.417 422.188 148.125C422.188 148.958 421.854 149.375 421.188 149.375C421.062 149.375 420.771 149.333 420.312 149.25C419.854 149.208 419.208 149.146 418.375 149.062C417.583 149.021 416.729 149 415.812 149C415.271 149 414.729 149 414.188 149C413.646 149.042 413.167 149.083 412.75 149.125C412.375 149.167 412.021 149.208 411.688 149.25C411.354 149.292 411.083 149.333 410.875 149.375H410.562C409.979 149.375 409.688 148.958 409.688 148.125C409.688 147.667 409.812 147.375 410.062 147.25C410.312 147.125 410.979 146.979 412.062 146.812C412.438 146.729 412.75 146.667 413 146.625C413.417 146.542 413.688 146.417 413.812 146.25C413.979 146.042 414.062 145.667 414.062 145.125V135.188C414.062 132.062 413.771 129.75 413.188 128.25C412.562 126.833 411.625 125.854 410.375 125.312C409.125 124.729 407.938 124.438 406.812 124.438C405.188 124.438 403.729 124.938 402.438 125.938C401.146 126.938 400.417 127.812 400.25 128.562C400.167 128.896 400.125 129.188 400.125 129.438V144.75C400.125 145.833 400.604 146.438 401.562 146.562C403.438 146.854 404.458 147.083 404.625 147.25C404.875 147.458 405 147.812 405 148.312C405 149.062 404.729 149.438 404.188 149.438C404.146 149.438 404 149.417 403.75 149.375C403.542 149.375 403.25 149.354 402.875 149.312C402.5 149.271 402.083 149.208 401.625 149.125C401.167 149.083 400.625 149.042 400 149C399.417 149 398.833 149 398.25 149C397.667 149 397.083 149 396.5 149C395.917 149.042 395.396 149.083 394.938 149.125C394.521 149.167 394.146 149.208 393.812 149.25C393.479 149.292 393.208 149.312 393 149.312C392.792 149.354 392.667 149.375 392.625 149.375C391.917 149.375 391.562 149 391.562 148.25C391.562 147.667 391.688 147.312 391.938 147.188C392.229 147.021 392.938 146.854 394.062 146.688C394.812 146.562 395.271 146.333 395.438 146C395.646 145.667 395.75 145.167 395.75 144.5V129.25C395.75 128.5 395.646 128 395.438 127.75C395.229 127.458 394.375 126.75 392.875 125.625C392.625 125.375 392.5 125.167 392.5 125V124.938C392.5 124.729 392.646 124.542 392.938 124.375C393.229 124.167 394.125 123.667 395.625 122.875C396.792 122.25 397.771 121.729 398.562 121.312C398.812 121.146 399.021 121.062 399.188 121.062C399.688 121.062 399.938 121.375 399.938 122V124.5C399.938 124.542 399.917 124.625 399.875 124.75V124.875Z" fill="#09233F"/>
<path d="M424.75 129.25C424.75 127.25 425.583 125.5 427.25 124C428.958 122.458 431.188 121.688 433.938 121.688C434.521 121.688 435.042 121.729 435.5 121.812C436 121.854 436.375 121.896 436.625 121.938C436.917 121.979 437.083 122 437.125 122C437.292 122 437.542 121.896 437.875 121.688C438.208 121.479 438.5 121.375 438.75 121.375C439.25 121.375 439.583 121.771 439.75 122.562C439.875 123.188 440.042 124.062 440.25 125.188C440.458 126.312 440.625 127.271 440.75 128.062C440.917 128.812 441 129.229 441 129.312C441 129.979 440.5 130.312 439.5 130.312C439.083 130.312 438.771 130.167 438.562 129.875C438.396 129.542 438.229 129.083 438.062 128.5C437.896 127.917 437.708 127.479 437.5 127.188C437.042 126.562 436.292 126 435.25 125.5C434.25 124.958 433.25 124.688 432.25 124.688C431.125 124.688 430.167 125 429.375 125.625C428.583 126.25 428.188 127.062 428.188 128.062C428.188 130.188 429.875 131.729 433.25 132.688C433.667 132.812 434.292 132.979 435.125 133.188C435.958 133.354 436.604 133.5 437.062 133.625C437.521 133.75 438.062 133.938 438.688 134.188C439.354 134.438 439.938 134.75 440.438 135.125C440.938 135.5 441.417 135.958 441.875 136.5C443.167 138 443.812 139.688 443.812 141.562C443.812 143.812 442.917 145.812 441.125 147.562C439.375 149.312 437.021 150.188 434.062 150.188C432.438 150.188 430.771 149.917 429.062 149.375C427.396 148.833 426.125 148.042 425.25 147C424.75 146.458 424.5 145.729 424.5 144.812C424.5 144.146 424.479 143.396 424.438 142.562C424.438 141.729 424.438 141.208 424.438 141C424.438 140.167 424.5 139.625 424.625 139.375C424.792 139.125 425.104 139 425.562 139C426.021 139 426.312 139.188 426.438 139.562C426.562 139.938 426.646 140.5 426.688 141.25C426.729 141.958 426.854 142.542 427.062 143C427.438 143.833 428.312 144.667 429.688 145.5C431.104 146.333 432.646 146.75 434.312 146.75C435.771 146.75 437 146.354 438 145.562C439 144.771 439.5 143.75 439.5 142.5C439.5 141.708 439.312 141.021 438.938 140.438C438.604 139.812 438.062 139.312 437.312 138.938C436.562 138.521 435.958 138.229 435.5 138.062C435.042 137.854 434.312 137.625 433.312 137.375L431.812 137.062C427.104 135.688 424.75 133.083 424.75 129.25Z" fill="#09233F"/>
<path d="M463.125 148.5V148.062C463.125 147.854 463.125 147.688 463.125 147.562C463.167 147.438 463.229 147.333 463.312 147.25C463.438 147.125 463.542 147.042 463.625 147C463.75 146.958 463.917 146.917 464.125 146.875C464.375 146.833 464.583 146.812 464.75 146.812C464.958 146.771 465.25 146.729 465.625 146.688C466.042 146.646 466.417 146.604 466.75 146.562C467.375 146.479 467.75 146.146 467.875 145.562C468 144.979 468.062 143.458 468.062 141C468.062 136.833 467.792 133.833 467.25 132C466.75 130.125 466 128.646 465 127.562C463.458 126.021 461.729 125.25 459.812 125.25C458.521 125.25 457.312 125.604 456.188 126.312C455.062 126.979 454.417 127.667 454.25 128.375C454.208 128.542 454.188 128.833 454.188 129.25C454.188 139.5 454.229 144.771 454.312 145.062C454.438 145.688 454.75 146.125 455.25 146.375C455.792 146.625 456.333 146.75 456.875 146.75C457.458 146.708 457.979 146.792 458.438 147C458.896 147.208 459.125 147.562 459.125 148.062C459.125 148.938 458.875 149.375 458.375 149.375C458.333 149.375 458.208 149.354 458 149.312C457.792 149.312 457.5 149.292 457.125 149.25C456.75 149.208 456.333 149.167 455.875 149.125C455.417 149.083 454.875 149.042 454.25 149C453.667 149 453.083 149 452.5 149C451.875 149 451.25 149 450.625 149C450.042 149.042 449.5 149.083 449 149.125C448.542 149.167 448.125 149.208 447.75 149.25C447.375 149.292 447.083 149.312 446.875 149.312C446.667 149.354 446.542 149.375 446.5 149.375C446 149.375 445.75 148.958 445.75 148.125C445.75 147.625 445.875 147.312 446.125 147.188C446.375 147.062 447.021 146.896 448.062 146.688C448.521 146.604 448.875 146.438 449.125 146.188C449.375 145.896 449.5 145.667 449.5 145.5C449.542 145.292 449.583 144.958 449.625 144.5C449.833 138.042 449.938 132.188 449.938 126.938V126.688C449.938 117.229 449.854 112 449.688 111C449.604 110.458 448.812 110.021 447.312 109.688C445.854 109.354 445.125 108.896 445.125 108.312C445.125 107.854 445.479 107.438 446.188 107.062C450.896 104.354 453.333 103 453.5 103H453.562C454.229 103 454.562 103.396 454.562 104.188L454.5 123.938C454.5 124.229 454.604 124.375 454.812 124.375C454.854 124.375 455.208 124.188 455.875 123.812C456.542 123.396 457.458 123 458.625 122.625C459.833 122.208 461.083 122 462.375 122C466.375 122 469.229 123.938 470.938 127.812C471.604 129.396 472.042 131.188 472.25 133.188C472.5 135.146 472.688 139 472.812 144.75C472.812 145.333 472.917 145.771 473.125 146.062C473.333 146.354 473.562 146.542 473.812 146.625C474.062 146.667 474.521 146.729 475.188 146.812C475.896 146.896 476.25 147.292 476.25 148C476.25 148.917 475.979 149.375 475.438 149.375C475.396 149.375 475.271 149.354 475.062 149.312C474.854 149.312 474.562 149.292 474.188 149.25C473.812 149.208 473.396 149.167 472.938 149.125C472.521 149.083 472 149.042 471.375 149C470.75 149 470.146 149 469.562 149C468.979 149 468.396 149 467.812 149C467.229 149.042 466.708 149.083 466.25 149.125C465.792 149.167 465.375 149.208 465 149.25C464.667 149.292 464.396 149.312 464.188 149.312C463.979 149.354 463.854 149.375 463.812 149.375C463.354 149.375 463.125 149.083 463.125 148.5Z" fill="#09233F"/>
<path d="M483.25 141.25C483.25 139.083 483.25 137.062 483.25 135.188C483.25 133.312 483.25 131.854 483.25 130.812C483.292 129.729 483.312 129.083 483.312 128.875C483.312 128.417 483.146 128.104 482.812 127.938C482.521 127.729 481.25 127.167 479 126.25C478.458 126.042 478.188 125.771 478.188 125.438C478.188 125.312 478.208 125.188 478.25 125.062C478.333 124.938 478.438 124.833 478.562 124.75C478.729 124.667 478.875 124.604 479 124.562C479.125 124.479 479.292 124.396 479.5 124.312C479.708 124.229 479.854 124.167 479.938 124.125C484.604 121.875 486.958 120.75 487 120.75H487.062C487.646 120.75 487.938 121.104 487.938 121.812L487.875 123.875C487.792 125.25 487.708 127.104 487.625 129.438C487.583 131.729 487.562 134.021 487.562 136.312V138.438C487.562 142.396 487.625 144.729 487.75 145.438C487.875 146.146 488.292 146.542 489 146.625C490.25 146.792 491.042 146.938 491.375 147.062C491.708 147.188 491.875 147.5 491.875 148C491.875 148.917 491.625 149.375 491.125 149.375C491.083 149.375 490.958 149.354 490.75 149.312C490.542 149.312 490.25 149.292 489.875 149.25C489.5 149.208 489.083 149.167 488.625 149.125C488.167 149.083 487.625 149.042 487 149C486.417 149 485.833 149 485.25 149C484.667 149 484.062 149 483.438 149C482.812 149.042 482.271 149.083 481.812 149.125C481.396 149.167 481 149.208 480.625 149.25C480.25 149.292 479.958 149.312 479.75 149.312C479.542 149.354 479.417 149.375 479.375 149.375C478.708 149.375 478.375 149.021 478.375 148.312C478.375 147.604 478.5 147.188 478.75 147.062C479.042 146.938 479.979 146.771 481.562 146.562C482.312 146.438 482.771 146.208 482.938 145.875C483.146 145.5 483.25 144.958 483.25 144.25V141.25ZM483.875 109.438C483.875 108.604 484.188 107.896 484.812 107.312C485.438 106.729 486.167 106.438 487 106.438C487.833 106.438 488.542 106.729 489.125 107.312C489.75 107.896 490.062 108.583 490.062 109.375C490.062 110.25 489.75 110.979 489.125 111.562C488.542 112.146 487.812 112.438 486.938 112.438C486.062 112.438 485.333 112.167 484.75 111.625C484.167 111.042 483.875 110.312 483.875 109.438Z" fill="#09233F"/>
<path d="M508.75 147.25C511.458 147.25 513.812 146.229 515.812 144.188C517.854 142.146 518.875 139.583 518.875 136.5C518.875 133.458 517.854 130.812 515.812 128.562C513.812 126.312 511.521 125.188 508.938 125.188C507.354 125.188 505.938 125.646 504.688 126.562C503.479 127.396 502.875 128.708 502.875 130.5V144.25C502.875 145.083 503.417 145.75 504.5 146.25C505.833 146.917 507.25 147.25 508.75 147.25ZM511.062 121.438C514.562 121.438 517.438 122.792 519.688 125.5C521.979 128.208 523.125 131.458 523.125 135.25C523.125 139.458 521.708 142.875 518.875 145.5C516.042 148.125 512.396 149.438 507.938 149.438C507.521 149.438 507.104 149.417 506.688 149.375C506.271 149.375 505.896 149.354 505.562 149.312C505.229 149.271 504.938 149.229 504.688 149.188C504.438 149.146 504.229 149.125 504.062 149.125L503.812 149.062C503.521 149.062 503.375 149.292 503.375 149.75V158.75C503.375 159.75 503.854 160.292 504.812 160.375C505.229 160.417 505.708 160.458 506.25 160.5C506.833 160.542 507.25 160.562 507.5 160.562C507.75 160.604 508.042 160.646 508.375 160.688C508.708 160.729 508.938 160.792 509.062 160.875C509.229 160.958 509.375 161.062 509.5 161.188C509.667 161.312 509.771 161.458 509.812 161.625C509.854 161.833 509.875 162.083 509.875 162.375C509.875 163 509.625 163.312 509.125 163.312C509.042 163.312 508.729 163.292 508.188 163.25C507.688 163.208 506.979 163.167 506.062 163.125C505.146 163.083 504.167 163.062 503.125 163.062C501.75 163.062 500.375 163.104 499 163.188C497.667 163.271 496.604 163.354 495.812 163.438L494.625 163.562C493.917 163.562 493.562 163.146 493.562 162.312C493.562 162.188 493.562 162.062 493.562 161.938C493.604 161.854 493.646 161.771 493.688 161.688C493.771 161.646 493.833 161.583 493.875 161.5C493.917 161.458 494 161.396 494.125 161.312C494.292 161.271 494.417 161.229 494.5 161.188C494.625 161.188 494.792 161.146 495 161.062C495.25 161.021 495.458 160.979 495.625 160.938C495.833 160.938 496.104 160.896 496.438 160.812C496.771 160.729 497.062 160.667 497.312 160.625C498.229 160.458 498.688 159.875 498.688 158.875V129.188C498.688 128.521 498.417 128.083 497.875 127.875C497.292 127.625 496.583 127.312 495.75 126.938C494.667 126.479 494.021 126.188 493.812 126.062C493.646 125.938 493.562 125.792 493.562 125.625V125.562C493.562 125.396 494.5 124.771 496.375 123.688C497.875 122.812 499.229 122.021 500.438 121.312C500.562 121.229 500.688 121.167 500.812 121.125C500.938 121.042 501.021 120.979 501.062 120.938C501.146 120.854 501.208 120.812 501.25 120.812C501.333 120.771 501.417 120.75 501.5 120.75C501.833 120.75 502 121 502 121.5V125.25C502 125.5 502.083 125.625 502.25 125.625L503.062 124.75C503.604 124.167 504.458 123.542 505.625 122.875C506.792 122.167 508.104 121.708 509.562 121.5C509.896 121.458 510.396 121.438 511.062 121.438Z" fill="#09233F"/>
<path d="M547.688 126.375C547.688 132.25 549.438 137.208 552.938 141.25C556.438 145.25 560.688 147.25 565.688 147.25C569.438 147.25 572.854 146.104 575.938 143.812C579.062 141.521 581.208 138.479 582.375 134.688C582.583 134.104 582.896 133.812 583.312 133.812C584.021 133.812 584.375 134.062 584.375 134.562C583.417 141.188 582.875 144.646 582.75 144.938C582.542 145.646 582.062 146 581.312 146H579.5C579 146 578.625 146.042 578.375 146.125C578.167 146.208 577.854 146.396 577.438 146.688C577.062 146.979 576.75 147.188 576.5 147.312C572.75 149.479 568.792 150.562 564.625 150.562C561.667 150.562 558.771 149.979 555.938 148.812C553.104 147.646 550.604 146.021 548.438 143.938C546.271 141.812 544.562 139.312 543.312 136.438C542.104 133.562 541.5 130.604 541.5 127.562C541.5 124.438 542.146 121.417 543.438 118.5C544.729 115.583 546.458 113.083 548.625 111C553.208 106.625 558.646 104.438 564.938 104.438H565C567.292 104.438 569.396 104.729 571.312 105.312C573.271 105.854 574.771 106.417 575.812 107C576.896 107.583 577.479 107.875 577.562 107.875C577.896 107.875 578.188 107.521 578.438 106.812C578.688 106.104 579.021 105.688 579.438 105.562C579.521 105.562 579.646 105.562 579.812 105.562C579.979 105.521 580.083 105.5 580.125 105.5C580.583 105.5 580.854 105.75 580.938 106.25L581.375 109.5C581.667 111.708 581.958 113.938 582.25 116.188C582.542 118.438 582.688 119.646 582.688 119.812C582.688 120.521 582.25 120.875 581.375 120.875C580.583 120.875 580.125 120.75 580 120.5C579.875 120.208 579.729 119.333 579.562 117.875C579.354 116.292 578.792 114.896 577.875 113.688C576.417 111.854 574.562 110.354 572.312 109.188C570.062 107.979 567.562 107.375 564.812 107.375C560.188 107.375 556.167 109.125 552.75 112.625C549.375 116.125 547.688 120.708 547.688 126.375Z" fill="#09233F"/>
<path d="M586.938 126.938C586.938 125.688 587.938 124.438 589.938 123.188C591.979 121.896 594.25 121.25 596.75 121.25C597.542 121.25 598.354 121.333 599.188 121.5C600.021 121.667 600.958 121.958 602 122.375C603.083 122.792 603.979 123.521 604.688 124.562C605.438 125.562 605.896 126.792 606.062 128.25C606.146 129.25 606.188 130.021 606.188 130.562V143.188C606.188 143.938 606.333 144.542 606.625 145C606.917 145.458 607.208 145.75 607.5 145.875C607.792 145.958 608.083 146 608.375 146C608.958 146 609.417 145.833 609.75 145.5C610.083 145.125 610.333 144.771 610.5 144.438C610.708 144.062 610.938 143.875 611.188 143.875C611.562 143.875 611.75 144.146 611.75 144.688C611.75 145.688 611.292 146.792 610.375 148C609.458 149.167 608.271 149.75 606.812 149.75C606.271 149.75 605.75 149.667 605.25 149.5C604.75 149.333 604.333 149.125 604 148.875C603.667 148.583 603.354 148.312 603.062 148.062C602.812 147.812 602.604 147.583 602.438 147.375L602.25 147.125C602.208 147.125 602.188 147.125 602.188 147.125C602.188 147.083 602.167 147.062 602.125 147.062C602.042 147.062 601.979 147.104 601.938 147.188C601.896 147.271 601.75 147.438 601.5 147.688C601.25 147.938 600.896 148.208 600.438 148.5C598.562 149.667 596.583 150.25 594.5 150.25C592.333 150.25 590.562 149.562 589.188 148.188C587.854 146.812 587.188 145.125 587.188 143.125V143.062C587.188 140.646 588.083 138.75 589.875 137.375C590.5 136.875 591.312 136.438 592.312 136.062C593.312 135.646 594.292 135.333 595.25 135.125C596.25 134.917 597.188 134.75 598.062 134.625C598.938 134.458 599.667 134.354 600.25 134.312L601.125 134.25C601.458 134.167 601.625 133.875 601.625 133.375V131.062C601.625 128.854 601.125 127.146 600.125 125.938C599.083 124.812 597.833 124.25 596.375 124.25C594.125 124.25 592.292 125.667 590.875 128.5C590.5 129 590.042 129.25 589.5 129.25C588.833 129.25 588.229 129.042 587.688 128.625C587.188 128.208 586.938 127.646 586.938 126.938ZM596 146.75C596.958 146.75 597.854 146.542 598.688 146.125C599.562 145.708 600.167 145.333 600.5 145C600.833 144.667 601.104 144.375 601.312 144.125C601.562 143.792 601.688 143.312 601.688 142.688V138.5C601.688 137.708 601.646 137.208 601.562 137C601.521 136.75 601.354 136.625 601.062 136.625C600.021 136.625 598.708 136.792 597.125 137.125C595.583 137.458 594.354 138.062 593.438 138.938C592.438 139.771 591.938 140.938 591.938 142.438C591.938 144.021 592.375 145.188 593.25 145.938C593.833 146.479 594.75 146.75 596 146.75Z" fill="#09233F"/>
<path d="M628.125 147.25C630.833 147.25 633.188 146.229 635.188 144.188C637.229 142.146 638.25 139.583 638.25 136.5C638.25 133.458 637.229 130.812 635.188 128.562C633.188 126.312 630.896 125.188 628.312 125.188C626.729 125.188 625.312 125.646 624.062 126.562C622.854 127.396 622.25 128.708 622.25 130.5V144.25C622.25 145.083 622.792 145.75 623.875 146.25C625.208 146.917 626.625 147.25 628.125 147.25ZM630.438 121.438C633.938 121.438 636.812 122.792 639.062 125.5C641.354 128.208 642.5 131.458 642.5 135.25C642.5 139.458 641.083 142.875 638.25 145.5C635.417 148.125 631.771 149.438 627.312 149.438C626.896 149.438 626.479 149.417 626.062 149.375C625.646 149.375 625.271 149.354 624.938 149.312C624.604 149.271 624.312 149.229 624.062 149.188C623.812 149.146 623.604 149.125 623.438 149.125L623.188 149.062C622.896 149.062 622.75 149.292 622.75 149.75V158.75C622.75 159.75 623.229 160.292 624.188 160.375C624.604 160.417 625.083 160.458 625.625 160.5C626.208 160.542 626.625 160.562 626.875 160.562C627.125 160.604 627.417 160.646 627.75 160.688C628.083 160.729 628.312 160.792 628.438 160.875C628.604 160.958 628.75 161.062 628.875 161.188C629.042 161.312 629.146 161.458 629.188 161.625C629.229 161.833 629.25 162.083 629.25 162.375C629.25 163 629 163.312 628.5 163.312C628.417 163.312 628.104 163.292 627.562 163.25C627.062 163.208 626.354 163.167 625.438 163.125C624.521 163.083 623.542 163.062 622.5 163.062C621.125 163.062 619.75 163.104 618.375 163.188C617.042 163.271 615.979 163.354 615.188 163.438L614 163.562C613.292 163.562 612.938 163.146 612.938 162.312C612.938 162.188 612.938 162.062 612.938 161.938C612.979 161.854 613.021 161.771 613.062 161.688C613.146 161.646 613.208 161.583 613.25 161.5C613.292 161.458 613.375 161.396 613.5 161.312C613.667 161.271 613.792 161.229 613.875 161.188C614 161.188 614.167 161.146 614.375 161.062C614.625 161.021 614.833 160.979 615 160.938C615.208 160.938 615.479 160.896 615.812 160.812C616.146 160.729 616.438 160.667 616.688 160.625C617.604 160.458 618.062 159.875 618.062 158.875V129.188C618.062 128.521 617.792 128.083 617.25 127.875C616.667 127.625 615.958 127.312 615.125 126.938C614.042 126.479 613.396 126.188 613.188 126.062C613.021 125.938 612.938 125.792 612.938 125.625V125.562C612.938 125.396 613.875 124.771 615.75 123.688C617.25 122.812 618.604 122.021 619.812 121.312C619.938 121.229 620.062 121.167 620.188 121.125C620.312 121.042 620.396 120.979 620.438 120.938C620.521 120.854 620.583 120.812 620.625 120.812C620.708 120.771 620.792 120.75 620.875 120.75C621.208 120.75 621.375 121 621.375 121.5V125.25C621.375 125.5 621.458 125.625 621.625 125.625L622.438 124.75C622.979 124.167 623.833 123.542 625 122.875C626.167 122.167 627.479 121.708 628.938 121.5C629.271 121.458 629.771 121.438 630.438 121.438Z" fill="#09233F"/>
<path d="M649.688 141.25C649.688 139.083 649.688 137.062 649.688 135.188C649.688 133.312 649.688 131.854 649.688 130.812C649.729 129.729 649.75 129.083 649.75 128.875C649.75 128.417 649.583 128.104 649.25 127.938C648.958 127.729 647.688 127.167 645.438 126.25C644.896 126.042 644.625 125.771 644.625 125.438C644.625 125.312 644.646 125.188 644.688 125.062C644.771 124.938 644.875 124.833 645 124.75C645.167 124.667 645.312 124.604 645.438 124.562C645.562 124.479 645.729 124.396 645.938 124.312C646.146 124.229 646.292 124.167 646.375 124.125C651.042 121.875 653.396 120.75 653.438 120.75H653.5C654.083 120.75 654.375 121.104 654.375 121.812L654.312 123.875C654.229 125.25 654.146 127.104 654.062 129.438C654.021 131.729 654 134.021 654 136.312V138.438C654 142.396 654.062 144.729 654.188 145.438C654.312 146.146 654.729 146.542 655.438 146.625C656.688 146.792 657.479 146.938 657.812 147.062C658.146 147.188 658.312 147.5 658.312 148C658.312 148.917 658.062 149.375 657.562 149.375C657.521 149.375 657.396 149.354 657.188 149.312C656.979 149.312 656.688 149.292 656.312 149.25C655.938 149.208 655.521 149.167 655.062 149.125C654.604 149.083 654.062 149.042 653.438 149C652.854 149 652.271 149 651.688 149C651.104 149 650.5 149 649.875 149C649.25 149.042 648.708 149.083 648.25 149.125C647.833 149.167 647.438 149.208 647.062 149.25C646.688 149.292 646.396 149.312 646.188 149.312C645.979 149.354 645.854 149.375 645.812 149.375C645.146 149.375 644.812 149.021 644.812 148.312C644.812 147.604 644.938 147.188 645.188 147.062C645.479 146.938 646.417 146.771 648 146.562C648.75 146.438 649.208 146.208 649.375 145.875C649.583 145.5 649.688 144.958 649.688 144.25V141.25ZM650.312 109.438C650.312 108.604 650.625 107.896 651.25 107.312C651.875 106.729 652.604 106.438 653.438 106.438C654.271 106.438 654.979 106.729 655.562 107.312C656.188 107.896 656.5 108.583 656.5 109.375C656.5 110.25 656.188 110.979 655.562 111.562C654.979 112.146 654.25 112.438 653.375 112.438C652.5 112.438 651.771 112.167 651.188 111.625C650.604 111.042 650.312 110.312 650.312 109.438Z" fill="#09233F"/>
<path d="M661.75 125.625C660.875 125.625 660.438 125.354 660.438 124.812C660.438 124.562 660.729 124.188 661.312 123.688C661.938 123.146 662.812 122.271 663.938 121.062C665.062 119.812 666.125 118.354 667.125 116.688C667.583 115.896 668 115.5 668.375 115.5C668.958 115.5 669.25 115.854 669.25 116.562C669.25 116.854 669.229 117.604 669.188 118.812C669.188 120.021 669.188 120.771 669.188 121.062C669.188 121.896 669.604 122.312 670.438 122.312H676.188C676.271 122.312 676.375 122.333 676.5 122.375C676.625 122.375 676.708 122.375 676.75 122.375C677.833 122.375 678.375 122.771 678.375 123.562C678.375 124.354 678.188 124.979 677.812 125.438C677.604 125.646 677.229 125.75 676.688 125.75H669.188C668.771 125.75 668.562 125.958 668.562 126.375C668.562 129.833 668.542 132.708 668.5 135C668.5 137.292 668.479 138.833 668.438 139.625C668.438 140.417 668.438 140.979 668.438 141.312C668.438 144.479 669.542 146.062 671.75 146.062C672.625 146.062 673.542 145.75 674.5 145.125C675.458 144.458 676.292 143.812 677 143.188C677.75 142.521 678.312 142.188 678.688 142.188C679.021 142.188 679.292 142.312 679.5 142.562C679.75 142.812 679.875 143.083 679.875 143.375C679.875 143.625 679.729 143.979 679.438 144.438C676.062 148.271 673.083 150.188 670.5 150.188C668.958 150.188 667.542 149.583 666.25 148.375C665 147.125 664.271 145.146 664.062 142.438C664.021 141.979 664 141.292 664 140.375C664 139.333 664.042 136.812 664.125 132.812C664.208 128.771 664.25 126.562 664.25 126.188C664.25 125.812 664.104 125.625 663.812 125.625H661.75Z" fill="#09233F"/>
<path d="M682.312 126.938C682.312 125.688 683.312 124.438 685.312 123.188C687.354 121.896 689.625 121.25 692.125 121.25C692.917 121.25 693.729 121.333 694.562 121.5C695.396 121.667 696.333 121.958 697.375 122.375C698.458 122.792 699.354 123.521 700.062 124.562C700.812 125.562 701.271 126.792 701.438 128.25C701.521 129.25 701.562 130.021 701.562 130.562V143.188C701.562 143.938 701.708 144.542 702 145C702.292 145.458 702.583 145.75 702.875 145.875C703.167 145.958 703.458 146 703.75 146C704.333 146 704.792 145.833 705.125 145.5C705.458 145.125 705.708 144.771 705.875 144.438C706.083 144.062 706.312 143.875 706.562 143.875C706.938 143.875 707.125 144.146 707.125 144.688C707.125 145.688 706.667 146.792 705.75 148C704.833 149.167 703.646 149.75 702.188 149.75C701.646 149.75 701.125 149.667 700.625 149.5C700.125 149.333 699.708 149.125 699.375 148.875C699.042 148.583 698.729 148.312 698.438 148.062C698.188 147.812 697.979 147.583 697.812 147.375L697.625 147.125C697.583 147.125 697.562 147.125 697.562 147.125C697.562 147.083 697.542 147.062 697.5 147.062C697.417 147.062 697.354 147.104 697.312 147.188C697.271 147.271 697.125 147.438 696.875 147.688C696.625 147.938 696.271 148.208 695.812 148.5C693.938 149.667 691.958 150.25 689.875 150.25C687.708 150.25 685.938 149.562 684.562 148.188C683.229 146.812 682.562 145.125 682.562 143.125V143.062C682.562 140.646 683.458 138.75 685.25 137.375C685.875 136.875 686.688 136.438 687.688 136.062C688.688 135.646 689.667 135.333 690.625 135.125C691.625 134.917 692.562 134.75 693.438 134.625C694.312 134.458 695.042 134.354 695.625 134.312L696.5 134.25C696.833 134.167 697 133.875 697 133.375V131.062C697 128.854 696.5 127.146 695.5 125.938C694.458 124.812 693.208 124.25 691.75 124.25C689.5 124.25 687.667 125.667 686.25 128.5C685.875 129 685.417 129.25 684.875 129.25C684.208 129.25 683.604 129.042 683.062 128.625C682.562 128.208 682.312 127.646 682.312 126.938ZM691.375 146.75C692.333 146.75 693.229 146.542 694.062 146.125C694.938 145.708 695.542 145.333 695.875 145C696.208 144.667 696.479 144.375 696.688 144.125C696.938 143.792 697.062 143.312 697.062 142.688V138.5C697.062 137.708 697.021 137.208 696.938 137C696.896 136.75 696.729 136.625 696.438 136.625C695.396 136.625 694.083 136.792 692.5 137.125C690.958 137.458 689.729 138.062 688.812 138.938C687.812 139.771 687.312 140.938 687.312 142.438C687.312 144.021 687.75 145.188 688.625 145.938C689.208 146.479 690.125 146.75 691.375 146.75Z" fill="#09233F"/>
<path d="M722.062 148.125C722.062 148.958 721.812 149.375 721.312 149.375C721.271 149.375 721.125 149.354 720.875 149.312C720.667 149.312 720.375 149.292 720 149.25C719.625 149.208 719.208 149.167 718.75 149.125C718.292 149.083 717.75 149.042 717.125 149C716.5 149 715.896 149 715.312 149C714.729 149 714.146 149 713.562 149C712.979 149.042 712.458 149.062 712 149.062C711.542 149.104 711.125 149.146 710.75 149.188C710.417 149.229 710.146 149.25 709.938 149.25C709.729 149.292 709.604 149.312 709.562 149.312C708.938 149.312 708.625 148.938 708.625 148.188V148C708.625 147.458 708.75 147.125 709 147C709.292 146.833 710.042 146.688 711.25 146.562C712 146.479 712.479 146.25 712.688 145.875C712.938 145.458 713.062 144.875 713.062 144.125V111.562C713.062 111.438 713.042 111.333 713 111.25C713 111.125 712.979 111.021 712.938 110.938C712.896 110.854 712.854 110.792 712.812 110.75C712.812 110.667 712.75 110.604 712.625 110.562C712.542 110.479 712.458 110.417 712.375 110.375C712.333 110.333 712.208 110.271 712 110.188C711.833 110.062 711.708 109.979 711.625 109.938C711.208 109.688 710.75 109.438 710.25 109.188C709.792 108.896 709.458 108.688 709.25 108.562C709.083 108.438 708.896 108.312 708.688 108.188C708.479 108.021 708.333 107.896 708.25 107.812C708.208 107.688 708.188 107.562 708.188 107.438V107.375C708.188 107.167 708.979 106.646 710.562 105.812C712.521 104.854 714.354 103.917 716.062 103C716.312 102.833 716.583 102.75 716.875 102.75C717.458 102.75 717.75 103.146 717.75 103.938V144.438C717.75 144.688 717.75 144.896 717.75 145.062C717.792 145.229 717.833 145.396 717.875 145.562C717.917 145.688 717.958 145.792 718 145.875C718.042 145.958 718.125 146.042 718.25 146.125C718.417 146.208 718.521 146.271 718.562 146.312C718.646 146.354 718.792 146.417 719 146.5C719.25 146.542 719.417 146.583 719.5 146.625C719.625 146.625 719.854 146.646 720.188 146.688C720.562 146.729 720.833 146.771 721 146.812C721.708 146.938 722.062 147.375 722.062 148.125Z" fill="#09233F"/>
<path d="M47.96 153C46.92 153.04 45.6 152.6 44 151.68C42.44 150.72 40.74 149.42 38.9 147.78C37.02 149.38 34.84 150.6 32.36 151.44C29.92 152.28 27.28 152.7 24.44 152.7C21.16 152.7 18.3 152.14 15.86 151.02C13.46 149.9 11.6 148.34 10.28 146.34C8.96 144.3 8.3 141.92 8.3 139.2C8.3 136 9.22 133.12 11.06 130.56C12.94 128 15.42 126.16 18.5 125.04C17.3 123.44 16.34 121.94 15.62 120.54C14.9 119.1 14.54 117.6 14.54 116.04C14.54 114.32 15.02 112.82 15.98 111.54C16.98 110.26 18.34 109.26 20.06 108.54C21.82 107.78 23.84 107.4 26.12 107.4C28.28 107.4 30.16 107.76 31.76 108.48C33.4 109.2 34.68 110.2 35.6 111.48C36.52 112.76 36.98 114.22 36.98 115.86C36.98 117.14 36.64 118.38 35.96 119.58C35.32 120.74 34.46 121.68 33.38 122.4C32.34 123.12 31.22 123.48 30.02 123.48C29.74 123.44 29.42 123.26 29.06 122.94C28.7 122.62 28.44 122.26 28.28 121.86C29.08 121.62 29.78 121.12 30.38 120.36C30.98 119.56 31.28 118.54 31.28 117.3C31.28 115.34 30.68 113.68 29.48 112.32C28.32 110.96 26.76 110.28 24.8 110.28C23.36 110.28 22.18 110.72 21.26 111.6C20.38 112.48 19.94 113.62 19.94 115.02C19.94 116.06 20.24 117.36 20.84 118.92C21.44 120.48 22.64 122.4 24.44 124.68C26.68 127.56 29.06 130.48 31.58 133.44C34.1 136.36 36.66 139.02 39.26 141.42C40.66 138.78 41.36 135.76 41.36 132.36C41.36 131.64 41.32 130.88 41.24 130.08C40.56 130.04 39.94 130.02 39.38 130.02C37.62 130.02 36.1 130.32 34.82 130.92L34.4 129.06C34.36 128.74 34.38 128.46 34.46 128.22C34.58 127.94 34.78 127.76 35.06 127.68C36.26 127.2 37.46 126.9 38.66 126.78C39.86 126.62 41.02 126.54 42.14 126.54C42.9 126.54 43.62 126.56 44.3 126.6C45.02 126.6 45.74 126.6 46.46 126.6C47.82 126.6 49.14 126.5 50.42 126.3C51.74 126.1 52.96 125.66 54.08 124.98C54.8 126.02 55.14 127.04 55.1 128.04C54.74 129.12 54.08 129.88 53.12 130.32C52.2 130.76 51.1 130.98 49.82 130.98C49.34 130.98 48.86 130.96 48.38 130.92C47.9 130.88 47.4 130.84 46.88 130.8C46.72 133.4 46.24 135.82 45.44 138.06C44.68 140.3 43.66 142.32 42.38 144.12C44.38 145.68 46.32 146.92 48.2 147.84C50.12 148.76 51.9 149.18 53.54 149.1C53.54 149.74 53.52 150.26 53.48 150.66C53.44 151.06 53.34 151.48 53.18 151.92C52.86 152.2 52.14 152.44 51.02 152.64C49.9 152.84 48.88 152.96 47.96 153ZM36.14 145.32C33.54 142.8 30.84 139.94 28.04 136.74C25.28 133.54 22.72 130.42 20.36 127.38C18.48 128.46 17 130 15.92 132C14.84 133.96 14.3 136.14 14.3 138.54C14.3 140.46 14.68 142.22 15.44 143.82C16.2 145.38 17.42 146.64 19.1 147.6C20.82 148.52 23.04 148.98 25.76 148.98C27.88 148.98 29.82 148.66 31.58 148.02C33.34 147.38 34.86 146.48 36.14 145.32Z" fill="#09233F"/>
</svg>
