<svg width="174" height="78" viewBox="0 0 174 78" fill="none" xmlns="http://www.w3.org/2000/svg">
<path d="M37.0557 20.6342C36.8156 19.6555 36.4371 18.7969 35.9202 18.0583C35.4032 17.3012 34.757 16.6641 33.9815 16.1471C33.2245 15.6116 32.3383 15.2146 31.3228 14.956C30.3258 14.6791 29.2273 14.5406 28.0272 14.5406C25.4423 14.5406 23.2359 15.1592 21.4081 16.3964C19.5987 17.6336 18.214 19.4155 17.2539 21.7421C16.3122 24.0688 15.8414 26.8756 15.8414 30.1625C15.8414 33.4863 16.2938 36.33 17.1985 38.6936C18.1032 41.0572 19.451 42.8668 21.2419 44.1225C23.0329 45.3781 25.2577 46.006 27.9164 46.006C30.2612 46.006 32.2091 45.6643 33.76 44.9811C35.3294 44.2979 36.5018 43.3284 37.2772 42.0728C38.0527 40.8171 38.4404 39.3399 38.4404 37.641L41.0991 37.918H28.1379V26.9495H53.2848V34.8158C53.2848 39.9862 52.1863 44.4087 49.9891 48.0833C47.8105 51.7395 44.801 54.5463 40.9606 56.5037C37.1387 58.4425 32.7537 59.412 27.8056 59.412C22.2851 59.412 17.4385 58.2394 13.2658 55.8943C9.09313 53.5492 5.83437 50.2069 3.48955 45.8675C1.16318 41.5281 0 36.3669 0 30.3841C0 25.6938 0.710833 21.539 2.1325 17.9198C3.57263 14.3005 5.56666 11.2445 8.11458 8.75159C10.6625 6.24027 13.6074 4.34755 16.9492 3.07342C20.2911 1.78083 23.8729 1.13453 27.6948 1.13453C31.0551 1.13453 34.1754 1.61464 37.0557 2.57485C39.9544 3.51659 42.5115 4.86458 44.7271 6.61882C46.9612 8.35458 48.7613 10.4135 50.1276 12.7956C51.4939 15.1776 52.3247 17.7905 52.6201 20.6342H37.0557Z" fill="#C6A15D"/>
<path d="M106.584 22.4599H90.9643C90.8535 21.1673 90.5581 19.9948 90.0781 18.9422C89.6165 17.8897 88.9703 16.9849 88.1394 16.2278C87.327 15.4522 86.3393 14.8613 85.1761 14.4551C84.0129 14.0304 82.6928 13.818 81.2157 13.818C78.6309 13.818 76.443 14.4458 74.6521 15.7015C72.8796 16.9572 71.5318 18.7576 70.6086 21.1027C69.7039 23.4478 69.2516 26.2638 69.2516 29.5507C69.2516 33.0223 69.7131 35.9306 70.6363 38.2757C71.5779 40.6024 72.935 42.3566 74.7074 43.5384C76.4799 44.7017 78.6124 45.2834 81.1049 45.2834C82.5266 45.2834 83.8006 45.108 84.9268 44.7571C86.218 44.3549 99.8188 39.1367 99.8188 39.1367L106.135 35.841L113 31.7213L111.902 47.376C109.43 50.1224 94.8508 55.5041 91.7121 56.7783C88.5733 58.0524 84.9268 58.6894 80.7726 58.6894C75.566 58.6894 70.8948 57.5723 66.759 55.3379C62.6417 53.1036 59.383 49.8167 56.9828 45.4773C54.601 41.1379 53.4101 35.829 53.4101 29.5507C53.4101 23.2355 54.6287 17.9174 57.0658 13.5964C59.503 9.25701 62.7894 5.97937 66.9252 3.76349C71.061 1.52916 75.6768 0.411987 80.7726 0.411987C84.3545 0.411987 87.6501 0.901325 90.6596 1.88C93.6692 2.85868 96.3094 4.28977 98.5804 6.17326C100.851 8.03828 102.679 10.3373 104.064 13.0702C105.449 15.8031 106.289 18.933 106.584 22.4599Z" fill="#C6A15D"/>
<path d="M108 3H127.059L140.169 34.7187H140.831L153.941 3H173V59H158.017V26.625H157.576L145.017 58.5625H135.983L123.424 26.4062H122.983V43.2746L108 49.8881V3Z" fill="#C6A15D"/>
<path d="M11.2727 68.3398C11.2156 68.1411 11.1352 67.9655 11.0318 67.813C10.9283 67.6578 10.8017 67.5272 10.652 67.421C10.505 67.3121 10.3362 67.229 10.1456 67.1719C9.95774 67.1147 9.74947 67.0861 9.52077 67.0861C9.09334 67.0861 8.71763 67.1923 8.39364 67.4047C8.07238 67.617 7.82191 67.926 7.64222 68.3317C7.46254 68.7346 7.37269 69.2274 7.37269 69.81C7.37269 70.3926 7.46117 70.8881 7.63814 71.2965C7.8151 71.7049 8.06558 72.0166 8.38956 72.2317C8.71354 72.4441 9.09606 72.5502 9.53711 72.5502C9.93732 72.5502 10.279 72.4795 10.5621 72.3379C10.848 72.1936 11.0658 71.9908 11.2156 71.7294C11.368 71.468 11.4442 71.159 11.4442 70.8024L11.8036 70.8555H9.64737V69.5241H13.1472V70.5778C13.1472 71.3129 12.992 71.9445 12.6816 72.4727C12.3713 72.9981 11.9438 73.4038 11.3993 73.6896C10.8548 73.9728 10.2314 74.1143 9.52894 74.1143C8.74485 74.1143 8.05605 73.9415 7.46254 73.5957C6.86902 73.2472 6.40619 72.7531 6.07404 72.1133C5.74461 71.4708 5.5799 70.7085 5.5799 69.8263C5.5799 69.1484 5.67791 68.544 5.87393 68.0131C6.07268 67.4795 6.35038 67.0276 6.70703 66.6573C7.06368 66.287 7.47887 66.0053 7.95259 65.812C8.42631 65.6187 8.93951 65.522 9.49219 65.522C9.96591 65.522 10.407 65.5914 10.8153 65.7303C11.2237 65.8664 11.5858 66.0597 11.9016 66.3102C12.2202 66.5607 12.4802 66.8588 12.6816 67.2045C12.8831 67.5476 13.0124 67.926 13.0696 68.3398H11.2727ZM15.7225 65.6364V74H13.9828V65.6364H15.7225ZM19.4902 74.1225C18.8559 74.1225 18.3073 73.9877 17.8445 73.7182C17.3844 73.446 17.0291 73.0675 16.7786 72.5829C16.5281 72.0956 16.4029 71.5307 16.4029 70.8881C16.4029 70.2402 16.5281 69.6739 16.7786 69.1893C17.0291 68.7019 17.3844 68.3235 17.8445 68.054C18.3073 67.7817 18.8559 67.6456 19.4902 67.6456C20.1246 67.6456 20.6718 67.7817 21.1319 68.054C21.5948 68.3235 21.9514 68.7019 22.2019 69.1893C22.4524 69.6739 22.5776 70.2402 22.5776 70.8881C22.5776 71.5307 22.4524 72.0956 22.2019 72.5829C21.9514 73.0675 21.5948 73.446 21.1319 73.7182C20.6718 73.9877 20.1246 74.1225 19.4902 74.1225ZM19.4984 72.7749C19.787 72.7749 20.0279 72.6932 20.2212 72.5298C20.4145 72.3638 20.5602 72.1378 20.6582 71.8519C20.7589 71.5661 20.8093 71.2407 20.8093 70.8759C20.8093 70.5111 20.7589 70.1857 20.6582 69.8999C20.5602 69.614 20.4145 69.388 20.2212 69.2219C20.0279 69.0559 19.787 68.9728 19.4984 68.9728C19.2071 68.9728 18.9621 69.0559 18.7633 69.2219C18.5673 69.388 18.4189 69.614 18.3182 69.8999C18.2202 70.1857 18.1712 70.5111 18.1712 70.8759C18.1712 71.2407 18.2202 71.5661 18.3182 71.8519C18.4189 72.1378 18.5673 72.3638 18.7633 72.5298C18.9621 72.6932 19.2071 72.7749 19.4984 72.7749ZM23.2815 74V65.6364H25.0212V68.7809H25.0743C25.1505 68.6121 25.2608 68.4406 25.4051 68.2663C25.5521 68.0894 25.7427 67.9424 25.9768 67.8253C26.2137 67.7055 26.5077 67.6456 26.8589 67.6456C27.3163 67.6456 27.7383 67.7654 28.1249 68.005C28.5115 68.2418 28.8205 68.5998 29.0519 69.079C29.2833 69.5555 29.399 70.1531 29.399 70.8718C29.399 71.5715 29.286 72.1623 29.0601 72.6442C28.8368 73.1233 28.5319 73.4868 28.1453 73.7346C27.7614 73.9796 27.3313 74.1021 26.8548 74.1021C26.5172 74.1021 26.23 74.0463 25.9931 73.9347C25.759 73.823 25.5671 73.6828 25.4173 73.514C25.2676 73.3425 25.1532 73.1696 25.0743 72.9954H24.9967V74H23.2815ZM24.9844 70.8636C24.9844 71.2366 25.0362 71.562 25.1396 71.8397C25.2431 72.1174 25.3928 72.3338 25.5888 72.489C25.7849 72.6415 26.0231 72.7177 26.3035 72.7177C26.5866 72.7177 26.8262 72.6401 27.0223 72.4849C27.2183 72.327 27.3667 72.1092 27.4674 71.8315C27.5708 71.5511 27.6226 71.2285 27.6226 70.8636C27.6226 70.5015 27.5722 70.183 27.4715 69.908C27.3707 69.633 27.2224 69.418 27.0263 69.2628C26.8303 69.1076 26.5894 69.03 26.3035 69.03C26.0204 69.03 25.7808 69.1049 25.5848 69.2546C25.3915 69.4044 25.2431 69.6167 25.1396 69.8917C25.0362 70.1667 24.9844 70.4906 24.9844 70.8636ZM31.8886 74.1184C31.4883 74.1184 31.1317 74.049 30.8186 73.9102C30.5055 73.7686 30.2578 73.5603 30.0753 73.2853C29.8957 73.0076 29.8058 72.6619 29.8058 72.248C29.8058 71.8996 29.8698 71.6069 29.9978 71.37C30.1257 71.1332 30.3 70.9426 30.5205 70.7983C30.741 70.654 30.9915 70.5451 31.2719 70.4716C31.555 70.3981 31.8518 70.3464 32.1622 70.3164C32.527 70.2783 32.821 70.2429 33.0443 70.2102C33.2675 70.1748 33.4295 70.1231 33.5303 70.055C33.631 69.987 33.6814 69.8862 33.6814 69.7528V69.7283C33.6814 69.4697 33.5997 69.2696 33.4363 69.128C33.2757 68.9864 33.047 68.9157 32.7502 68.9157C32.4372 68.9157 32.188 68.9851 32.0029 69.1239C31.8178 69.2601 31.6953 69.4316 31.6354 69.6385L30.0263 69.5078C30.108 69.1267 30.2686 68.7972 30.5082 68.5195C30.7478 68.2391 31.0568 68.024 31.4353 67.8743C31.8164 67.7218 32.2575 67.6456 32.7584 67.6456C33.1069 67.6456 33.4404 67.6864 33.7589 67.7681C34.0802 67.8498 34.3647 67.9764 34.6125 68.1479C34.8629 68.3194 35.0603 68.54 35.2046 68.8095C35.3489 69.0763 35.4211 69.3962 35.4211 69.7692V74H33.7712V73.1301H33.7222C33.6215 73.3262 33.4867 73.4991 33.3179 73.6488C33.1491 73.7958 32.9463 73.9115 32.7094 73.9959C32.4725 74.0776 32.1989 74.1184 31.8886 74.1184ZM32.3868 72.9178C32.6427 72.9178 32.8687 72.8674 33.0647 72.7667C33.2607 72.6632 33.4145 72.5244 33.5262 72.3501C33.6378 72.1759 33.6936 71.9785 33.6936 71.758V71.0923C33.6392 71.1277 33.5643 71.1604 33.469 71.1903C33.3764 71.2176 33.2716 71.2434 33.1545 71.2679C33.0375 71.2897 32.9204 71.3101 32.8033 71.3292C32.6863 71.3455 32.5801 71.3605 32.4848 71.3741C32.2806 71.4041 32.1023 71.4517 31.9498 71.517C31.7974 71.5824 31.6789 71.6709 31.5945 71.7825C31.5101 71.8914 31.4679 72.0275 31.4679 72.1909C31.4679 72.4277 31.5537 72.6088 31.7252 72.734C31.8995 72.8565 32.12 72.9178 32.3868 72.9178ZM38.0505 65.6364V74H36.3108V65.6364H38.0505ZM48.5978 68.5645H46.8091C46.7764 68.333 46.7097 68.1275 46.609 67.9478C46.5082 67.7654 46.3789 67.6102 46.221 67.4822C46.0631 67.3543 45.8807 67.2563 45.6738 67.1882C45.4696 67.1201 45.2477 67.0861 45.0081 67.0861C44.5752 67.0861 44.1982 67.1937 43.8769 67.4087C43.5556 67.6211 43.3065 67.9315 43.1296 68.3398C42.9526 68.7455 42.8641 69.2383 42.8641 69.8182C42.8641 70.4144 42.9526 70.9154 43.1296 71.321C43.3093 71.7267 43.5597 72.033 43.881 72.2399C44.2022 72.4468 44.5739 72.5502 44.9959 72.5502C45.2327 72.5502 45.4519 72.5189 45.6534 72.4563C45.8575 72.3937 46.0386 72.3025 46.1965 72.1827C46.3544 72.0602 46.4851 71.9118 46.5885 71.7376C46.6947 71.5633 46.7682 71.3646 46.8091 71.1413L48.5978 71.1495C48.5515 71.5334 48.4358 71.9036 48.2507 72.2603C48.0682 72.6142 47.8219 72.9314 47.5115 73.2118C47.2038 73.4895 46.8363 73.71 46.4089 73.8734C45.9841 74.034 45.5036 74.1143 44.9673 74.1143C44.2213 74.1143 43.5543 73.9455 42.9662 73.608C42.3809 73.2704 41.918 72.7817 41.5777 72.1419C41.2401 71.5021 41.0713 70.7275 41.0713 69.8182C41.0713 68.9061 41.2428 68.1302 41.5859 67.4904C41.9289 66.8506 42.3945 66.3633 42.9825 66.0284C43.5706 65.6908 44.2322 65.522 44.9673 65.522C45.4519 65.522 45.9011 65.5901 46.3149 65.7262C46.7315 65.8623 47.1004 66.0611 47.4216 66.3224C47.7429 66.5811 48.0043 66.8983 48.2057 67.274C48.4099 67.6497 48.5406 68.0798 48.5978 68.5645ZM49.3731 74V67.7273H51.1128V74H49.3731ZM50.2471 66.9187C49.9884 66.9187 49.7665 66.8329 49.5814 66.6614C49.399 66.4872 49.3078 66.2789 49.3078 66.0366C49.3078 65.797 49.399 65.5914 49.5814 65.4199C49.7665 65.2457 49.9884 65.1586 50.2471 65.1586C50.5057 65.1586 50.7262 65.2457 50.9086 65.4199C51.0938 65.5914 51.1863 65.797 51.1863 66.0366C51.1863 66.2789 51.0938 66.4872 50.9086 66.6614C50.7262 66.8329 50.5057 66.9187 50.2471 66.9187ZM55.3829 67.7273V69.0341H51.6054V67.7273H55.3829ZM52.463 66.2244H54.2027V72.0724C54.2027 72.2331 54.2272 72.3583 54.2762 72.4482C54.3252 72.5353 54.3933 72.5965 54.4804 72.6319C54.5702 72.6673 54.6737 72.685 54.7908 72.685C54.8724 72.685 54.9541 72.6782 55.0358 72.6646C55.1175 72.6483 55.1801 72.636 55.2236 72.6278L55.4973 73.9224C55.4101 73.9496 55.2876 73.9809 55.1297 74.0163C54.9718 74.0545 54.7799 74.0776 54.5539 74.0858C54.1346 74.1021 53.7671 74.0463 53.4513 73.9183C53.1382 73.7904 52.8945 73.5916 52.7203 73.3221C52.546 73.0526 52.4603 72.7122 52.463 72.3011V66.2244ZM56.0562 74V67.7273H57.7959V74H56.0562ZM56.9301 66.9187C56.6715 66.9187 56.4496 66.8329 56.2644 66.6614C56.082 66.4872 55.9908 66.2789 55.9908 66.0366C55.9908 65.797 56.082 65.5914 56.2644 65.4199C56.4496 65.2457 56.6715 65.1586 56.9301 65.1586C57.1887 65.1586 57.4093 65.2457 57.5917 65.4199C57.7768 65.5914 57.8694 65.797 57.8694 66.0366C57.8694 66.2789 57.7768 66.4872 57.5917 66.6614C57.4093 66.8329 57.1887 66.9187 56.9301 66.9187ZM58.6968 74V72.9627L61.7678 69.1607V69.1158H58.803V67.7273H63.8628V68.8585L60.9796 72.5666V72.6115H63.969V74H58.6968ZM67.5183 74.1225C66.873 74.1225 66.3176 73.9918 65.8521 73.7305C65.3892 73.4664 65.0326 73.0934 64.7821 72.6115C64.5316 72.1269 64.4064 71.5538 64.4064 70.8922C64.4064 70.247 64.5316 69.6807 64.7821 69.1934C65.0326 68.706 65.3852 68.3262 65.8398 68.054C66.2972 67.7817 66.8335 67.6456 67.4488 67.6456C67.8627 67.6456 68.2479 67.7123 68.6046 67.8457C68.9639 67.9764 69.277 68.1738 69.5438 68.4379C69.8134 68.7019 70.023 69.0341 70.1727 69.4343C70.3225 69.8318 70.3973 70.2973 70.3973 70.831V71.3088H65.1006V70.2306H68.7597C68.7597 69.9802 68.7053 69.7583 68.5964 69.565C68.4875 69.3717 68.3364 69.2206 68.1431 69.1117C67.9525 69.0001 67.7306 68.9442 67.4774 68.9442C67.2133 68.9442 66.9792 69.0055 66.775 69.128C66.5735 69.2478 66.4156 69.4098 66.3013 69.614C66.1869 69.8155 66.1284 70.0401 66.1257 70.2878V71.3129C66.1257 71.6232 66.1829 71.8914 66.2972 72.1174C66.4143 72.3433 66.579 72.5176 66.7913 72.6401C67.0037 72.7626 67.2555 72.8239 67.5468 72.8239C67.7402 72.8239 67.9171 72.7966 68.0777 72.7422C68.2384 72.6877 68.3759 72.6061 68.4902 72.4972C68.6046 72.3883 68.6917 72.2549 68.7516 72.0969L70.3606 72.2031C70.2789 72.5897 70.1115 72.9273 69.8583 73.2159C69.6078 73.5018 69.2838 73.725 68.8863 73.8857C68.4916 74.0436 68.0355 74.1225 67.5183 74.1225ZM72.8123 70.3736V74H71.0726V67.7273H72.7307V68.834H72.8042C72.943 68.4692 73.1758 68.1806 73.5025 67.9682C73.8292 67.7531 74.2253 67.6456 74.6909 67.6456C75.1265 67.6456 75.5063 67.7409 75.8303 67.9315C76.1543 68.122 76.4061 68.3943 76.5858 68.7482C76.7655 69.0994 76.8553 69.5187 76.8553 70.006V74H75.1156V70.3164C75.1183 69.9325 75.0203 69.633 74.8216 69.418C74.6228 69.2002 74.3492 69.0913 74.0007 69.0913C73.7666 69.0913 73.5597 69.1416 73.38 69.2424C73.203 69.3431 73.0642 69.4901 72.9634 69.6834C72.8654 69.874 72.8151 70.104 72.8123 70.3736ZM82.9856 69.516L81.3929 69.614C81.3656 69.4779 81.3071 69.3554 81.2173 69.2464C81.1274 69.1348 81.009 69.0463 80.862 68.981C80.7177 68.9129 80.5448 68.8789 80.3433 68.8789C80.0738 68.8789 79.8465 68.9361 79.6613 69.0504C79.4762 69.162 79.3836 69.3118 79.3836 69.4996C79.3836 69.6494 79.4435 69.776 79.5633 69.8794C79.6831 69.9829 79.8887 70.0659 80.18 70.1286L81.3153 70.3572C81.9251 70.4825 82.3798 70.6839 82.6793 70.9616C82.9788 71.2393 83.1285 71.6042 83.1285 72.0561C83.1285 72.4672 83.0073 72.8279 82.765 73.1383C82.5254 73.4487 82.196 73.691 81.7768 73.8652C81.3602 74.0368 80.8797 74.1225 80.3352 74.1225C79.5048 74.1225 78.8432 73.9496 78.3504 73.6039C77.8604 73.2554 77.5732 72.7817 77.4888 72.1827L79.1999 72.0929C79.2516 72.3461 79.3768 72.5394 79.5756 72.6728C79.7743 72.8034 80.0289 72.8688 80.3393 72.8688C80.6442 72.8688 80.8892 72.8103 81.0743 72.6932C81.2622 72.5734 81.3575 72.4196 81.3602 72.2317C81.3575 72.0738 81.2908 71.9445 81.1601 71.8438C81.0294 71.7403 80.8279 71.6613 80.5557 71.6069L79.4694 71.3904C78.8568 71.2679 78.4008 71.0556 78.1013 70.7534C77.8046 70.4512 77.6562 70.0659 77.6562 69.5977C77.6562 69.1947 77.7651 68.8476 77.9829 68.5563C78.2034 68.265 78.5124 68.0404 78.9099 67.8825C79.3101 67.7246 79.7784 67.6456 80.3147 67.6456C81.107 67.6456 81.7305 67.813 82.1851 68.1479C82.6425 68.4828 82.9093 68.9388 82.9856 69.516ZM85.5037 70.3736V74H83.764V65.6364H85.4547V68.834H85.5282C85.6697 68.4637 85.8984 68.1738 86.2143 67.9641C86.5301 67.7518 86.9262 67.6456 87.4026 67.6456C87.8383 67.6456 88.218 67.7409 88.542 67.9315C88.8687 68.1193 89.1219 68.3902 89.3016 68.7441C89.484 69.0953 89.5739 69.516 89.5711 70.006V74H87.8314V70.3164C87.8342 69.9298 87.7362 69.629 87.5374 69.4139C87.3414 69.1988 87.0664 69.0913 86.7125 69.0913C86.4756 69.0913 86.266 69.1416 86.0836 69.2424C85.9039 69.3431 85.7623 69.4901 85.6589 69.6834C85.5581 69.874 85.5064 70.104 85.5037 70.3736ZM90.4802 74V67.7273H92.2199V74H90.4802ZM91.3542 66.9187C91.0955 66.9187 90.8736 66.8329 90.6885 66.6614C90.5061 66.4872 90.4149 66.2789 90.4149 66.0366C90.4149 65.797 90.5061 65.5914 90.6885 65.4199C90.8736 65.2457 91.0955 65.1586 91.3542 65.1586C91.6128 65.1586 91.8333 65.2457 92.0158 65.4199C92.2009 65.5914 92.2935 65.797 92.2935 66.0366C92.2935 66.2789 92.2009 66.4872 92.0158 66.6614C91.8333 66.8329 91.6128 66.9187 91.3542 66.9187ZM93.1535 76.3523V67.7273H94.8687V68.7809H94.9463C95.0226 68.6121 95.1328 68.4406 95.2771 68.2663C95.4241 68.0894 95.6147 67.9424 95.8489 67.8253C96.0857 67.7055 96.3798 67.6456 96.731 67.6456C97.1883 67.6456 97.6103 67.7654 97.9969 68.005C98.3835 68.2418 98.6925 68.5998 98.924 69.079C99.1554 69.5555 99.2711 70.1531 99.2711 70.8718C99.2711 71.5715 99.1581 72.1623 98.9321 72.6442C98.7089 73.1233 98.404 73.4868 98.0174 73.7346C97.6335 73.9796 97.2033 74.1021 96.7269 74.1021C96.3893 74.1021 96.1021 74.0463 95.8652 73.9347C95.6311 73.823 95.4391 73.6828 95.2894 73.514C95.1396 73.3425 95.0253 73.1696 94.9463 72.9954H94.8932V76.3523H93.1535ZM94.8565 70.8636C94.8565 71.2366 94.9082 71.562 95.0117 71.8397C95.1151 72.1174 95.2649 72.3338 95.4609 72.489C95.6569 72.6415 95.8951 72.7177 96.1756 72.7177C96.4587 72.7177 96.6983 72.6401 96.8943 72.4849C97.0903 72.327 97.2387 72.1092 97.3394 71.8315C97.4429 71.5511 97.4946 71.2285 97.4946 70.8636C97.4946 70.5015 97.4443 70.183 97.3435 69.908C97.2428 69.633 97.0944 69.418 96.8984 69.2628C96.7024 69.1076 96.4614 69.03 96.1756 69.03C95.8924 69.03 95.6528 69.1049 95.4568 69.2546C95.2635 69.4044 95.1151 69.6167 95.0117 69.8917C94.9082 70.1667 94.8565 70.4906 94.8565 70.8636ZM103.961 74.1184C103.561 74.1184 103.204 74.049 102.891 73.9102C102.578 73.7686 102.33 73.5603 102.148 73.2853C101.968 73.0076 101.878 72.6619 101.878 72.248C101.878 71.8996 101.942 71.6069 102.07 71.37C102.198 71.1332 102.373 70.9426 102.593 70.7983C102.814 70.654 103.064 70.5451 103.345 70.4716C103.628 70.3981 103.924 70.3464 104.235 70.3164C104.6 70.2783 104.894 70.2429 105.117 70.2102C105.34 70.1748 105.502 70.1231 105.603 70.055C105.704 69.987 105.754 69.8862 105.754 69.7528V69.7283C105.754 69.4697 105.672 69.2696 105.509 69.128C105.348 68.9864 105.12 68.9157 104.823 68.9157C104.51 68.9157 104.261 68.9851 104.076 69.1239C103.89 69.2601 103.768 69.4316 103.708 69.6385L102.099 69.5078C102.181 69.1267 102.341 68.7972 102.581 68.5195C102.82 68.2391 103.129 68.024 103.508 67.8743C103.889 67.7218 104.33 67.6456 104.831 67.6456C105.18 67.6456 105.513 67.6864 105.832 67.7681C106.153 67.8498 106.437 67.9764 106.685 68.1479C106.936 68.3194 107.133 68.54 107.277 68.8095C107.422 69.0763 107.494 69.3962 107.494 69.7692V74H105.844V73.1301H105.795C105.694 73.3262 105.559 73.4991 105.391 73.6488C105.222 73.7958 105.019 73.9115 104.782 73.9959C104.545 74.0776 104.272 74.1184 103.961 74.1184ZM104.459 72.9178C104.715 72.9178 104.941 72.8674 105.137 72.7667C105.333 72.6632 105.487 72.5244 105.599 72.3501C105.71 72.1759 105.766 71.9785 105.766 71.758V71.0923C105.712 71.1277 105.637 71.1604 105.542 71.1903C105.449 71.2176 105.344 71.2434 105.227 71.2679C105.11 71.2897 104.993 71.3101 104.876 71.3292C104.759 71.3455 104.653 71.3605 104.557 71.3741C104.353 71.4041 104.175 71.4517 104.022 71.517C103.87 71.5824 103.752 71.6709 103.667 71.7825C103.583 71.8914 103.541 72.0275 103.541 72.1909C103.541 72.4277 103.626 72.6088 103.798 72.734C103.972 72.8565 104.193 72.9178 104.459 72.9178ZM110.123 70.3736V74H108.383V67.7273H110.041V68.834H110.115C110.254 68.4692 110.487 68.1806 110.813 67.9682C111.14 67.7531 111.536 67.6456 112.002 67.6456C112.437 67.6456 112.817 67.7409 113.141 67.9315C113.465 68.122 113.717 68.3943 113.897 68.7482C114.076 69.0994 114.166 69.5187 114.166 70.006V74H112.426V70.3164C112.429 69.9325 112.331 69.633 112.132 69.418C111.934 69.2002 111.66 69.0913 111.312 69.0913C111.077 69.0913 110.87 69.1416 110.691 69.2424C110.514 69.3431 110.375 69.4901 110.274 69.6834C110.176 69.874 110.126 70.104 110.123 70.3736ZM117.389 74.1021C116.912 74.1021 116.481 73.9796 116.094 73.7346C115.71 73.4868 115.405 73.1233 115.179 72.6442C114.956 72.1623 114.844 71.5715 114.844 70.8718C114.844 70.1531 114.96 69.5555 115.192 69.079C115.423 68.5998 115.731 68.2418 116.114 68.005C116.501 67.7654 116.924 67.6456 117.385 67.6456C117.736 67.6456 118.028 67.7055 118.263 67.8253C118.499 67.9424 118.69 68.0894 118.834 68.2663C118.981 68.4406 119.093 68.6121 119.169 68.7809H119.222V65.6364H120.958V74H119.243V72.9954H119.169C119.088 73.1696 118.972 73.3425 118.822 73.514C118.675 73.6828 118.483 73.823 118.246 73.9347C118.012 74.0463 117.726 74.1021 117.389 74.1021ZM117.94 72.7177C118.22 72.7177 118.457 72.6415 118.651 72.489C118.847 72.3338 118.996 72.1174 119.1 71.8397C119.206 71.562 119.259 71.2366 119.259 70.8636C119.259 70.4906 119.207 70.1667 119.104 69.8917C119 69.6167 118.851 69.4044 118.655 69.2546C118.459 69.1049 118.22 69.03 117.94 69.03C117.654 69.03 117.413 69.1076 117.217 69.2628C117.021 69.418 116.873 69.633 116.772 69.908C116.671 70.183 116.621 70.5015 116.621 70.8636C116.621 71.2285 116.671 71.5511 116.772 71.8315C116.875 72.1092 117.024 72.327 117.217 72.4849C117.413 72.6401 117.654 72.7177 117.94 72.7177ZM124.163 65.6364H126.343L128.647 71.2557H128.745L131.048 65.6364H133.229V74H131.513V68.5563H131.444L129.28 73.9592H128.112L125.947 68.5359H125.878V74H124.163V65.6364ZM134.193 74V67.7273H135.933V74H134.193ZM135.067 66.9187C134.808 66.9187 134.586 66.8329 134.401 66.6614C134.219 66.4872 134.127 66.2789 134.127 66.0366C134.127 65.797 134.219 65.5914 134.401 65.4199C134.586 65.2457 134.808 65.1586 135.067 65.1586C135.325 65.1586 135.546 65.2457 135.728 65.4199C135.913 65.5914 136.006 65.797 136.006 66.0366C136.006 66.2789 135.913 66.4872 135.728 66.6614C135.546 66.8329 135.325 66.9187 135.067 66.9187ZM139.692 76.483C139.129 76.483 138.645 76.4054 138.242 76.2502C137.842 76.0977 137.524 75.8894 137.287 75.6254C137.05 75.3613 136.896 75.0645 136.825 74.7351L138.434 74.5186C138.483 74.6439 138.561 74.7609 138.667 74.8699C138.773 74.9788 138.913 75.0659 139.088 75.1312C139.265 75.1993 139.48 75.2333 139.733 75.2333C140.111 75.2333 140.423 75.1407 140.668 74.9556C140.916 74.7732 141.04 74.4669 141.04 74.0368V72.8892H140.966C140.89 73.0634 140.776 73.2282 140.623 73.3833C140.471 73.5385 140.275 73.6651 140.035 73.7631C139.796 73.8612 139.51 73.9102 139.178 73.9102C138.707 73.9102 138.278 73.8013 137.891 73.5835C137.507 73.3629 137.201 73.0267 136.972 72.5748C136.746 72.1201 136.633 71.5456 136.633 70.8514C136.633 70.1408 136.749 69.5473 136.98 69.0708C137.212 68.5944 137.52 68.2377 137.903 68.0009C138.29 67.764 138.713 67.6456 139.173 67.6456C139.525 67.6456 139.819 67.7055 140.056 67.8253C140.292 67.9424 140.483 68.0894 140.627 68.2663C140.774 68.4406 140.887 68.6121 140.966 68.7809H141.032V67.7273H142.759V74.0613C142.759 74.5949 142.628 75.0414 142.367 75.4007C142.106 75.7601 141.744 76.0297 141.281 76.2093C140.821 76.3917 140.291 76.483 139.692 76.483ZM139.729 72.6033C140.009 72.6033 140.246 72.5339 140.439 72.3951C140.635 72.2535 140.785 72.052 140.889 71.7907C140.995 71.5266 141.048 71.2108 141.048 70.8432C141.048 70.4757 140.996 70.1571 140.893 69.8876C140.789 69.6154 140.64 69.4044 140.444 69.2546C140.248 69.1049 140.009 69.03 139.729 69.03C139.443 69.03 139.202 69.1076 139.006 69.2628C138.81 69.4152 138.662 69.6276 138.561 69.8999C138.46 70.1721 138.41 70.4866 138.41 70.8432C138.41 71.2053 138.46 71.5184 138.561 71.7825C138.664 72.0439 138.813 72.2467 139.006 72.391C139.202 72.5326 139.443 72.6033 139.729 72.6033ZM143.683 74V67.7273H145.37V68.8217H145.435C145.55 68.4324 145.742 68.1384 146.011 67.9396C146.281 67.7382 146.591 67.6374 146.942 67.6374C147.029 67.6374 147.123 67.6429 147.224 67.6538C147.325 67.6647 147.413 67.6796 147.49 67.6987V69.2424C147.408 69.2179 147.295 69.1961 147.151 69.177C147.006 69.158 146.874 69.1484 146.754 69.1484C146.499 69.1484 146.27 69.2042 146.068 69.3159C145.87 69.4248 145.712 69.5772 145.595 69.7733C145.48 69.9693 145.423 70.1953 145.423 70.4512V74H143.683ZM149.538 74.1184C149.138 74.1184 148.781 74.049 148.468 73.9102C148.155 73.7686 147.907 73.5603 147.725 73.2853C147.545 73.0076 147.455 72.6619 147.455 72.248C147.455 71.8996 147.519 71.6069 147.647 71.37C147.775 71.1332 147.949 70.9426 148.17 70.7983C148.391 70.654 148.641 70.5451 148.921 70.4716C149.205 70.3981 149.501 70.3464 149.812 70.3164C150.176 70.2783 150.471 70.2429 150.694 70.2102C150.917 70.1748 151.079 70.1231 151.18 70.055C151.28 69.987 151.331 69.8862 151.331 69.7528V69.7283C151.331 69.4697 151.249 69.2696 151.086 69.128C150.925 68.9864 150.696 68.9157 150.4 68.9157C150.087 68.9157 149.838 68.9851 149.652 69.1239C149.467 69.2601 149.345 69.4316 149.285 69.6385L147.676 69.5078C147.758 69.1267 147.918 68.7972 148.158 68.5195C148.397 68.2391 148.706 68.024 149.085 67.8743C149.466 67.7218 149.907 67.6456 150.408 67.6456C150.756 67.6456 151.09 67.6864 151.408 67.7681C151.73 67.8498 152.014 67.9764 152.262 68.1479C152.512 68.3194 152.71 68.54 152.854 68.8095C152.998 69.0763 153.071 69.3962 153.071 69.7692V74H151.421V73.1301H151.372C151.271 73.3262 151.136 73.4991 150.967 73.6488C150.799 73.7958 150.596 73.9115 150.359 73.9959C150.122 74.0776 149.848 74.1184 149.538 74.1184ZM150.036 72.9178C150.292 72.9178 150.518 72.8674 150.714 72.7667C150.91 72.6632 151.064 72.5244 151.176 72.3501C151.287 72.1759 151.343 71.9785 151.343 71.758V71.0923C151.289 71.1277 151.214 71.1604 151.118 71.1903C151.026 71.2176 150.921 71.2434 150.804 71.2679C150.687 71.2897 150.57 71.3101 150.453 71.3292C150.336 71.3455 150.23 71.3605 150.134 71.3741C149.93 71.4041 149.752 71.4517 149.599 71.517C149.447 71.5824 149.328 71.6709 149.244 71.7825C149.16 71.8914 149.117 72.0275 149.117 72.1909C149.117 72.4277 149.203 72.6088 149.375 72.734C149.549 72.8565 149.769 72.9178 150.036 72.9178ZM157.297 67.7273V69.0341H153.519V67.7273H157.297ZM154.377 66.2244H156.116V72.0724C156.116 72.2331 156.141 72.3583 156.19 72.4482C156.239 72.5353 156.307 72.5965 156.394 72.6319C156.484 72.6673 156.587 72.685 156.705 72.685C156.786 72.685 156.868 72.6782 156.95 72.6646C157.031 72.6483 157.094 72.636 157.137 72.6278L157.411 73.9224C157.324 73.9496 157.201 73.9809 157.044 74.0163C156.886 74.0545 156.694 74.0776 156.468 74.0858C156.048 74.1021 155.681 74.0463 155.365 73.9183C155.052 73.7904 154.808 73.5916 154.634 73.3221C154.46 73.0526 154.374 72.7122 154.377 72.3011V66.2244ZM157.97 74V67.7273H159.71V74H157.97ZM158.844 66.9187C158.585 66.9187 158.363 66.8329 158.178 66.6614C157.996 66.4872 157.905 66.2789 157.905 66.0366C157.905 65.797 157.996 65.5914 158.178 65.4199C158.363 65.2457 158.585 65.1586 158.844 65.1586C159.103 65.1586 159.323 65.2457 159.505 65.4199C159.691 65.5914 159.783 65.797 159.783 66.0366C159.783 66.2789 159.691 66.4872 159.505 66.6614C159.323 66.8329 159.103 66.9187 158.844 66.9187ZM163.477 74.1225C162.843 74.1225 162.294 73.9877 161.832 73.7182C161.372 73.446 161.016 73.0675 160.766 72.5829C160.515 72.0956 160.39 71.5307 160.39 70.8881C160.39 70.2402 160.515 69.6739 160.766 69.1893C161.016 68.7019 161.372 68.3235 161.832 68.054C162.294 67.7817 162.843 67.6456 163.477 67.6456C164.112 67.6456 164.659 67.7817 165.119 68.054C165.582 68.3235 165.939 68.7019 166.189 69.1893C166.44 69.6739 166.565 70.2402 166.565 70.8881C166.565 71.5307 166.44 72.0956 166.189 72.5829C165.939 73.0675 165.582 73.446 165.119 73.7182C164.659 73.9877 164.112 74.1225 163.477 74.1225ZM163.486 72.7749C163.774 72.7749 164.015 72.6932 164.208 72.5298C164.402 72.3638 164.547 72.1378 164.645 71.8519C164.746 71.5661 164.796 71.2407 164.796 70.8759C164.796 70.5111 164.746 70.1857 164.645 69.8999C164.547 69.614 164.402 69.388 164.208 69.2219C164.015 69.0559 163.774 68.9728 163.486 68.9728C163.194 68.9728 162.949 69.0559 162.751 69.2219C162.554 69.388 162.406 69.614 162.305 69.8999C162.207 70.1857 162.158 70.5111 162.158 70.8759C162.158 71.2407 162.207 71.5661 162.305 71.8519C162.406 72.1378 162.554 72.3638 162.751 72.5298C162.949 72.6932 163.194 72.7749 163.486 72.7749ZM168.976 70.3736V74H167.236V67.7273H168.894V68.834H168.968C169.106 68.4692 169.339 68.1806 169.666 67.9682C169.993 67.7531 170.389 67.6456 170.854 67.6456C171.29 67.6456 171.67 67.7409 171.994 67.9315C172.318 68.122 172.569 68.3943 172.749 68.7482C172.929 69.0994 173.019 69.5187 173.019 70.006V74H171.279V70.3164C171.282 69.9325 171.184 69.633 170.985 69.418C170.786 69.2002 170.513 69.0913 170.164 69.0913C169.93 69.0913 169.723 69.1416 169.543 69.2424C169.366 69.3431 169.228 69.4901 169.127 69.6834C169.029 69.874 168.978 70.104 168.976 70.3736Z" fill="#C6A15D"/>
</svg>
