<svg width="174" height="75" viewBox="0 0 174 75" fill="none" xmlns="http://www.w3.org/2000/svg">
<path d="M37.0557 20.2222C36.8156 19.2435 36.4371 18.3849 35.9202 17.6463C35.4032 16.8892 34.757 16.2521 33.9815 15.7351C33.2245 15.1996 32.3383 14.8026 31.3228 14.544C30.3258 14.2671 29.2273 14.1286 28.0272 14.1286C25.4423 14.1286 23.2359 14.7472 21.4081 15.9844C19.5987 17.2216 18.214 19.0035 17.2539 21.3302C16.3122 23.6568 15.8414 26.4636 15.8414 29.7505C15.8414 33.0743 16.2938 35.918 17.1985 38.2816C18.1032 40.6452 19.451 42.4548 21.2419 43.7105C23.0329 44.9661 25.2577 45.594 27.9164 45.594C30.2612 45.594 32.2091 45.2524 33.76 44.5691C35.3294 43.8859 36.5018 42.9165 37.2772 41.6608C38.0527 40.4051 38.4404 38.9279 38.4404 37.229L41.0991 37.506H28.1379V26.5375H53.2848V34.4038C53.2848 39.5742 52.1863 43.9967 49.9891 47.6714C47.8105 51.3275 44.801 54.1343 40.9606 56.0917C37.1387 58.0306 32.7537 59 27.8056 59C22.2851 59 17.4385 57.8274 13.2658 55.4823C9.09313 53.1372 5.83437 49.7949 3.48955 45.4555C1.16318 41.1161 0 35.9549 0 29.9721C0 25.2818 0.710833 21.127 2.1325 17.5078C3.57263 13.8885 5.56666 10.8325 8.11458 8.33961C10.6625 5.82829 13.6074 3.93556 16.9492 2.66143C20.2911 1.36884 23.8729 0.722544 27.6948 0.722544C31.0551 0.722544 34.1754 1.20265 37.0557 2.16286C39.9544 3.10461 42.5115 4.4526 44.7271 6.20683C46.9612 7.9426 48.7613 10.0015 50.1276 12.3836C51.4939 14.7656 52.3247 17.3785 52.6201 20.2222H37.0557Z" fill="white"/>
<path d="M106.584 22.0479H90.9643C90.8535 20.7553 90.5581 19.5828 90.0781 18.5302C89.6165 17.4777 88.9703 16.5729 88.1394 15.8158C87.327 15.0402 86.3393 14.4493 85.1761 14.0431C84.0129 13.6184 82.6928 13.406 81.2157 13.406C78.6309 13.406 76.443 14.0339 74.6521 15.2895C72.8796 16.5452 71.5318 18.3456 70.6086 20.6907C69.7039 23.0358 69.2516 25.8519 69.2516 29.1387C69.2516 32.6103 69.7131 35.5186 70.6363 37.8637C71.5779 40.1904 72.935 41.9446 74.7074 43.1264C76.4799 44.2898 78.6124 44.8714 81.1049 44.8714C82.5266 44.8714 83.8006 44.696 84.9268 44.3452C86.218 43.9429 99.8188 38.7247 99.8188 38.7247L106.135 35.429L113 31.3093L111.902 46.964C109.43 49.7105 94.8508 55.0921 91.7121 56.3663C88.5733 57.6404 84.9268 58.2775 80.7726 58.2775C75.566 58.2775 70.8948 57.1603 66.759 54.926C62.6417 52.6916 59.383 49.4047 56.9828 45.0653C54.601 40.7259 53.4101 35.417 53.4101 29.1387C53.4101 22.8235 54.6287 17.5054 57.0658 13.1844C59.503 8.84503 62.7894 5.56738 66.9252 3.35151C71.061 1.11717 75.6768 0 80.7726 0C84.3545 0 87.6501 0.489338 90.6596 1.46801C93.6692 2.44669 96.3094 3.87778 98.5804 5.76127C100.851 7.6263 102.679 9.92526 104.064 12.6582C105.449 15.3911 106.289 18.521 106.584 22.0479Z" fill="white"/>
<path d="M108 2.58801H127.059L140.169 34.3068H140.831L153.941 2.58801H173V58.588H158.017V26.213H157.576L145.017 58.1505H135.983L123.424 25.9943H122.983V42.8626L108 49.4761V2.58801Z" fill="white"/>
<path d="M8.86506 64.6178C8.78267 64.3593 8.67188 64.1278 8.53267 63.9232C8.39631 63.7159 8.23295 63.5397 8.04261 63.3948C7.85227 63.2471 7.63494 63.1349 7.39062 63.0582C7.14915 62.9815 6.88352 62.9431 6.59375 62.9431C6.10227 62.9431 5.65909 63.0695 5.2642 63.3224C4.86932 63.5752 4.55682 63.946 4.3267 64.4346C4.09943 64.9204 3.9858 65.5156 3.9858 66.2201C3.9858 66.9275 4.10085 67.5255 4.33097 68.0141C4.56108 68.5028 4.87642 68.8735 5.27699 69.1264C5.67756 69.3792 6.13352 69.5056 6.64489 69.5056C7.11932 69.5056 7.53267 69.409 7.88494 69.2159C8.24006 69.0227 8.5142 68.7499 8.70739 68.3977C8.90341 68.0426 9.00142 67.6249 9.00142 67.1448L9.34233 67.2088H6.84517V66.1221H10.2756V67.115C10.2756 67.848 10.1193 68.4843 9.80682 69.0241C9.49716 69.561 9.06818 69.9758 8.51989 70.2684C7.97443 70.561 7.34943 70.7073 6.64489 70.7073C5.85511 70.7073 5.16193 70.5255 4.56534 70.1619C3.97159 69.7982 3.50852 69.2826 3.17614 68.615C2.84375 67.9445 2.67756 67.1491 2.67756 66.2286C2.67756 65.5326 2.77415 64.9076 2.96733 64.3536C3.16051 63.7997 3.43182 63.3295 3.78125 62.9431C4.13352 62.5539 4.54688 62.257 5.02131 62.0525C5.49858 61.8451 6.01989 61.7414 6.58523 61.7414C7.05682 61.7414 7.49574 61.811 7.90199 61.9502C8.31108 62.0894 8.67472 62.2869 8.9929 62.5426C9.31392 62.7982 9.57955 63.1022 9.78977 63.4545C10 63.8039 10.142 64.1917 10.2159 64.6178H8.86506ZM12.639 61.8607V70.588H11.3648V61.8607H12.639ZM16.6302 70.7201C16.0166 70.7201 15.4811 70.5795 15.0237 70.2982C14.5663 70.017 14.2112 69.6235 13.9583 69.1178C13.7055 68.6122 13.5791 68.0213 13.5791 67.3451C13.5791 66.6661 13.7055 66.0724 13.9583 65.5639C14.2112 65.0553 14.5663 64.6605 15.0237 64.3792C15.4811 64.098 16.0166 63.9573 16.6302 63.9573C17.2438 63.9573 17.7793 64.098 18.2367 64.3792C18.6941 64.6605 19.0492 65.0553 19.3021 65.5639C19.5549 66.0724 19.6813 66.6661 19.6813 67.3451C19.6813 68.0213 19.5549 68.6122 19.3021 69.1178C19.0492 69.6235 18.6941 70.017 18.2367 70.2982C17.7793 70.5795 17.2438 70.7201 16.6302 70.7201ZM16.6345 69.6505C17.0322 69.6505 17.3617 69.5454 17.6231 69.3352C17.8845 69.1249 18.0776 68.8451 18.2026 68.4957C18.3305 68.1463 18.3944 67.7613 18.3944 67.3409C18.3944 66.9232 18.3305 66.5397 18.2026 66.1903C18.0776 65.838 17.8845 65.5553 17.6231 65.3423C17.3617 65.1292 17.0322 65.0227 16.6345 65.0227C16.2339 65.0227 15.9015 65.1292 15.6373 65.3423C15.3759 65.5553 15.1813 65.838 15.0535 66.1903C14.9285 66.5397 14.866 66.9232 14.866 67.3409C14.866 67.7613 14.9285 68.1463 15.0535 68.4957C15.1813 68.8451 15.3759 69.1249 15.6373 69.3352C15.9015 69.5454 16.2339 69.6505 16.6345 69.6505ZM20.7258 70.588V61.8607H22V65.1036H22.0767C22.1506 64.9673 22.2571 64.8096 22.3963 64.6306C22.5355 64.4516 22.7287 64.2954 22.9758 64.1619C23.223 64.0255 23.5497 63.9573 23.956 63.9573C24.4844 63.9573 24.956 64.0909 25.3707 64.3579C25.7855 64.6249 26.1108 65.0099 26.3466 65.5127C26.5852 66.0156 26.7045 66.6207 26.7045 67.3281C26.7045 68.0355 26.5866 68.642 26.3508 69.1477C26.115 69.6505 25.7912 70.0383 25.3792 70.311C24.9673 70.5809 24.4971 70.7159 23.9687 70.7159C23.571 70.7159 23.2457 70.6491 22.9929 70.5156C22.7429 70.382 22.5469 70.2258 22.4048 70.0468C22.2628 69.8678 22.1534 69.7088 22.0767 69.5695H21.9702V70.588H20.7258ZM21.9744 67.3153C21.9744 67.7755 22.0412 68.1789 22.1747 68.5255C22.3082 68.8721 22.5014 69.1434 22.7542 69.3394C23.0071 69.5326 23.3167 69.6292 23.6832 69.6292C24.0639 69.6292 24.3821 69.5284 24.6378 69.3266C24.8935 69.1221 25.0866 68.8451 25.2173 68.4957C25.3508 68.1463 25.4176 67.7528 25.4176 67.3153C25.4176 66.8835 25.3523 66.4957 25.2216 66.1519C25.0937 65.8082 24.9006 65.5369 24.642 65.338C24.3863 65.1391 24.0667 65.0397 23.6832 65.0397C23.3139 65.0397 23.0014 65.1349 22.7457 65.3252C22.4929 65.5156 22.3011 65.7812 22.1704 66.1221C22.0398 66.463 21.9744 66.8607 21.9744 67.3153ZM29.5601 70.7329C29.1453 70.7329 28.7703 70.6562 28.4351 70.5028C28.0999 70.3465 27.8343 70.1207 27.6382 69.8252C27.4451 69.5298 27.3485 69.1676 27.3485 68.7386C27.3485 68.3693 27.4195 68.0653 27.5615 67.8266C27.7036 67.588 27.8953 67.3991 28.1368 67.2599C28.3783 67.1207 28.6482 67.0156 28.9465 66.9445C29.2448 66.8735 29.5488 66.8195 29.8584 66.7826C30.2505 66.7372 30.5686 66.7002 30.813 66.6718C31.0573 66.6406 31.2348 66.5909 31.3456 66.5227C31.4564 66.4545 31.5118 66.3437 31.5118 66.1903V66.1605C31.5118 65.7883 31.4067 65.4999 31.1965 65.2954C30.9891 65.0909 30.6794 64.9886 30.2675 64.9886C29.8385 64.9886 29.5005 65.0838 29.2533 65.2741C29.009 65.4616 28.8399 65.6704 28.7462 65.9005L27.5487 65.6278C27.6908 65.2301 27.8982 64.909 28.1709 64.6647C28.4465 64.4176 28.7632 64.2386 29.1212 64.1278C29.4791 64.0141 29.8556 63.9573 30.2505 63.9573C30.5118 63.9573 30.7888 63.9886 31.0814 64.0511C31.3769 64.1107 31.6524 64.2215 31.9081 64.3835C32.1666 64.5454 32.3783 64.7769 32.5431 65.0781C32.7078 65.3764 32.7902 65.7641 32.7902 66.2414V70.588H31.5459V69.6931H31.4948C31.4124 69.8579 31.2888 70.0198 31.124 70.1789C30.9593 70.338 30.7476 70.4701 30.4891 70.5752C30.2306 70.6803 29.9209 70.7329 29.5601 70.7329ZM29.8371 69.7102C30.1894 69.7102 30.4905 69.6406 30.7405 69.5014C30.9934 69.3622 31.1851 69.1803 31.3158 68.9559C31.4493 68.7286 31.5161 68.4857 31.5161 68.2272V67.3835C31.4706 67.4289 31.3826 67.4715 31.2519 67.5113C31.124 67.5482 30.9777 67.5809 30.813 67.6093C30.6482 67.6349 30.4877 67.659 30.3314 67.6818C30.1752 67.7016 30.0445 67.7187 29.9394 67.7329C29.6922 67.7641 29.4664 67.8167 29.2618 67.8906C29.0601 67.9644 28.8982 68.071 28.776 68.2102C28.6567 68.3465 28.597 68.5284 28.597 68.7556C28.597 69.071 28.7135 69.3096 28.9465 69.4715C29.1794 69.6306 29.4763 69.7102 29.8371 69.7102ZM35.2815 61.8607V70.588H34.0073V61.8607H35.2815ZM46.5622 64.6988H45.2327C45.1815 64.4147 45.0864 64.1647 44.9472 63.9488C44.808 63.7329 44.6375 63.5497 44.4358 63.3991C44.2341 63.2485 44.0083 63.1349 43.7583 63.0582C43.5111 62.9815 43.2483 62.9431 42.9699 62.9431C42.4671 62.9431 42.0168 63.0695 41.619 63.3224C41.2242 63.5752 40.9117 63.946 40.6815 64.4346C40.4543 64.9232 40.3406 65.5198 40.3406 66.2244C40.3406 66.9346 40.4543 67.534 40.6815 68.0227C40.9117 68.5113 41.2256 68.8806 41.6233 69.1306C42.021 69.3806 42.4685 69.5056 42.9656 69.5056C43.2412 69.5056 43.5026 69.4687 43.7497 69.3948C43.9997 69.3181 44.2256 69.2059 44.4273 69.0582C44.629 68.9105 44.7994 68.7301 44.9386 68.517C45.0807 68.3011 45.1787 68.0539 45.2327 67.7755L46.5622 67.7798C46.4912 68.2088 46.3534 68.6036 46.1489 68.9644C45.9472 69.3224 45.6872 69.632 45.369 69.8934C45.0537 70.1519 44.6929 70.3522 44.2867 70.4943C43.8804 70.6363 43.4372 70.7073 42.9571 70.7073C42.2014 70.7073 41.5281 70.5284 40.9372 70.1704C40.3463 69.8096 39.8804 69.294 39.5395 68.6235C39.2014 67.9531 39.0324 67.1534 39.0324 66.2244C39.0324 65.2926 39.2029 64.4928 39.5438 63.8252C39.8847 63.1548 40.3506 62.6406 40.9415 62.2826C41.5324 61.9218 42.2043 61.7414 42.9571 61.7414C43.4202 61.7414 43.852 61.8082 44.2526 61.9417C44.656 62.0724 45.0182 62.2656 45.3392 62.5213C45.6602 62.7741 45.9259 63.0838 46.1361 63.4502C46.3463 63.8139 46.4884 64.2301 46.5622 64.6988ZM47.5556 70.588V64.0426H48.8297V70.588H47.5556ZM48.1991 63.0326C47.9775 63.0326 47.7871 62.9588 47.628 62.811C47.4718 62.6605 47.3937 62.4815 47.3937 62.2741C47.3937 62.0639 47.4718 61.8849 47.628 61.7372C47.7871 61.5866 47.9775 61.5113 48.1991 61.5113C48.4207 61.5113 48.6096 61.5866 48.7658 61.7372C48.9249 61.8849 49.0045 62.0639 49.0045 62.2741C49.0045 62.4815 48.9249 62.6605 48.7658 62.811C48.6096 62.9588 48.4207 63.0326 48.1991 63.0326ZM53.1193 64.0426V65.0653H49.544V64.0426H53.1193ZM50.5028 62.4744H51.7769V68.6661C51.7769 68.9133 51.8139 69.0994 51.8877 69.2244C51.9616 69.3465 52.0568 69.4303 52.1733 69.4758C52.2926 69.5184 52.4218 69.5397 52.561 69.5397C52.6633 69.5397 52.7528 69.5326 52.8295 69.5184C52.9062 69.5042 52.9659 69.4928 53.0085 69.4843L53.2386 70.5369C53.1647 70.5653 53.0596 70.5937 52.9233 70.6221C52.7869 70.6534 52.6164 70.6704 52.4119 70.6732C52.0767 70.6789 51.7642 70.6193 51.4744 70.4943C51.1846 70.3693 50.9502 70.1761 50.7713 69.9147C50.5923 69.6534 50.5028 69.3252 50.5028 68.9303V62.4744ZM54.0487 70.588V64.0426H55.3229V70.588H54.0487ZM54.6922 63.0326C54.4706 63.0326 54.2803 62.9588 54.1212 62.811C53.9649 62.6605 53.8868 62.4815 53.8868 62.2741C53.8868 62.0639 53.9649 61.8849 54.1212 61.7372C54.2803 61.5866 54.4706 61.5113 54.6922 61.5113C54.9138 61.5113 55.1027 61.5866 55.2589 61.7372C55.418 61.8849 55.4976 62.0639 55.4976 62.2741C55.4976 62.4815 55.418 62.6605 55.2589 62.811C55.1027 62.9588 54.9138 63.0326 54.6922 63.0326ZM56.4206 70.588V69.7144L59.9661 65.2102V65.1505H56.5357V64.0426H61.5556V64.9715L58.1465 69.4204V69.4801H61.6749V70.588H56.4206ZM65.3316 70.7201C64.6867 70.7201 64.1313 70.5823 63.6654 70.3068C63.2024 70.0284 62.8444 69.6377 62.5916 69.1349C62.3416 68.6292 62.2166 68.0369 62.2166 67.3579C62.2166 66.6874 62.3416 66.0965 62.5916 65.5852C62.8444 65.0738 63.1967 64.6747 63.6484 64.3877C64.1029 64.1008 64.6342 63.9573 65.2421 63.9573C65.6115 63.9573 65.9694 64.0184 66.316 64.1406C66.6626 64.2627 66.9737 64.4545 67.2492 64.7159C67.5248 64.9772 67.7421 65.3167 67.9012 65.7343C68.0603 66.1491 68.1399 66.6534 68.1399 67.2471V67.6988H62.9367V66.7443H66.8913C66.8913 66.409 66.8231 66.1122 66.6867 65.8536C66.5504 65.5923 66.3586 65.3863 66.1115 65.2357C65.8671 65.0852 65.5802 65.0099 65.2507 65.0099C64.8927 65.0099 64.5802 65.098 64.3132 65.2741C64.049 65.4474 63.8444 65.6747 63.6995 65.9559C63.5575 66.2343 63.4865 66.5369 63.4865 66.8636V67.6093C63.4865 68.0468 63.5632 68.419 63.7166 68.7258C63.8728 69.0326 64.0901 69.267 64.3686 69.4289C64.647 69.588 64.9722 69.6676 65.3444 69.6676C65.5859 69.6676 65.8061 69.6335 66.0049 69.5653C66.2038 69.4943 66.3757 69.3891 66.5205 69.2499C66.6654 69.1107 66.7762 68.9389 66.8529 68.7343L68.0589 68.9516C67.9623 69.3068 67.789 69.6178 67.539 69.8849C67.2918 70.1491 66.9808 70.3551 66.6058 70.5028C66.2336 70.6477 65.8089 70.7201 65.3316 70.7201ZM70.3477 66.7016V70.588H69.0736V64.0426H70.2966V65.1079H70.3775C70.5281 64.7613 70.7639 64.4829 71.0849 64.2727C71.4088 64.0624 71.8165 63.9573 72.3079 63.9573C72.754 63.9573 73.1446 64.0511 73.4798 64.2386C73.815 64.4232 74.075 64.6988 74.2596 65.0653C74.4443 65.4318 74.5366 65.8849 74.5366 66.4247V70.588H73.2625V66.5781C73.2625 66.1036 73.1389 65.7329 72.8917 65.4659C72.6446 65.196 72.3051 65.061 71.8733 65.061C71.5778 65.061 71.315 65.1249 71.0849 65.2528C70.8577 65.3806 70.6773 65.5681 70.5437 65.8153C70.4131 66.0596 70.3477 66.3551 70.3477 66.7016ZM80.6703 65.6406L79.5154 65.8451C79.4671 65.6974 79.3904 65.5568 79.2853 65.4232C79.1831 65.2897 79.0438 65.1803 78.8677 65.0951C78.6916 65.0099 78.4714 64.9673 78.2072 64.9673C77.8464 64.9673 77.5453 65.0482 77.3038 65.2102C77.0623 65.3693 76.9416 65.5752 76.9416 65.8281C76.9416 66.0468 77.0225 66.223 77.1845 66.3565C77.3464 66.49 77.6078 66.5994 77.9686 66.6846L79.0083 66.9232C79.6106 67.0624 80.0595 67.2769 80.3549 67.5667C80.6504 67.8565 80.7981 68.2329 80.7981 68.696C80.7981 69.088 80.6845 69.4374 80.4572 69.7443C80.2328 70.0482 79.9188 70.2869 79.5154 70.4602C79.1149 70.6335 78.6504 70.7201 78.122 70.7201C77.389 70.7201 76.791 70.5639 76.3279 70.2514C75.8649 69.936 75.5808 69.4886 75.4757 68.909L76.7072 68.7215C76.7839 69.0426 76.9416 69.2855 77.1802 69.4502C77.4188 69.6122 77.7299 69.6931 78.1135 69.6931C78.5311 69.6931 78.8649 69.6065 79.1149 69.4332C79.3649 69.257 79.4899 69.0426 79.4899 68.7897C79.4899 68.5852 79.4132 68.4133 79.2598 68.2741C79.1092 68.1349 78.8777 68.0298 78.5652 67.9588L77.4572 67.7159C76.8464 67.5766 76.3947 67.3551 76.1021 67.0511C75.8123 66.7471 75.6674 66.3622 75.6674 65.8963C75.6674 65.5099 75.7754 65.1718 75.9913 64.882C76.2072 64.5923 76.5055 64.3664 76.8862 64.2045C77.2669 64.0397 77.7029 63.9573 78.1944 63.9573C78.9018 63.9573 79.4586 64.1107 79.8649 64.4176C80.2711 64.7215 80.5396 65.1292 80.6703 65.6406ZM82.9932 66.7016V70.588H81.719V61.8607H82.9761V65.1079H83.0571C83.2105 64.7556 83.4449 64.4758 83.7602 64.2684C84.0756 64.061 84.4875 63.9573 84.996 63.9573C85.4449 63.9573 85.8369 64.0497 86.1722 64.2343C86.5102 64.419 86.7716 64.6945 86.9563 65.061C87.1438 65.4247 87.2375 65.8792 87.2375 66.4247V70.588H85.9634V66.5781C85.9634 66.098 85.8398 65.7258 85.5926 65.4616C85.3455 65.1945 85.0017 65.061 84.5614 65.061C84.2602 65.061 83.9903 65.1249 83.7517 65.2528C83.5159 65.3806 83.3298 65.5681 83.1935 65.8153C83.0599 66.0596 82.9932 66.3551 82.9932 66.7016ZM88.4578 70.588V64.0426H89.7319V70.588H88.4578ZM89.1012 63.0326C88.8797 63.0326 88.6893 62.9588 88.5302 62.811C88.374 62.6605 88.2959 62.4815 88.2959 62.2741C88.2959 62.0639 88.374 61.8849 88.5302 61.7372C88.6893 61.5866 88.8797 61.5113 89.1012 61.5113C89.3228 61.5113 89.5118 61.5866 89.668 61.7372C89.8271 61.8849 89.9066 62.0639 89.9066 62.2741C89.9066 62.4815 89.8271 62.6605 89.668 62.811C89.5118 62.9588 89.3228 63.0326 89.1012 63.0326ZM90.9661 73.0426V64.0426H92.2104V65.1036H92.3169C92.3908 64.9673 92.4973 64.8096 92.6365 64.6306C92.7757 64.4516 92.9689 64.2954 93.2161 64.1619C93.4632 64.0255 93.7899 63.9573 94.1962 63.9573C94.7246 63.9573 95.1962 64.0909 95.611 64.3579C96.0257 64.6249 96.351 65.0099 96.5868 65.5127C96.8254 66.0156 96.9448 66.6207 96.9448 67.3281C96.9448 68.0355 96.8269 68.642 96.5911 69.1477C96.3553 69.6505 96.0314 70.0383 95.6195 70.311C95.2075 70.5809 94.7374 70.7159 94.209 70.7159C93.8112 70.7159 93.486 70.6491 93.2331 70.5156C92.9831 70.382 92.7871 70.2258 92.645 70.0468C92.503 69.8678 92.3936 69.7088 92.3169 69.5695H92.2402V73.0426H90.9661ZM92.2146 67.3153C92.2146 67.7755 92.2814 68.1789 92.4149 68.5255C92.5485 68.8721 92.7416 69.1434 92.9945 69.3394C93.2473 69.5326 93.557 69.6292 93.9235 69.6292C94.3041 69.6292 94.6223 69.5284 94.878 69.3266C95.1337 69.1221 95.3269 68.8451 95.4575 68.4957C95.5911 68.1463 95.6578 67.7528 95.6578 67.3153C95.6578 66.8835 95.5925 66.4957 95.4618 66.1519C95.334 65.8082 95.1408 65.5369 94.8823 65.338C94.6266 65.1391 94.307 65.0397 93.9235 65.0397C93.5541 65.0397 93.2416 65.1349 92.986 65.3252C92.7331 65.5156 92.5414 65.7812 92.4107 66.1221C92.28 66.463 92.2146 66.8607 92.2146 67.3153ZM102.493 70.7329C102.078 70.7329 101.703 70.6562 101.368 70.5028C101.033 70.3465 100.767 70.1207 100.571 69.8252C100.378 69.5298 100.281 69.1676 100.281 68.7386C100.281 68.3693 100.352 68.0653 100.494 67.8266C100.636 67.588 100.828 67.3991 101.07 67.2599C101.311 67.1207 101.581 67.0156 101.879 66.9445C102.178 66.8735 102.482 66.8195 102.791 66.7826C103.183 66.7372 103.501 66.7002 103.746 66.6718C103.99 66.6406 104.168 66.5909 104.278 66.5227C104.389 66.4545 104.445 66.3437 104.445 66.1903V66.1605C104.445 65.7883 104.34 65.4999 104.129 65.2954C103.922 65.0909 103.612 64.9886 103.2 64.9886C102.771 64.9886 102.433 65.0838 102.186 65.2741C101.942 65.4616 101.773 65.6704 101.679 65.9005L100.482 65.6278C100.624 65.2301 100.831 64.909 101.104 64.6647C101.379 64.4176 101.696 64.2386 102.054 64.1278C102.412 64.0141 102.788 63.9573 103.183 63.9573C103.445 63.9573 103.722 63.9886 104.014 64.0511C104.31 64.1107 104.585 64.2215 104.841 64.3835C105.099 64.5454 105.311 64.7769 105.476 65.0781C105.641 65.3764 105.723 65.7641 105.723 66.2414V70.588H104.479V69.6931H104.428C104.345 69.8579 104.222 70.0198 104.057 70.1789C103.892 70.338 103.68 70.4701 103.422 70.5752C103.163 70.6803 102.854 70.7329 102.493 70.7329ZM102.77 69.7102C103.122 69.7102 103.423 69.6406 103.673 69.5014C103.926 69.3622 104.118 69.1803 104.249 68.9559C104.382 68.7286 104.449 68.4857 104.449 68.2272V67.3835C104.403 67.4289 104.315 67.4715 104.185 67.5113C104.057 67.5482 103.911 67.5809 103.746 67.6093C103.581 67.6349 103.42 67.659 103.264 67.6818C103.108 67.7016 102.977 67.7187 102.872 67.7329C102.625 67.7641 102.399 67.8167 102.195 67.8906C101.993 67.9644 101.831 68.071 101.709 68.2102C101.59 68.3465 101.53 68.5284 101.53 68.7556C101.53 69.071 101.646 69.3096 101.879 69.4715C102.112 69.6306 102.409 69.7102 102.77 69.7102ZM108.214 66.7016V70.588H106.94V64.0426H108.163V65.1079H108.244C108.395 64.7613 108.63 64.4829 108.951 64.2727C109.275 64.0624 109.683 63.9573 110.175 63.9573C110.621 63.9573 111.011 64.0511 111.346 64.2386C111.682 64.4232 111.942 64.6988 112.126 65.0653C112.311 65.4318 112.403 65.8849 112.403 66.4247V70.588H111.129V66.5781C111.129 66.1036 111.005 65.7329 110.758 65.4659C110.511 65.196 110.172 65.061 109.74 65.061C109.444 65.061 109.182 65.1249 108.951 65.2528C108.724 65.3806 108.544 65.5681 108.41 65.8153C108.28 66.0596 108.214 66.3551 108.214 66.7016ZM116.082 70.7159C115.554 70.7159 115.082 70.5809 114.668 70.311C114.256 70.0383 113.932 69.6505 113.696 69.1477C113.463 68.642 113.346 68.0355 113.346 67.3281C113.346 66.6207 113.464 66.0156 113.7 65.5127C113.939 65.0099 114.266 64.6249 114.68 64.3579C115.095 64.0909 115.565 63.9573 116.091 63.9573C116.497 63.9573 116.824 64.0255 117.071 64.1619C117.321 64.2954 117.514 64.4516 117.65 64.6306C117.79 64.8096 117.898 64.9673 117.974 65.1036H118.051V61.8607H119.325V70.588H118.081V69.5695H117.974C117.898 69.7088 117.787 69.8678 117.642 70.0468C117.5 70.2258 117.304 70.382 117.054 70.5156C116.804 70.6491 116.48 70.7159 116.082 70.7159ZM116.364 69.6292C116.73 69.6292 117.04 69.5326 117.293 69.3394C117.548 69.1434 117.741 68.8721 117.872 68.5255C118.006 68.1789 118.072 67.7755 118.072 67.3153C118.072 66.8607 118.007 66.463 117.876 66.1221C117.746 65.7812 117.554 65.5156 117.301 65.3252C117.048 65.1349 116.736 65.0397 116.364 65.0397C115.98 65.0397 115.66 65.1391 115.405 65.338C115.149 65.5369 114.956 65.8082 114.825 66.1519C114.697 66.4957 114.633 66.8835 114.633 67.3153C114.633 67.7528 114.699 68.1463 114.829 68.4957C114.96 68.8451 115.153 69.1221 115.409 69.3266C115.668 69.5284 115.986 69.6292 116.364 69.6292ZM123.462 61.8607H125.06L127.838 68.6448H127.94L130.719 61.8607H132.317V70.588H131.064V64.2727H130.983L128.409 70.5752H127.369L124.796 64.2684H124.715V70.588H123.462V61.8607ZM133.649 70.588V64.0426H134.923V70.588H133.649ZM134.292 63.0326C134.071 63.0326 133.881 62.9588 133.721 62.811C133.565 62.6605 133.487 62.4815 133.487 62.2741C133.487 62.0639 133.565 61.8849 133.721 61.7372C133.881 61.5866 134.071 61.5113 134.292 61.5113C134.514 61.5113 134.703 61.5866 134.859 61.7372C135.018 61.8849 135.098 62.0639 135.098 62.2741C135.098 62.4815 135.018 62.6605 134.859 62.811C134.703 62.9588 134.514 63.0326 134.292 63.0326ZM138.902 73.1789C138.382 73.1789 137.934 73.1107 137.559 72.9744C137.187 72.838 136.883 72.6576 136.647 72.4332C136.412 72.2088 136.235 71.963 136.119 71.696L137.214 71.2443C137.291 71.3693 137.393 71.5014 137.521 71.6406C137.652 71.7826 137.828 71.9034 138.049 72.0028C138.274 72.1022 138.562 72.1519 138.914 72.1519C139.397 72.1519 139.797 72.034 140.112 71.7982C140.427 71.5653 140.585 71.1931 140.585 70.6818V69.3948H140.504C140.427 69.534 140.316 69.6889 140.172 69.8593C140.029 70.0298 139.833 70.1775 139.583 70.3025C139.333 70.4275 139.008 70.49 138.608 70.49C138.091 70.49 137.625 70.3693 137.21 70.1278C136.798 69.8835 136.471 69.5241 136.23 69.0497C135.991 68.5724 135.872 67.9857 135.872 67.2897C135.872 66.5937 135.99 65.9971 136.225 65.4999C136.464 65.0028 136.791 64.6221 137.206 64.3579C137.62 64.0909 138.091 63.9573 138.616 63.9573C139.022 63.9573 139.35 64.0255 139.6 64.1619C139.85 64.2954 140.045 64.4516 140.184 64.6306C140.326 64.8096 140.436 64.9673 140.512 65.1036H140.606V64.0426H141.855V70.7329C141.855 71.2954 141.724 71.757 141.463 72.1178C141.201 72.4786 140.848 72.7457 140.402 72.919C139.958 73.0923 139.458 73.1789 138.902 73.1789ZM138.889 69.4332C139.255 69.4332 139.565 69.348 139.818 69.1775C140.074 69.0042 140.267 68.757 140.397 68.436C140.531 68.1122 140.598 67.7244 140.598 67.2727C140.598 66.8323 140.532 66.4445 140.402 66.1093C140.271 65.7741 140.079 65.5127 139.826 65.3252C139.574 65.1349 139.261 65.0397 138.889 65.0397C138.505 65.0397 138.186 65.1391 137.93 65.338C137.674 65.534 137.481 65.8011 137.35 66.1391C137.223 66.4772 137.159 66.8551 137.159 67.2727C137.159 67.7016 137.224 68.0781 137.355 68.4019C137.485 68.7258 137.679 68.9786 137.934 69.1605C138.193 69.3423 138.511 69.4332 138.889 69.4332ZM143.084 70.588V64.0426H144.315V65.0823H144.383C144.503 64.7301 144.713 64.4531 145.014 64.2514C145.318 64.0468 145.662 63.9445 146.045 63.9445C146.125 63.9445 146.219 63.9474 146.326 63.9531C146.437 63.9588 146.524 63.9659 146.586 63.9744V65.1931C146.535 65.1789 146.444 65.1633 146.314 65.1463C146.183 65.1264 146.052 65.1164 145.922 65.1164C145.621 65.1164 145.352 65.1803 145.116 65.3082C144.883 65.4332 144.699 65.6079 144.562 65.8323C144.426 66.0539 144.358 66.3068 144.358 66.5909V70.588H143.084ZM149.055 70.7329C148.64 70.7329 148.265 70.6562 147.93 70.5028C147.595 70.3465 147.329 70.1207 147.133 69.8252C146.94 69.5298 146.844 69.1676 146.844 68.7386C146.844 68.3693 146.915 68.0653 147.057 67.8266C147.199 67.588 147.39 67.3991 147.632 67.2599C147.873 67.1207 148.143 67.0156 148.442 66.9445C148.74 66.8735 149.044 66.8195 149.354 66.7826C149.746 66.7372 150.064 66.7002 150.308 66.6718C150.552 66.6406 150.73 66.5909 150.841 66.5227C150.952 66.4545 151.007 66.3437 151.007 66.1903V66.1605C151.007 65.7883 150.902 65.4999 150.692 65.2954C150.484 65.0909 150.175 64.9886 149.763 64.9886C149.334 64.9886 148.996 65.0838 148.748 65.2741C148.504 65.4616 148.335 65.6704 148.241 65.9005L147.044 65.6278C147.186 65.2301 147.393 64.909 147.666 64.6647C147.942 64.4176 148.258 64.2386 148.616 64.1278C148.974 64.0141 149.351 63.9573 149.746 63.9573C150.007 63.9573 150.284 63.9886 150.577 64.0511C150.872 64.1107 151.148 64.2215 151.403 64.3835C151.662 64.5454 151.873 64.7769 152.038 65.0781C152.203 65.3764 152.285 65.7641 152.285 66.2414V70.588H151.041V69.6931H150.99C150.908 69.8579 150.784 70.0198 150.619 70.1789C150.454 70.338 150.243 70.4701 149.984 70.5752C149.726 70.6803 149.416 70.7329 149.055 70.7329ZM149.332 69.7102C149.685 69.7102 149.986 69.6406 150.236 69.5014C150.489 69.3622 150.68 69.1803 150.811 68.9559C150.944 68.7286 151.011 68.4857 151.011 68.2272V67.3835C150.966 67.4289 150.878 67.4715 150.747 67.5113C150.619 67.5482 150.473 67.5809 150.308 67.6093C150.143 67.6349 149.983 67.659 149.827 67.6818C149.67 67.7016 149.54 67.7187 149.435 67.7329C149.187 67.7641 148.962 67.8167 148.757 67.8906C148.555 67.9644 148.393 68.071 148.271 68.2102C148.152 68.3465 148.092 68.5284 148.092 68.7556C148.092 69.071 148.209 69.3096 148.442 69.4715C148.675 69.6306 148.971 69.7102 149.332 69.7102ZM156.558 64.0426V65.0653H152.983V64.0426H156.558ZM153.941 62.4744H155.216V68.6661C155.216 68.9133 155.252 69.0994 155.326 69.2244C155.4 69.3465 155.495 69.4303 155.612 69.4758C155.731 69.5184 155.86 69.5397 156 69.5397C156.102 69.5397 156.191 69.5326 156.268 69.5184C156.345 69.5042 156.404 69.4928 156.447 69.4843L156.677 70.5369C156.603 70.5653 156.498 70.5937 156.362 70.6221C156.225 70.6534 156.055 70.6704 155.85 70.6732C155.515 70.6789 155.203 70.6193 154.913 70.4943C154.623 70.3693 154.389 70.1761 154.21 69.9147C154.031 69.6534 153.941 69.3252 153.941 68.9303V62.4744ZM157.487 70.588V64.0426H158.761V70.588H157.487ZM158.131 63.0326C157.909 63.0326 157.719 62.9588 157.56 62.811C157.404 62.6605 157.325 62.4815 157.325 62.2741C157.325 62.0639 157.404 61.8849 157.56 61.7372C157.719 61.5866 157.909 61.5113 158.131 61.5113C158.352 61.5113 158.541 61.5866 158.698 61.7372C158.857 61.8849 158.936 62.0639 158.936 62.2741C158.936 62.4815 158.857 62.6605 158.698 62.811C158.541 62.9588 158.352 63.0326 158.131 63.0326ZM162.753 70.7201C162.139 70.7201 161.604 70.5795 161.146 70.2982C160.689 70.017 160.334 69.6235 160.081 69.1178C159.828 68.6122 159.702 68.0213 159.702 67.3451C159.702 66.6661 159.828 66.0724 160.081 65.5639C160.334 65.0553 160.689 64.6605 161.146 64.3792C161.604 64.098 162.139 63.9573 162.753 63.9573C163.366 63.9573 163.902 64.098 164.359 64.3792C164.817 64.6605 165.172 65.0553 165.425 65.5639C165.677 66.0724 165.804 66.6661 165.804 67.3451C165.804 68.0213 165.677 68.6122 165.425 69.1178C165.172 69.6235 164.817 70.017 164.359 70.2982C163.902 70.5795 163.366 70.7201 162.753 70.7201ZM162.757 69.6505C163.155 69.6505 163.484 69.5454 163.746 69.3352C164.007 69.1249 164.2 68.8451 164.325 68.4957C164.453 68.1463 164.517 67.7613 164.517 67.3409C164.517 66.9232 164.453 66.5397 164.325 66.1903C164.2 65.838 164.007 65.5553 163.746 65.3423C163.484 65.1292 163.155 65.0227 162.757 65.0227C162.356 65.0227 162.024 65.1292 161.76 65.3423C161.498 65.5553 161.304 65.838 161.176 66.1903C161.051 66.5397 160.989 66.9232 160.989 67.3409C160.989 67.7613 161.051 68.1463 161.176 68.4957C161.304 68.8451 161.498 69.1249 161.76 69.3352C162.024 69.5454 162.356 69.6505 162.757 69.6505ZM168.02 66.7016V70.588H166.746V64.0426H167.969V65.1079H168.05C168.201 64.7613 168.436 64.4829 168.757 64.2727C169.081 64.0624 169.489 63.9573 169.98 63.9573C170.426 63.9573 170.817 64.0511 171.152 64.2386C171.488 64.4232 171.747 64.6988 171.932 65.0653C172.117 65.4318 172.209 65.8849 172.209 66.4247V70.588H170.935V66.5781C170.935 66.1036 170.811 65.7329 170.564 65.4659C170.317 65.196 169.978 65.061 169.546 65.061C169.25 65.061 168.988 65.1249 168.757 65.2528C168.53 65.3806 168.35 65.5681 168.216 65.8153C168.086 66.0596 168.02 66.3551 168.02 66.7016Z" fill="white"/>
</svg>
