<svg width="731" height="164" viewBox="0 0 731 164" fill="none" xmlns="http://www.w3.org/2000/svg">
<path d="M84.375 87.7031C82.8906 87.7031 82.1484 86.7656 82.1484 84.8906C82.1484 83.7188 82.5781 82.9766 83.4375 82.6641C84.2969 82.2734 85.6641 82 87.5391 81.8438C88.7891 81.7656 89.7656 81.6484 90.4688 81.4922C91.25 81.3359 91.9922 81.0625 92.6953 80.6719C93.4766 80.2812 94.0234 79.6953 94.3359 78.9141C94.7266 78.0547 94.9219 77 94.9219 75.75V49.7344C94.9219 37.625 94.8047 31.2188 94.5703 30.5156C94.4922 30.0469 94.2188 29.8125 93.75 29.8125C93.2031 29.8125 92.6562 30.2812 92.1094 31.2188C89.0625 36.1406 85.0391 43.1328 80.0391 52.1953C75.1172 61.1797 70.8203 69.1094 67.1484 75.9844C63.4766 82.8594 61.3672 86.6484 60.8203 87.3516C60.0391 88.2891 59.1406 88.7578 58.125 88.7578C56.7188 88.7578 55.3125 87.3125 53.9062 84.4219C50 76.375 45.5078 67.8984 40.4297 58.9922C35.4297 50.0859 31.3281 43.0547 28.125 37.8984C24.9219 32.7422 23.125 30.0469 22.7344 29.8125C22.6562 29.7344 22.5391 29.6953 22.3828 29.6953C22.0703 29.6953 21.9141 29.8906 21.9141 30.2812C21.4453 38.7188 21.2109 47.0391 21.2109 55.2422C21.2109 62.0391 21.3672 69.1875 21.6797 76.6875C21.8359 78.9531 22.1484 80.2812 22.6172 80.6719C23.3984 81.2188 24.6875 81.4922 26.4844 81.4922C28.3594 81.4922 29.9219 81.7266 31.1719 82.1953C32.5 82.5859 33.1641 83.5234 33.1641 85.0078C33.1641 86.8047 32.4609 87.7031 31.0547 87.7031C30.9766 87.7031 30.6641 87.6641 30.1172 87.5859C29.5703 87.5859 28.8281 87.5469 27.8906 87.4688C27.0312 87.3906 26.0547 87.3125 24.9609 87.2344C23.8672 87.1562 22.5391 87.0781 20.9766 87C19.4922 87 18.0469 87 16.6406 87C15.2344 87 13.75 87 12.1875 87C10.7031 87.0781 9.41406 87.1562 8.32031 87.2344C7.22656 87.3125 6.21094 87.3906 5.27344 87.4688C4.41406 87.5469 3.71094 87.5859 3.16406 87.5859C2.61719 87.6641 2.30469 87.7031 2.22656 87.7031C0.742188 87.7031 0 86.8438 0 85.125C0 84.5781 0.0390625 84.1484 0.117188 83.8359C0.273438 83.4453 0.46875 83.1328 0.703125 82.8984C1.01562 82.5859 1.28906 82.3906 1.52344 82.3125C1.83594 82.1562 2.30469 82.0391 2.92969 81.9609C3.55469 81.8047 4.0625 81.6875 4.45312 81.6094C4.92188 81.5312 5.625 81.4531 6.5625 81.375C7.5 81.2969 8.28125 81.2188 8.90625 81.1406C9.53125 81.0625 10.0781 80.9453 10.5469 80.7891C11.0156 80.5547 11.3672 80.3594 11.6016 80.2031C11.8359 79.9688 12.0312 79.6172 12.1875 79.1484C12.3438 78.6016 12.4219 78.2109 12.4219 77.9766C12.5 77.6641 12.5781 77.1562 12.6562 76.4531C12.7344 75.6719 12.7734 75.125 12.7734 74.8125C14.8047 50.2031 15.8203 32.3125 15.8203 21.1406C15.8203 20.2031 15.3516 19.1875 14.4141 18.0938C14.3359 18.0156 13.8281 17.4297 12.8906 16.3359C11.9531 15.1641 11.1719 14.3047 10.5469 13.7578C9.92188 13.1328 8.90625 12.5078 7.5 11.8828C6.09375 11.1797 4.57031 10.8281 2.92969 10.8281C1.36719 10.5938 0.585938 9.85156 0.585938 8.60156C0.585938 7.82031 0.703125 7.23438 0.9375 6.84375C1.25 6.375 1.52344 6.14062 1.75781 6.14062C1.99219 6.0625 2.30469 6.02344 2.69531 6.02344H19.9219C21.3281 6.02344 22.3438 6.53125 22.9688 7.54688L45.7031 45.5156L59.6484 67.7812C60.1172 68.7188 60.8203 69.1875 61.7578 69.1875C62.4609 69.1875 63.0078 68.7578 63.3984 67.8984L95.9766 7.07812C96.3672 6.375 97.0703 6.02344 98.0859 6.02344H115.547C115.938 6.02344 116.211 6.0625 116.367 6.14062C116.602 6.14062 116.797 6.375 116.953 6.84375C117.188 7.23438 117.305 7.82031 117.305 8.60156C117.305 9.22656 117.188 9.73438 116.953 10.125C116.797 10.5156 116.406 10.8281 115.781 11.0625C115.234 11.2969 114.648 11.4922 114.023 11.6484C113.398 11.7266 112.5 11.9219 111.328 12.2344C110.156 12.4688 109.023 12.7422 107.93 13.0547C105.977 13.5234 105 14.6953 105 16.5703C105.156 29.8516 105.273 41.0625 105.352 50.2031C105.508 59.3438 105.586 65.3984 105.586 68.3672C105.664 71.2578 105.703 73.4453 105.703 74.9297V75.75C105.703 77.0781 105.742 78.0547 105.82 78.6797C105.898 79.2266 106.25 79.8125 106.875 80.4375C107.5 81.0625 108.477 81.4531 109.805 81.6094C110.352 81.6875 111.016 81.7656 111.797 81.8438C112.656 81.8438 113.281 81.8828 113.672 81.9609C114.062 81.9609 114.531 82 115.078 82.0781C115.625 82.1562 115.977 82.2734 116.133 82.4297C116.367 82.5859 116.602 82.7812 116.836 83.0156C117.148 83.25 117.344 83.5625 117.422 83.9531C117.5 84.2656 117.539 84.6562 117.539 85.125C117.539 85.9062 117.305 86.5312 116.836 87C116.367 87.4688 115.781 87.7031 115.078 87.7031L112.852 87.4688C111.367 87.3906 109.375 87.2734 106.875 87.1172C104.453 87.0391 102.031 87 99.6094 87C98.0469 87 96.4844 87 94.9219 87C93.3594 87.0781 91.9922 87.1562 90.8203 87.2344C89.6484 87.3125 88.5547 87.3906 87.5391 87.4688C86.6016 87.5469 85.8594 87.5859 85.3125 87.5859C84.7656 87.6641 84.4531 87.7031 84.375 87.7031Z" fill="white"/>
<path d="M123.75 5.4375L125.742 5.55469C127.07 5.63281 128.828 5.75 131.016 5.90625C133.203 5.98438 135.391 6.02344 137.578 6.02344C139.844 6.02344 141.914 5.98438 143.789 5.90625C145.664 5.82812 147.109 5.75 148.125 5.67188C149.219 5.59375 149.883 5.55469 150.117 5.55469C151.445 5.55469 152.109 6.29688 152.109 7.78125C152.109 8.17188 152.07 8.52344 151.992 8.83594C151.992 9.07031 151.953 9.30469 151.875 9.53906C151.875 9.77344 151.797 9.96875 151.641 10.125C151.484 10.2812 151.328 10.4375 151.172 10.5938C151.094 10.6719 150.898 10.75 150.586 10.8281C150.273 10.9062 150 10.9844 149.766 11.0625C149.609 11.1406 149.297 11.2188 148.828 11.2969C148.359 11.2969 147.969 11.3359 147.656 11.4141C147.344 11.4141 146.836 11.4531 146.133 11.5312C145.508 11.5312 144.961 11.5703 144.492 11.6484C143.242 11.7266 142.617 12.3906 142.617 13.6406V78.4453C142.617 80.3203 143.32 81.3359 144.727 81.4922C145.508 81.5703 146.367 81.6484 147.305 81.7266C148.242 81.7266 148.984 81.7266 149.531 81.7266C150.078 81.7266 150.625 81.7656 151.172 81.8438C151.797 81.9219 152.266 82 152.578 82.0781C152.891 82.1562 153.164 82.2734 153.398 82.4297C153.711 82.5859 153.906 82.8203 153.984 83.1328C154.141 83.4453 154.219 83.7969 154.219 84.1875C154.219 86.5312 153.438 87.7031 151.875 87.7031C151.797 87.7031 151.484 87.6641 150.938 87.5859C150.391 87.5859 149.609 87.5469 148.594 87.4688C147.656 87.3906 146.602 87.3125 145.43 87.2344C144.258 87.1562 142.891 87.0781 141.328 87C139.766 87 138.203 87 136.641 87C135.078 87 133.516 87 131.953 87C130.391 87.0781 128.984 87.1562 127.734 87.2344C126.562 87.3125 125.508 87.3906 124.57 87.4688C123.633 87.5469 122.852 87.5859 122.227 87.5859C121.68 87.6641 121.367 87.7031 121.289 87.7031C120.039 87.7031 119.336 86.8047 119.18 85.0078C119.102 84.7734 119.062 84.3828 119.062 83.8359C119.062 82.8984 119.375 82.3125 120 82.0781C120.703 81.8438 122.305 81.6484 124.805 81.4922C126.523 81.4141 127.969 81.3359 129.141 81.2578C130.859 81.1797 131.719 80.0469 131.719 77.8594V15.5156C131.719 15.2812 131.719 14.9688 131.719 14.5781C131.797 14.1094 131.836 13.8359 131.836 13.7578C131.836 12.7422 131.523 12.1172 130.898 11.8828C130.273 11.6484 128.867 11.4922 126.68 11.4141C125.508 11.4141 124.57 11.375 123.867 11.2969C122.07 11.1406 121.172 10.2812 121.172 8.71875C121.172 6.53125 122.031 5.4375 123.75 5.4375Z" fill="white"/>
<path d="M200.156 89.9297C188.828 89.9297 178.984 85.5156 170.625 76.6875C162.266 67.7812 158.086 57.0781 158.086 44.5781C158.086 32.5469 161.992 22.5078 169.805 14.4609C177.695 6.33594 187.227 2.27344 198.398 2.27344C201.68 2.27344 204.883 2.66406 208.008 3.44531C211.133 4.22656 213.594 5.08594 215.391 6.02344C217.266 6.96094 218.906 7.89844 220.312 8.83594C221.797 9.69531 222.617 10.125 222.773 10.125H223.242C224.102 10.125 225.117 9.38281 226.289 7.89844C227.539 6.33594 228.281 5.51562 228.516 5.4375C228.906 5.20312 229.414 5.08594 230.039 5.08594C231.133 5.08594 231.68 5.63281 231.68 6.72656V10.0078C231.68 12.2734 231.719 14.5781 231.797 16.9219C231.875 19.2656 231.992 21.2969 232.148 23.0156C232.305 24.7344 232.422 26.2969 232.5 27.7031C232.656 29.0312 232.773 30.0859 232.852 30.8672C232.93 31.6484 232.969 32.0781 232.969 32.1562C232.969 33.4062 231.836 34.0312 229.57 34.0312C228.477 34.0312 227.812 33.6797 227.578 32.9766C227.344 32.1953 226.914 30.75 226.289 28.6406C225.742 26.4531 224.648 24.2266 223.008 21.9609C219.961 17.8203 216.133 14.4609 211.523 11.8828C206.914 9.30469 202.07 8.01562 196.992 8.01562C193.789 8.01562 190.664 8.64062 187.617 9.89062C184.648 11.1406 181.797 13.0547 179.062 15.6328C176.406 18.2109 174.258 21.8828 172.617 26.6484C170.977 31.3359 170.156 36.7656 170.156 42.9375C170.156 50.4375 171.172 56.9609 173.203 62.5078C175.234 68.0547 177.891 72.2734 181.172 75.1641C184.531 78.0547 187.891 80.1641 191.25 81.4922C194.609 82.8203 198.008 83.4844 201.445 83.4844C205.977 83.4844 210.234 82.5469 214.219 80.6719C218.203 78.7969 220.547 77.1562 221.25 75.75C221.484 75.2812 221.602 74.5781 221.602 73.6406V60.1641C221.602 58.6016 221.094 57.5859 220.078 57.1172C219.062 56.6484 216.953 56.2969 213.75 56.0625C212.344 55.9844 211.211 55.9062 210.352 55.8281C208.086 55.6719 206.953 54.7344 206.953 53.0156C206.953 51.2188 207.852 50.3203 209.648 50.3203C209.883 50.3203 210.508 50.3594 211.523 50.4375C212.617 50.5156 214.062 50.5938 215.859 50.6719C217.734 50.75 219.766 50.7891 221.953 50.7891H222.188C224.453 50.7891 226.562 50.75 228.516 50.6719C230.469 50.5938 231.992 50.5156 233.086 50.4375C234.18 50.3594 234.844 50.3203 235.078 50.3203C236.094 50.3203 236.836 50.5938 237.305 51.1406C237.852 51.6094 238.125 52.1562 238.125 52.7812C238.125 54.1094 237.109 55.125 235.078 55.8281C233.125 56.5312 232.031 57.3516 231.797 58.2891C231.719 58.5234 231.68 58.9531 231.68 59.5781V79.8516C231.68 81.4141 231.133 82.1953 230.039 82.1953C229.57 82.1953 228.906 81.8047 228.047 81.0234C227.266 80.1641 226.719 79.7344 226.406 79.7344C225.938 79.7344 225.391 80.0469 224.766 80.6719C217.734 86.8438 209.531 89.9297 200.156 89.9297Z" fill="white"/>
<path d="M291.68 27.4688C291.68 22.5469 289.648 18.2891 285.586 14.6953C281.523 11.0234 276.523 9.1875 270.586 9.1875C266.914 9.1875 264.531 9.61719 263.438 10.4766C262.969 10.7891 262.734 11.4141 262.734 12.3516C262.734 12.4297 262.734 12.4688 262.734 12.4688L262.852 12.7031V40.9453C262.852 41.9609 263.242 42.5859 264.023 42.8203C264.805 42.9766 267.031 43.0547 270.703 43.0547C275.234 43.0547 278.945 42.5078 281.836 41.4141C284.57 40.3203 286.875 38.5625 288.75 36.1406C290.703 33.7188 291.68 30.8281 291.68 27.4688ZM273.047 4.61719C278.125 4.61719 282.578 5.32031 286.406 6.72656C290.234 8.05469 293.125 9.8125 295.078 12C297.109 14.1094 298.594 16.2969 299.531 18.5625C300.469 20.8281 300.938 23.1328 300.938 25.4766C300.938 30.6328 299.336 35.0078 296.133 38.6016C292.93 42.1953 290 44.4609 287.344 45.3984C286.953 45.6328 286.758 45.8281 286.758 45.9844C286.758 46.1406 286.836 46.2969 286.992 46.4531C291.289 51.4531 294.922 56.1406 297.891 60.5156C300.938 64.8125 303.281 68.3672 304.922 71.1797C306.641 73.9922 308.047 76.0234 309.141 77.2734C311.406 79.8516 313.555 81.1406 315.586 81.1406C316.758 81.1406 317.812 80.7109 318.75 79.8516C319.688 78.9141 320.352 78.4453 320.742 78.4453C321.602 78.4453 322.031 78.9141 322.031 79.8516C322.031 81.1797 321.016 82.9766 318.984 85.2422C317.031 87.4297 314.531 88.5234 311.484 88.5234C307.422 88.5234 303.203 85.6328 298.828 79.8516L286.875 62.7422C280.078 53.2109 276.367 48.25 275.742 47.8594C275.352 47.5469 274.688 47.3906 273.75 47.3906H264.961C263.867 47.3906 263.32 47.9766 263.32 49.1484V77.2734C263.32 79.6172 264.336 80.9062 266.367 81.1406C267.07 81.2188 267.891 81.2969 268.828 81.375C269.766 81.4531 270.469 81.5312 270.938 81.6094C271.484 81.6094 272.07 81.6484 272.695 81.7266C273.398 81.7266 273.906 81.7656 274.219 81.8438C274.609 81.9219 275 82.0391 275.391 82.1953C275.859 82.2734 276.172 82.3906 276.328 82.5469C276.562 82.7031 276.758 82.9375 276.914 83.25C277.07 83.4844 277.188 83.7578 277.266 84.0703C277.344 84.3828 277.383 84.7344 277.383 85.125C277.383 86.8438 276.562 87.7031 274.922 87.7031C274.844 87.7031 274.492 87.6641 273.867 87.5859C273.32 87.5859 272.578 87.5469 271.641 87.4688C270.703 87.3906 269.609 87.3125 268.359 87.2344C267.188 87.1562 265.781 87.0781 264.141 87C262.578 87 261.016 87 259.453 87C257.891 87 256.289 87 254.648 87C253.086 87.0781 251.719 87.1562 250.547 87.2344C249.375 87.3125 248.281 87.3906 247.266 87.4688C246.328 87.5469 245.586 87.5859 245.039 87.5859C244.492 87.6641 244.18 87.7031 244.102 87.7031C242.695 87.7031 241.992 86.6094 241.992 84.4219C241.992 84.1094 241.992 83.8359 241.992 83.6016C242.07 83.3672 242.148 83.1719 242.227 83.0156C242.383 82.8594 242.5 82.7422 242.578 82.6641C242.734 82.5078 242.93 82.3906 243.164 82.3125C243.477 82.2344 243.75 82.1562 243.984 82.0781C244.219 82 244.57 81.9609 245.039 81.9609C245.508 81.8828 245.898 81.8438 246.211 81.8438C246.523 81.8438 246.992 81.8438 247.617 81.8438C248.32 81.7656 248.906 81.6875 249.375 81.6094C250.703 81.4531 251.562 81.0625 251.953 80.4375C252.422 79.7344 252.656 78.7188 252.656 77.3906V15.3984C252.656 13.6016 252.148 12.5078 251.133 12.1172C250.117 11.6484 247.266 11.0234 242.578 10.2422C241.328 10.0078 240.703 9.34375 240.703 8.25C240.703 6.76562 241.25 6.02344 242.344 6.02344H246.445C250.195 6.02344 254.961 5.78906 260.742 5.32031C266.523 4.85156 270.625 4.61719 273.047 4.61719Z" fill="white"/>
<path d="M338.906 87C337.578 87 336.25 87 334.922 87C333.594 87.0781 332.422 87.1562 331.406 87.2344C330.391 87.3125 329.492 87.3906 328.711 87.4688C327.93 87.5469 327.305 87.5859 326.836 87.5859C326.367 87.6641 326.094 87.7031 326.016 87.7031C324.375 87.7031 323.555 86.8828 323.555 85.2422C323.555 84.8516 323.555 84.5391 323.555 84.3047C323.633 83.9922 323.711 83.7188 323.789 83.4844C323.945 83.25 324.062 83.0547 324.141 82.8984C324.219 82.7422 324.375 82.625 324.609 82.5469C324.922 82.3906 325.117 82.3125 325.195 82.3125C325.273 82.2344 325.508 82.1562 325.898 82.0781C326.367 82 326.641 81.9609 326.719 81.9609C326.875 81.8828 327.227 81.8047 327.773 81.7266C328.398 81.6484 328.789 81.6094 328.945 81.6094C330.82 81.375 332.227 80.9062 333.164 80.2031C334.102 79.4219 335 77.9766 335.859 75.8672C341.484 63.2891 347.578 50.4766 354.141 37.4297C365.703 15.5547 371.68 4.34375 372.07 3.79688C372.227 3.64062 372.461 3.44531 372.773 3.21094C373.633 2.58594 374.609 2.27344 375.703 2.27344C377.812 2.27344 379.492 3.79688 380.742 6.84375L397.969 46.6875C406.719 67.8594 411.172 78.5625 411.328 78.7969C412.188 80.0469 413.32 80.8672 414.727 81.2578C416.211 81.6484 417.461 81.9219 418.477 82.0781C419.57 82.2344 420.195 82.7031 420.352 83.4844C420.508 84.1094 420.586 84.6562 420.586 85.125C420.586 86.8438 419.766 87.7031 418.125 87.7031L416.133 87.4688C414.805 87.3906 413.008 87.2734 410.742 87.1172C408.555 87.0391 406.406 87 404.297 87C401.719 87 399.375 87.0391 397.266 87.1172C395.156 87.2734 393.477 87.3906 392.227 87.4688C391.055 87.625 390.352 87.7031 390.117 87.7031C388.477 87.7031 387.656 87.0391 387.656 85.7109C387.656 85.3203 387.656 84.9688 387.656 84.6562C387.734 84.3438 387.812 84.0703 387.891 83.8359C388.047 83.5234 388.125 83.2891 388.125 83.1328C388.203 82.9766 388.398 82.8203 388.711 82.6641C389.023 82.5078 389.258 82.4297 389.414 82.4297C389.57 82.3516 389.883 82.2734 390.352 82.1953C390.82 82.1172 391.172 82.0781 391.406 82.0781C391.719 82 392.227 81.9219 392.93 81.8438C393.633 81.7656 394.219 81.6875 394.688 81.6094C396.328 81.2969 397.148 80.5156 397.148 79.2656C397.148 78.0938 396.172 74.5391 394.219 68.6016C392.344 62.5859 390.312 57.1172 388.125 52.1953C387.812 51.4141 387.109 51.0234 386.016 51.0234H357.773C356.523 51.0234 355.625 51.4922 355.078 52.4297C352.344 57.5078 349.883 62.7812 347.695 68.25C345.586 73.6406 344.531 77 344.531 78.3281C344.531 79.7344 344.961 80.6719 345.82 81.1406C346.758 81.5312 348.359 81.8438 350.625 82.0781C351.328 82.0781 351.836 82.1172 352.148 82.1953C353.867 82.3516 354.727 83.3281 354.727 85.125C354.727 86.8438 353.867 87.7031 352.148 87.7031C351.914 87.7031 351.211 87.625 350.039 87.4688C348.945 87.3906 347.383 87.2734 345.352 87.1172C343.398 87.0391 341.25 87 338.906 87ZM383.555 44.8125C384.258 44.8125 384.609 44.5 384.609 43.875C384.609 43.25 383.047 39.3438 379.922 32.1562C376.875 24.9688 374.922 20.6328 374.062 19.1484C373.75 18.6016 373.32 18.3281 372.773 18.3281C372.07 18.3281 371.328 19.0312 370.547 20.4375C362.344 35.9062 358.242 43.8359 358.242 44.2266C358.242 44.6172 358.477 44.8125 358.945 44.8125H383.555Z" fill="white"/>
<path d="M480.234 87.7031L477.891 87.4688C476.406 87.3906 474.336 87.2734 471.68 87.1172C469.102 87.0391 466.523 87 463.945 87C462.305 87 460.625 87 458.906 87C457.266 87.0781 455.781 87.1562 454.453 87.2344C453.203 87.3125 452.07 87.3906 451.055 87.4688C450.039 87.5469 449.219 87.5859 448.594 87.5859C447.969 87.6641 447.617 87.7031 447.539 87.7031C445.977 87.7031 445.195 86.6875 445.195 84.6562C445.195 83.4062 445.508 82.625 446.133 82.3125C446.836 82 448.398 81.7656 450.82 81.6094C452.148 81.5312 453.203 81.4531 453.984 81.375C455.625 81.2188 456.68 80.7891 457.148 80.0859C457.695 79.3828 457.969 78.3281 457.969 76.9219V16.1016C457.969 15.3203 457.93 14.7344 457.852 14.3438C457.773 13.9531 457.461 13.5234 456.914 13.0547C456.445 12.5859 455.742 12.3516 454.805 12.3516H436.875C435.391 12.3516 434.375 12.5469 433.828 12.9375C433.281 13.25 432.773 13.875 432.305 14.8125C429.023 21.2969 427.266 24.6953 427.031 25.0078C426.484 25.6328 425.82 25.9453 425.039 25.9453C424.258 25.9453 423.594 25.6719 423.047 25.125C422.578 24.5 422.344 23.7578 422.344 22.8984V22.7812C422.344 22.4688 423.516 16.9609 425.859 6.25781C426.094 5.00781 426.914 4.38281 428.32 4.38281H498.281C499.609 4.38281 500.43 5.32031 500.742 7.19531C502.695 17.3516 503.672 22.4688 503.672 22.5469C503.672 23.25 503.438 23.875 502.969 24.4219C502.5 24.9688 501.953 25.2422 501.328 25.2422C500.391 25.2422 499.492 24.4609 498.633 22.8984C498.164 22.1172 497.656 21.2578 497.109 20.3203C496.562 19.3047 496.133 18.5625 495.82 18.0938C495.586 17.5469 495.273 16.9609 494.883 16.3359C494.57 15.6328 494.297 15.1641 494.062 14.9297C493.828 14.6172 493.594 14.3047 493.359 13.9922C493.125 13.6016 492.891 13.3672 492.656 13.2891C492.5 13.1328 492.305 12.9766 492.07 12.8203C491.836 12.6641 491.562 12.5859 491.25 12.5859C491.016 12.5078 490.742 12.4688 490.43 12.4688C490.195 12.3906 489.883 12.3516 489.492 12.3516H471.797C471.016 12.3516 470.391 12.5469 469.922 12.9375C469.531 13.3281 469.297 13.7188 469.219 14.1094C469.219 14.4219 469.219 14.9297 469.219 15.6328V78.4453C469.219 79.6953 469.57 80.4766 470.273 80.7891C471.055 81.1016 473.047 81.375 476.25 81.6094C477.891 81.7656 479.18 81.8828 480.117 81.9609C480.977 82.0391 481.523 82.3125 481.758 82.7812C482.07 83.25 482.227 84.1094 482.227 85.3594C482.227 86.9219 481.562 87.7031 480.234 87.7031Z" fill="white"/>
<path d="M510.117 5.4375L512.109 5.55469C513.438 5.63281 515.195 5.75 517.383 5.90625C519.57 5.98438 521.758 6.02344 523.945 6.02344C526.211 6.02344 528.281 5.98438 530.156 5.90625C532.031 5.82812 533.477 5.75 534.492 5.67188C535.586 5.59375 536.25 5.55469 536.484 5.55469C537.812 5.55469 538.477 6.29688 538.477 7.78125C538.477 8.17188 538.438 8.52344 538.359 8.83594C538.359 9.07031 538.32 9.30469 538.242 9.53906C538.242 9.77344 538.164 9.96875 538.008 10.125C537.852 10.2812 537.695 10.4375 537.539 10.5938C537.461 10.6719 537.266 10.75 536.953 10.8281C536.641 10.9062 536.367 10.9844 536.133 11.0625C535.977 11.1406 535.664 11.2188 535.195 11.2969C534.727 11.2969 534.336 11.3359 534.023 11.4141C533.711 11.4141 533.203 11.4531 532.5 11.5312C531.875 11.5312 531.328 11.5703 530.859 11.6484C529.609 11.7266 528.984 12.3906 528.984 13.6406V78.4453C528.984 80.3203 529.688 81.3359 531.094 81.4922C531.875 81.5703 532.734 81.6484 533.672 81.7266C534.609 81.7266 535.352 81.7266 535.898 81.7266C536.445 81.7266 536.992 81.7656 537.539 81.8438C538.164 81.9219 538.633 82 538.945 82.0781C539.258 82.1562 539.531 82.2734 539.766 82.4297C540.078 82.5859 540.273 82.8203 540.352 83.1328C540.508 83.4453 540.586 83.7969 540.586 84.1875C540.586 86.5312 539.805 87.7031 538.242 87.7031C538.164 87.7031 537.852 87.6641 537.305 87.5859C536.758 87.5859 535.977 87.5469 534.961 87.4688C534.023 87.3906 532.969 87.3125 531.797 87.2344C530.625 87.1562 529.258 87.0781 527.695 87C526.133 87 524.57 87 523.008 87C521.445 87 519.883 87 518.32 87C516.758 87.0781 515.352 87.1562 514.102 87.2344C512.93 87.3125 511.875 87.3906 510.938 87.4688C510 87.5469 509.219 87.5859 508.594 87.5859C508.047 87.6641 507.734 87.7031 507.656 87.7031C506.406 87.7031 505.703 86.8047 505.547 85.0078C505.469 84.7734 505.43 84.3828 505.43 83.8359C505.43 82.8984 505.742 82.3125 506.367 82.0781C507.07 81.8438 508.672 81.6484 511.172 81.4922C512.891 81.4141 514.336 81.3359 515.508 81.2578C517.227 81.1797 518.086 80.0469 518.086 77.8594V15.5156C518.086 15.2812 518.086 14.9688 518.086 14.5781C518.164 14.1094 518.203 13.8359 518.203 13.7578C518.203 12.7422 517.891 12.1172 517.266 11.8828C516.641 11.6484 515.234 11.4922 513.047 11.4141C511.875 11.4141 510.938 11.375 510.234 11.2969C508.438 11.1406 507.539 10.2812 507.539 8.71875C507.539 6.53125 508.398 5.4375 510.117 5.4375Z" fill="white"/>
<path d="M633.75 46.5703C633.75 58.9922 629.531 69.3438 621.094 77.625C612.734 85.8281 602.617 89.9297 590.742 89.9297C584.883 89.9297 579.141 88.7969 573.516 86.5312C567.891 84.2656 562.93 81.0625 558.633 76.9219C549.492 68.0938 544.844 57.3516 544.688 44.6953C544.688 32.5859 549.023 22.2344 557.695 13.6406C566.445 4.96875 576.875 0.632812 588.984 0.632812C601.641 0.632812 612.266 5.16406 620.859 14.2266C629.453 23.2891 633.75 34.0703 633.75 46.5703ZM556.172 40.9453C556.172 46.2578 556.875 51.375 558.281 56.2969C559.766 61.2188 561.875 65.6719 564.609 69.6562C567.344 73.6406 570.938 76.8438 575.391 79.2656C579.844 81.6875 584.805 82.8984 590.273 82.8984C593.945 82.8984 597.539 82.2734 601.055 81.0234C604.57 79.7734 607.93 77.8984 611.133 75.3984C614.336 72.8203 616.914 69.2266 618.867 64.6172C620.898 60.0078 621.914 54.6953 621.914 48.6797C621.914 42.3516 620.82 36.1797 618.633 30.1641C616.523 24.0703 613.203 19.0312 608.672 15.0469C602.578 9.65625 595.391 6.96094 587.109 6.96094C583.281 6.96094 579.57 7.66406 575.977 9.07031C572.383 10.3984 569.062 12.3906 566.016 15.0469C563.047 17.625 560.664 21.1797 558.867 25.7109C557.07 30.1641 556.172 35.2422 556.172 40.9453Z" fill="white"/>
<path d="M653.789 21.9609V21.4922C653.789 20.3984 652.461 18.6406 649.805 16.2188C646.68 13.0938 643.125 11.375 639.141 11.0625C637.656 11.0625 636.914 10.1641 636.914 8.36719C636.914 6.33594 637.812 5.32031 639.609 5.32031H654.375C656.328 5.32031 657.93 6.0625 659.18 7.54688L677.93 29.3438L688.945 41.6484C703.633 57.5859 711.289 65.75 711.914 66.1406C712.07 66.2969 712.227 66.375 712.383 66.375C712.93 66.375 713.203 65.9844 713.203 65.2031C713.203 64.2656 713.242 62.9375 713.32 61.2188C713.398 59.4219 713.438 57.8203 713.438 56.4141C713.516 54.9297 713.555 53.5625 713.555 52.3125C713.555 41.5312 713.164 29.6172 712.383 16.5703C712.305 14.2266 711.758 12.7422 710.742 12.1172C709.727 11.4922 707.695 11.0234 704.648 10.7109C702.852 10.4766 701.953 9.61719 701.953 8.13281C701.953 7.42969 702.227 6.80469 702.773 6.25781C703.32 5.63281 704.219 5.32031 705.469 5.32031C705.625 5.32031 706.172 5.35938 707.109 5.4375C708.125 5.4375 709.492 5.47656 711.211 5.55469C713.008 5.63281 714.922 5.67188 716.953 5.67188C718.984 5.67188 720.82 5.63281 722.461 5.55469C724.18 5.47656 725.508 5.4375 726.445 5.4375C727.461 5.35938 728.047 5.32031 728.203 5.32031C729.922 5.32031 730.781 6.21875 730.781 8.01562C730.781 8.64062 730.703 9.14844 730.547 9.53906C730.391 9.92969 730.078 10.2422 729.609 10.4766C729.141 10.6328 728.75 10.75 728.438 10.8281C728.203 10.8281 727.695 10.8672 726.914 10.9453C726.133 10.9453 725.586 10.9453 725.273 10.9453C723.242 11.1016 721.836 11.7266 721.055 12.8203C720.352 13.9141 719.961 16.0625 719.883 19.2656C719.57 32.8594 719.414 43.25 719.414 50.4375C719.414 56.375 719.453 61.8828 719.531 66.9609C719.609 72.0391 719.688 76.0234 719.766 78.9141C719.844 81.7266 719.883 83.4453 719.883 84.0703C719.883 87.8984 719.062 89.8125 717.422 89.8125C716.484 89.8125 714.531 88.1328 711.562 84.7734L686.719 56.4141C669.141 36.8828 660.273 27.1172 660.117 27.1172L659.648 27.5859C658.555 43.9922 658.008 58.2109 658.008 70.2422V73.6406C658.008 76.8438 658.32 78.9141 658.945 79.8516C659.57 80.7891 661.094 81.3359 663.516 81.4922C666.484 81.4922 668.906 81.7656 670.781 82.3125C671.797 82.7812 672.305 83.8359 672.305 85.4766C672.305 86.9609 671.641 87.7031 670.312 87.7031C670.234 87.7031 669.922 87.6641 669.375 87.5859C668.828 87.5859 668.086 87.5469 667.148 87.4688C666.289 87.3906 665.273 87.3125 664.102 87.2344C662.93 87.1562 661.602 87.0781 660.117 87C658.633 87 657.148 87 655.664 87C653.32 87 650.977 87.0391 648.633 87.1172C646.289 87.2734 644.414 87.3906 643.008 87.4688L640.898 87.7031C639.258 87.7031 638.438 86.9219 638.438 85.3594C638.438 83.6406 639.023 82.5859 640.195 82.1953C640.664 82.0391 641.719 81.9219 643.359 81.8438C645.078 81.6875 646.523 81.375 647.695 80.9062C648.945 80.3594 649.844 79.5 650.391 78.3281C650.703 77.5469 651.445 66.3359 652.617 44.6953C653.086 35.4766 653.477 27.8984 653.789 21.9609Z" fill="white"/>
<path d="M89.3281 150.562C83.2865 150.562 78.0365 148.208 73.5781 143.5C69.1198 138.75 66.8906 133.042 66.8906 126.375C66.8906 119.958 68.974 114.604 73.1406 110.312C77.349 105.979 82.4323 103.812 88.3906 103.812C90.1406 103.812 91.849 104.021 93.5156 104.438C95.1823 104.854 96.4948 105.312 97.4531 105.812C98.4531 106.312 99.3281 106.812 100.078 107.312C100.87 107.771 101.307 108 101.391 108H101.641C102.099 108 102.641 107.604 103.266 106.812C103.932 105.979 104.328 105.542 104.453 105.5C104.661 105.375 104.932 105.312 105.266 105.312C105.849 105.312 106.141 105.604 106.141 106.188V107.938C106.141 109.146 106.161 110.375 106.203 111.625C106.245 112.875 106.307 113.958 106.391 114.875C106.474 115.792 106.536 116.625 106.578 117.375C106.661 118.083 106.724 118.646 106.766 119.062C106.807 119.479 106.828 119.708 106.828 119.75C106.828 120.417 106.224 120.75 105.016 120.75C104.432 120.75 104.078 120.562 103.953 120.188C103.828 119.771 103.599 119 103.266 117.875C102.974 116.708 102.391 115.521 101.516 114.312C99.8906 112.104 97.849 110.312 95.3906 108.938C92.9323 107.562 90.349 106.875 87.6406 106.875C85.9323 106.875 84.2656 107.208 82.6406 107.875C81.0573 108.542 79.5365 109.562 78.0781 110.938C76.6615 112.312 75.5156 114.271 74.6406 116.812C73.7656 119.312 73.3281 122.208 73.3281 125.5C73.3281 129.5 73.8698 132.979 74.9531 135.938C76.0365 138.896 77.4531 141.146 79.2031 142.688C80.9948 144.229 82.7865 145.354 84.5781 146.062C86.3698 146.771 88.1823 147.125 90.0156 147.125C92.4323 147.125 94.7031 146.625 96.8281 145.625C98.9531 144.625 100.203 143.75 100.578 143C100.703 142.75 100.766 142.375 100.766 141.875V134.688C100.766 133.854 100.495 133.312 99.9531 133.062C99.4115 132.812 98.2865 132.625 96.5781 132.5C95.8281 132.458 95.224 132.417 94.7656 132.375C93.5573 132.292 92.9531 131.792 92.9531 130.875C92.9531 129.917 93.4323 129.438 94.3906 129.438C94.5156 129.438 94.849 129.458 95.3906 129.5C95.974 129.542 96.7448 129.583 97.7031 129.625C98.7031 129.667 99.7865 129.688 100.953 129.688H101.078C102.286 129.688 103.411 129.667 104.453 129.625C105.495 129.583 106.307 129.542 106.891 129.5C107.474 129.458 107.828 129.438 107.953 129.438C108.495 129.438 108.891 129.583 109.141 129.875C109.432 130.125 109.578 130.417 109.578 130.75C109.578 131.458 109.036 132 107.953 132.375C106.911 132.75 106.328 133.188 106.203 133.688C106.161 133.812 106.141 134.042 106.141 134.375V145.188C106.141 146.021 105.849 146.438 105.266 146.438C105.016 146.438 104.661 146.229 104.203 145.812C103.786 145.354 103.495 145.125 103.328 145.125C103.078 145.125 102.786 145.292 102.453 145.625C98.7031 148.917 94.3281 150.562 89.3281 150.562Z" fill="white"/>
<path d="M124.641 148.125C124.641 148.958 124.391 149.375 123.891 149.375C123.849 149.375 123.703 149.354 123.453 149.312C123.245 149.312 122.953 149.292 122.578 149.25C122.203 149.208 121.786 149.167 121.328 149.125C120.87 149.083 120.328 149.042 119.703 149C119.078 149 118.474 149 117.891 149C117.307 149 116.724 149 116.141 149C115.557 149.042 115.036 149.062 114.578 149.062C114.12 149.104 113.703 149.146 113.328 149.188C112.995 149.229 112.724 149.25 112.516 149.25C112.307 149.292 112.182 149.312 112.141 149.312C111.516 149.312 111.203 148.938 111.203 148.188V148C111.203 147.458 111.328 147.125 111.578 147C111.87 146.833 112.62 146.688 113.828 146.562C114.578 146.479 115.057 146.25 115.266 145.875C115.516 145.458 115.641 144.875 115.641 144.125V111.562C115.641 111.438 115.62 111.333 115.578 111.25C115.578 111.125 115.557 111.021 115.516 110.938C115.474 110.854 115.432 110.792 115.391 110.75C115.391 110.667 115.328 110.604 115.203 110.562C115.12 110.479 115.036 110.417 114.953 110.375C114.911 110.333 114.786 110.271 114.578 110.188C114.411 110.062 114.286 109.979 114.203 109.938C113.786 109.688 113.328 109.438 112.828 109.188C112.37 108.896 112.036 108.688 111.828 108.562C111.661 108.438 111.474 108.312 111.266 108.188C111.057 108.021 110.911 107.896 110.828 107.812C110.786 107.688 110.766 107.562 110.766 107.438V107.375C110.766 107.167 111.557 106.646 113.141 105.812C115.099 104.854 116.932 103.917 118.641 103C118.891 102.833 119.161 102.75 119.453 102.75C120.036 102.75 120.328 103.146 120.328 103.938V144.438C120.328 144.688 120.328 144.896 120.328 145.062C120.37 145.229 120.411 145.396 120.453 145.562C120.495 145.688 120.536 145.792 120.578 145.875C120.62 145.958 120.703 146.042 120.828 146.125C120.995 146.208 121.099 146.271 121.141 146.312C121.224 146.354 121.37 146.417 121.578 146.5C121.828 146.542 121.995 146.583 122.078 146.625C122.203 146.625 122.432 146.646 122.766 146.688C123.141 146.729 123.411 146.771 123.578 146.812C124.286 146.938 124.641 147.375 124.641 148.125Z" fill="white"/>
<path d="M126.703 135.938C126.703 131.646 128.057 128.146 130.766 125.438C133.516 122.729 136.766 121.375 140.516 121.375C144.349 121.375 147.536 122.75 150.078 125.5C152.62 128.208 153.891 131.688 153.891 135.938C153.891 140.312 152.557 143.792 149.891 146.375C147.266 148.917 144.057 150.188 140.266 150.188C136.266 150.188 132.995 148.812 130.453 146.062C127.953 143.312 126.703 139.938 126.703 135.938ZM134.078 143.875C135.703 146 137.828 147.062 140.453 147.062C143.078 147.062 145.245 146 146.953 143.875C148.661 141.708 149.516 139.146 149.516 136.188C149.516 132.854 148.557 130.062 146.641 127.812C144.766 125.521 142.578 124.375 140.078 124.375C137.995 124.375 136.057 125.292 134.266 127.125C132.516 128.958 131.641 131.792 131.641 135.625C131.641 138.958 132.453 141.708 134.078 143.875Z" fill="white"/>
<path d="M164.266 123.75C164.266 124 164.37 124.125 164.578 124.125C164.661 124.125 165.057 123.917 165.766 123.5C166.474 123.042 167.495 122.604 168.828 122.188C170.203 121.729 171.682 121.5 173.266 121.5C177.016 121.5 180.016 122.812 182.266 125.438C184.557 128.021 185.703 131.417 185.703 135.625C185.703 137.25 185.516 138.833 185.141 140.375C184.766 141.875 183.891 143.479 182.516 145.188C181.182 146.854 179.411 148.104 177.203 148.938C174.953 149.771 172.578 150.188 170.078 150.188C168.953 150.188 167.766 149.979 166.516 149.562C165.266 149.188 164.37 149 163.828 149C163.078 149 162.411 149.229 161.828 149.688C161.245 150.146 160.849 150.375 160.641 150.375C159.974 150.375 159.641 149.729 159.641 148.438C159.641 145.938 159.661 139.708 159.703 129.75C159.786 119.75 159.828 113.5 159.828 111C159.828 110.417 159.557 109.938 159.016 109.562C158.724 109.396 158.432 109.229 158.141 109.062C157.849 108.854 157.599 108.708 157.391 108.625C157.224 108.5 157.036 108.375 156.828 108.25C156.62 108.125 156.453 108.021 156.328 107.938C156.245 107.854 156.141 107.771 156.016 107.688C155.891 107.604 155.786 107.542 155.703 107.5C155.661 107.458 155.62 107.417 155.578 107.375C155.536 107.292 155.495 107.229 155.453 107.188C155.453 107.104 155.453 107.042 155.453 107C155.453 106.667 155.724 106.396 156.266 106.188C160.974 104.312 163.411 103.375 163.578 103.375C164.161 103.458 164.453 103.875 164.453 104.625C164.453 106.042 164.411 109.458 164.328 114.875C164.286 120.292 164.266 123.25 164.266 123.75ZM181.703 136.688C181.703 133.229 180.641 130.396 178.516 128.188C176.391 125.979 173.891 124.875 171.016 124.875C169.516 124.875 167.974 125.229 166.391 125.938C164.849 126.646 164.078 127.333 164.078 128V144.375C164.078 144.417 164.057 144.5 164.016 144.625C164.016 144.708 164.016 144.771 164.016 144.812C164.016 145.604 164.328 146.125 164.953 146.375C166.953 147.167 168.911 147.562 170.828 147.562C174.078 147.562 176.703 146.562 178.703 144.562C180.703 142.521 181.703 139.896 181.703 136.688Z" fill="white"/>
<path d="M188.141 126.938C188.141 125.688 189.141 124.438 191.141 123.188C193.182 121.896 195.453 121.25 197.953 121.25C198.745 121.25 199.557 121.333 200.391 121.5C201.224 121.667 202.161 121.958 203.203 122.375C204.286 122.792 205.182 123.521 205.891 124.562C206.641 125.562 207.099 126.792 207.266 128.25C207.349 129.25 207.391 130.021 207.391 130.562V143.188C207.391 143.938 207.536 144.542 207.828 145C208.12 145.458 208.411 145.75 208.703 145.875C208.995 145.958 209.286 146 209.578 146C210.161 146 210.62 145.833 210.953 145.5C211.286 145.125 211.536 144.771 211.703 144.438C211.911 144.062 212.141 143.875 212.391 143.875C212.766 143.875 212.953 144.146 212.953 144.688C212.953 145.688 212.495 146.792 211.578 148C210.661 149.167 209.474 149.75 208.016 149.75C207.474 149.75 206.953 149.667 206.453 149.5C205.953 149.333 205.536 149.125 205.203 148.875C204.87 148.583 204.557 148.312 204.266 148.062C204.016 147.812 203.807 147.583 203.641 147.375L203.453 147.125C203.411 147.125 203.391 147.125 203.391 147.125C203.391 147.083 203.37 147.062 203.328 147.062C203.245 147.062 203.182 147.104 203.141 147.188C203.099 147.271 202.953 147.438 202.703 147.688C202.453 147.938 202.099 148.208 201.641 148.5C199.766 149.667 197.786 150.25 195.703 150.25C193.536 150.25 191.766 149.562 190.391 148.188C189.057 146.812 188.391 145.125 188.391 143.125V143.062C188.391 140.646 189.286 138.75 191.078 137.375C191.703 136.875 192.516 136.438 193.516 136.062C194.516 135.646 195.495 135.333 196.453 135.125C197.453 134.917 198.391 134.75 199.266 134.625C200.141 134.458 200.87 134.354 201.453 134.312L202.328 134.25C202.661 134.167 202.828 133.875 202.828 133.375V131.062C202.828 128.854 202.328 127.146 201.328 125.938C200.286 124.812 199.036 124.25 197.578 124.25C195.328 124.25 193.495 125.667 192.078 128.5C191.703 129 191.245 129.25 190.703 129.25C190.036 129.25 189.432 129.042 188.891 128.625C188.391 128.208 188.141 127.646 188.141 126.938ZM197.203 146.75C198.161 146.75 199.057 146.542 199.891 146.125C200.766 145.708 201.37 145.333 201.703 145C202.036 144.667 202.307 144.375 202.516 144.125C202.766 143.792 202.891 143.312 202.891 142.688V138.5C202.891 137.708 202.849 137.208 202.766 137C202.724 136.75 202.557 136.625 202.266 136.625C201.224 136.625 199.911 136.792 198.328 137.125C196.786 137.458 195.557 138.062 194.641 138.938C193.641 139.771 193.141 140.938 193.141 142.438C193.141 144.021 193.578 145.188 194.453 145.938C195.036 146.479 195.953 146.75 197.203 146.75Z" fill="white"/>
<path d="M227.891 148.125C227.891 148.958 227.641 149.375 227.141 149.375C227.099 149.375 226.953 149.354 226.703 149.312C226.495 149.312 226.203 149.292 225.828 149.25C225.453 149.208 225.036 149.167 224.578 149.125C224.12 149.083 223.578 149.042 222.953 149C222.328 149 221.724 149 221.141 149C220.557 149 219.974 149 219.391 149C218.807 149.042 218.286 149.062 217.828 149.062C217.37 149.104 216.953 149.146 216.578 149.188C216.245 149.229 215.974 149.25 215.766 149.25C215.557 149.292 215.432 149.312 215.391 149.312C214.766 149.312 214.453 148.938 214.453 148.188V148C214.453 147.458 214.578 147.125 214.828 147C215.12 146.833 215.87 146.688 217.078 146.562C217.828 146.479 218.307 146.25 218.516 145.875C218.766 145.458 218.891 144.875 218.891 144.125V111.562C218.891 111.438 218.87 111.333 218.828 111.25C218.828 111.125 218.807 111.021 218.766 110.938C218.724 110.854 218.682 110.792 218.641 110.75C218.641 110.667 218.578 110.604 218.453 110.562C218.37 110.479 218.286 110.417 218.203 110.375C218.161 110.333 218.036 110.271 217.828 110.188C217.661 110.062 217.536 109.979 217.453 109.938C217.036 109.688 216.578 109.438 216.078 109.188C215.62 108.896 215.286 108.688 215.078 108.562C214.911 108.438 214.724 108.312 214.516 108.188C214.307 108.021 214.161 107.896 214.078 107.812C214.036 107.688 214.016 107.562 214.016 107.438V107.375C214.016 107.167 214.807 106.646 216.391 105.812C218.349 104.854 220.182 103.917 221.891 103C222.141 102.833 222.411 102.75 222.703 102.75C223.286 102.75 223.578 103.146 223.578 103.938V144.438C223.578 144.688 223.578 144.896 223.578 145.062C223.62 145.229 223.661 145.396 223.703 145.562C223.745 145.688 223.786 145.792 223.828 145.875C223.87 145.958 223.953 146.042 224.078 146.125C224.245 146.208 224.349 146.271 224.391 146.312C224.474 146.354 224.62 146.417 224.828 146.5C225.078 146.542 225.245 146.583 225.328 146.625C225.453 146.625 225.682 146.646 226.016 146.688C226.391 146.729 226.661 146.771 226.828 146.812C227.536 146.938 227.891 147.375 227.891 148.125Z" fill="white"/>
<path d="M251.953 126.375C251.953 132.25 253.703 137.208 257.203 141.25C260.703 145.25 264.953 147.25 269.953 147.25C273.703 147.25 277.12 146.104 280.203 143.812C283.328 141.521 285.474 138.479 286.641 134.688C286.849 134.104 287.161 133.812 287.578 133.812C288.286 133.812 288.641 134.062 288.641 134.562C287.682 141.188 287.141 144.646 287.016 144.938C286.807 145.646 286.328 146 285.578 146H283.766C283.266 146 282.891 146.042 282.641 146.125C282.432 146.208 282.12 146.396 281.703 146.688C281.328 146.979 281.016 147.188 280.766 147.312C277.016 149.479 273.057 150.562 268.891 150.562C265.932 150.562 263.036 149.979 260.203 148.812C257.37 147.646 254.87 146.021 252.703 143.938C250.536 141.812 248.828 139.312 247.578 136.438C246.37 133.562 245.766 130.604 245.766 127.562C245.766 124.438 246.411 121.417 247.703 118.5C248.995 115.583 250.724 113.083 252.891 111C257.474 106.625 262.911 104.438 269.203 104.438H269.266C271.557 104.438 273.661 104.729 275.578 105.312C277.536 105.854 279.036 106.417 280.078 107C281.161 107.583 281.745 107.875 281.828 107.875C282.161 107.875 282.453 107.521 282.703 106.812C282.953 106.104 283.286 105.688 283.703 105.562C283.786 105.562 283.911 105.562 284.078 105.562C284.245 105.521 284.349 105.5 284.391 105.5C284.849 105.5 285.12 105.75 285.203 106.25L285.641 109.5C285.932 111.708 286.224 113.938 286.516 116.188C286.807 118.438 286.953 119.646 286.953 119.812C286.953 120.521 286.516 120.875 285.641 120.875C284.849 120.875 284.391 120.75 284.266 120.5C284.141 120.208 283.995 119.333 283.828 117.875C283.62 116.292 283.057 114.896 282.141 113.688C280.682 111.854 278.828 110.354 276.578 109.188C274.328 107.979 271.828 107.375 269.078 107.375C264.453 107.375 260.432 109.125 257.016 112.625C253.641 116.125 251.953 120.708 251.953 126.375Z" fill="white"/>
<path d="M295.328 141.25C295.328 139.083 295.328 137.062 295.328 135.188C295.328 133.312 295.328 131.854 295.328 130.812C295.37 129.729 295.391 129.083 295.391 128.875C295.391 128.417 295.224 128.104 294.891 127.938C294.599 127.729 293.328 127.167 291.078 126.25C290.536 126.042 290.266 125.771 290.266 125.438C290.266 125.312 290.286 125.188 290.328 125.062C290.411 124.938 290.516 124.833 290.641 124.75C290.807 124.667 290.953 124.604 291.078 124.562C291.203 124.479 291.37 124.396 291.578 124.312C291.786 124.229 291.932 124.167 292.016 124.125C296.682 121.875 299.036 120.75 299.078 120.75H299.141C299.724 120.75 300.016 121.104 300.016 121.812L299.953 123.875C299.87 125.25 299.786 127.104 299.703 129.438C299.661 131.729 299.641 134.021 299.641 136.312V138.438C299.641 142.396 299.703 144.729 299.828 145.438C299.953 146.146 300.37 146.542 301.078 146.625C302.328 146.792 303.12 146.938 303.453 147.062C303.786 147.188 303.953 147.5 303.953 148C303.953 148.917 303.703 149.375 303.203 149.375C303.161 149.375 303.036 149.354 302.828 149.312C302.62 149.312 302.328 149.292 301.953 149.25C301.578 149.208 301.161 149.167 300.703 149.125C300.245 149.083 299.703 149.042 299.078 149C298.495 149 297.911 149 297.328 149C296.745 149 296.141 149 295.516 149C294.891 149.042 294.349 149.083 293.891 149.125C293.474 149.167 293.078 149.208 292.703 149.25C292.328 149.292 292.036 149.312 291.828 149.312C291.62 149.354 291.495 149.375 291.453 149.375C290.786 149.375 290.453 149.021 290.453 148.312C290.453 147.604 290.578 147.188 290.828 147.062C291.12 146.938 292.057 146.771 293.641 146.562C294.391 146.438 294.849 146.208 295.016 145.875C295.224 145.5 295.328 144.958 295.328 144.25V141.25ZM295.953 109.438C295.953 108.604 296.266 107.896 296.891 107.312C297.516 106.729 298.245 106.438 299.078 106.438C299.911 106.438 300.62 106.729 301.203 107.312C301.828 107.896 302.141 108.583 302.141 109.375C302.141 110.25 301.828 110.979 301.203 111.562C300.62 112.146 299.891 112.438 299.016 112.438C298.141 112.438 297.411 112.167 296.828 111.625C296.245 111.042 295.953 110.312 295.953 109.438Z" fill="white"/>
<path d="M307.391 125.625C306.516 125.625 306.078 125.354 306.078 124.812C306.078 124.562 306.37 124.188 306.953 123.688C307.578 123.146 308.453 122.271 309.578 121.062C310.703 119.812 311.766 118.354 312.766 116.688C313.224 115.896 313.641 115.5 314.016 115.5C314.599 115.5 314.891 115.854 314.891 116.562C314.891 116.854 314.87 117.604 314.828 118.812C314.828 120.021 314.828 120.771 314.828 121.062C314.828 121.896 315.245 122.312 316.078 122.312H321.828C321.911 122.312 322.016 122.333 322.141 122.375C322.266 122.375 322.349 122.375 322.391 122.375C323.474 122.375 324.016 122.771 324.016 123.562C324.016 124.354 323.828 124.979 323.453 125.438C323.245 125.646 322.87 125.75 322.328 125.75H314.828C314.411 125.75 314.203 125.958 314.203 126.375C314.203 129.833 314.182 132.708 314.141 135C314.141 137.292 314.12 138.833 314.078 139.625C314.078 140.417 314.078 140.979 314.078 141.312C314.078 144.479 315.182 146.062 317.391 146.062C318.266 146.062 319.182 145.75 320.141 145.125C321.099 144.458 321.932 143.812 322.641 143.188C323.391 142.521 323.953 142.188 324.328 142.188C324.661 142.188 324.932 142.312 325.141 142.562C325.391 142.812 325.516 143.083 325.516 143.375C325.516 143.625 325.37 143.979 325.078 144.438C321.703 148.271 318.724 150.188 316.141 150.188C314.599 150.188 313.182 149.583 311.891 148.375C310.641 147.125 309.911 145.146 309.703 142.438C309.661 141.979 309.641 141.292 309.641 140.375C309.641 139.333 309.682 136.812 309.766 132.812C309.849 128.771 309.891 126.562 309.891 126.188C309.891 125.812 309.745 125.625 309.453 125.625H307.391Z" fill="white"/>
<path d="M332.078 141.25C332.078 139.083 332.078 137.062 332.078 135.188C332.078 133.312 332.078 131.854 332.078 130.812C332.12 129.729 332.141 129.083 332.141 128.875C332.141 128.417 331.974 128.104 331.641 127.938C331.349 127.729 330.078 127.167 327.828 126.25C327.286 126.042 327.016 125.771 327.016 125.438C327.016 125.312 327.036 125.188 327.078 125.062C327.161 124.938 327.266 124.833 327.391 124.75C327.557 124.667 327.703 124.604 327.828 124.562C327.953 124.479 328.12 124.396 328.328 124.312C328.536 124.229 328.682 124.167 328.766 124.125C333.432 121.875 335.786 120.75 335.828 120.75H335.891C336.474 120.75 336.766 121.104 336.766 121.812L336.703 123.875C336.62 125.25 336.536 127.104 336.453 129.438C336.411 131.729 336.391 134.021 336.391 136.312V138.438C336.391 142.396 336.453 144.729 336.578 145.438C336.703 146.146 337.12 146.542 337.828 146.625C339.078 146.792 339.87 146.938 340.203 147.062C340.536 147.188 340.703 147.5 340.703 148C340.703 148.917 340.453 149.375 339.953 149.375C339.911 149.375 339.786 149.354 339.578 149.312C339.37 149.312 339.078 149.292 338.703 149.25C338.328 149.208 337.911 149.167 337.453 149.125C336.995 149.083 336.453 149.042 335.828 149C335.245 149 334.661 149 334.078 149C333.495 149 332.891 149 332.266 149C331.641 149.042 331.099 149.083 330.641 149.125C330.224 149.167 329.828 149.208 329.453 149.25C329.078 149.292 328.786 149.312 328.578 149.312C328.37 149.354 328.245 149.375 328.203 149.375C327.536 149.375 327.203 149.021 327.203 148.312C327.203 147.604 327.328 147.188 327.578 147.062C327.87 146.938 328.807 146.771 330.391 146.562C331.141 146.438 331.599 146.208 331.766 145.875C331.974 145.5 332.078 144.958 332.078 144.25V141.25ZM332.703 109.438C332.703 108.604 333.016 107.896 333.641 107.312C334.266 106.729 334.995 106.438 335.828 106.438C336.661 106.438 337.37 106.729 337.953 107.312C338.578 107.896 338.891 108.583 338.891 109.375C338.891 110.25 338.578 110.979 337.953 111.562C337.37 112.146 336.641 112.438 335.766 112.438C334.891 112.438 334.161 112.167 333.578 111.625C332.995 111.042 332.703 110.312 332.703 109.438Z" fill="white"/>
<path d="M345.766 119.938H346.141C346.641 119.938 346.911 120.333 346.953 121.125C347.036 121.917 347.349 122.312 347.891 122.312H361.891C362.807 122.312 363.266 122.625 363.266 123.25C363.266 123.375 363.141 123.688 362.891 124.188C359.766 128.438 356.432 132.958 352.891 137.75C349.891 141.792 348.391 143.917 348.391 144.125C348.391 144.583 348.724 144.812 349.391 144.812H358.641C358.766 144.812 358.953 144.833 359.203 144.875C359.453 144.875 359.599 144.875 359.641 144.875C360.099 144.875 360.411 144.729 360.578 144.438C360.745 144.146 360.911 143.479 361.078 142.438C361.161 141.854 361.245 141.375 361.328 141C361.536 140.333 361.911 140 362.453 140C363.453 140 363.953 140.354 363.953 141.062C363.953 141.104 363.911 141.292 363.828 141.625C363.786 141.917 363.724 142.354 363.641 142.938C363.599 143.479 363.536 144.104 363.453 144.812C363.37 145.521 363.286 146.354 363.203 147.312C363.161 148.271 363.141 149.229 363.141 150.188C363.141 150.812 363.141 151.375 363.141 151.875C363.182 152.417 363.203 152.833 363.203 153.125C363.203 153.417 363.203 153.604 363.203 153.688C363.203 154.521 362.557 154.938 361.266 154.938C360.557 154.938 360.203 154.562 360.203 153.812V149.938C360.203 149.312 359.849 149 359.141 149H344.266C342.974 149 342.328 148.5 342.328 147.5C342.328 147.167 342.62 146.542 343.203 145.625L356.203 128C356.495 127.708 356.641 127.438 356.641 127.188C356.641 126.562 356.203 126.25 355.328 126.25H347.703C347.37 126.25 347.12 126.375 346.953 126.625C346.828 126.875 346.682 127.396 346.516 128.188C346.432 128.604 346.37 128.938 346.328 129.188C346.12 129.854 345.745 130.188 345.203 130.188C344.453 130.188 344.078 129.917 344.078 129.375C344.078 129.333 344.099 129.208 344.141 129C344.182 128.75 344.224 128.438 344.266 128.062C344.349 127.646 344.411 127.188 344.453 126.688C344.536 126.188 344.599 125.604 344.641 124.938C344.682 124.229 344.703 123.521 344.703 122.812V120.875C344.703 120.25 345.057 119.938 345.766 119.938Z" fill="white"/>
<path d="M366.078 135.812C366.078 131.479 367.224 128 369.516 125.375C371.807 122.75 374.599 121.438 377.891 121.438C380.016 121.438 382.057 122.021 384.016 123.188C385.974 124.354 387.599 125.812 388.891 127.562C389.224 127.979 389.391 128.438 389.391 128.938V129.062C389.391 129.438 389.286 129.771 389.078 130.062C388.87 130.354 388.536 130.625 388.078 130.875C387.62 131.083 387.224 131.25 386.891 131.375C386.557 131.5 386.057 131.667 385.391 131.875C384.766 132.083 384.37 132.208 384.203 132.25C375.495 135.25 371.036 136.812 370.828 136.938C370.661 137.021 370.578 137.146 370.578 137.312C370.578 137.562 370.641 137.979 370.766 138.562C370.891 139.146 371.161 139.917 371.578 140.875C372.036 141.833 372.578 142.729 373.203 143.562C373.87 144.354 374.807 145.062 376.016 145.688C377.224 146.271 378.578 146.562 380.078 146.562C382.995 146.562 385.536 145.521 387.703 143.438C388.286 142.854 388.766 142.562 389.141 142.562C389.849 142.562 390.203 142.875 390.203 143.5C390.203 143.75 390.036 144.083 389.703 144.5C388.37 146.25 386.703 147.646 384.703 148.688C382.703 149.688 380.599 150.188 378.391 150.188C376.974 150.188 375.578 149.938 374.203 149.438C372.87 148.938 371.557 148.167 370.266 147.125C369.016 146.083 367.995 144.583 367.203 142.625C366.453 140.667 366.078 138.396 366.078 135.812ZM383.203 129.188C383.203 128.646 382.474 127.812 381.016 126.688C379.557 125.521 378.036 124.938 376.453 124.938C374.578 124.938 373.078 125.75 371.953 127.375C370.87 129 370.328 131.229 370.328 134.062C370.328 134.396 370.432 134.562 370.641 134.562C370.724 134.562 372.703 133.812 376.578 132.312C380.495 130.771 382.516 129.979 382.641 129.938C383.016 129.729 383.203 129.479 383.203 129.188Z" fill="white"/>
<path d="M399.766 124.875C399.766 125.042 399.828 125.125 399.953 125.125H400.016C400.057 125.125 400.203 125 400.453 124.75C400.745 124.5 401.141 124.188 401.641 123.812C402.141 123.438 402.724 123.062 403.391 122.688C404.057 122.312 404.87 122 405.828 121.75C406.786 121.458 407.786 121.312 408.828 121.312H408.953C409.828 121.312 410.682 121.438 411.516 121.688C412.391 121.896 413.307 122.312 414.266 122.938C415.266 123.521 416.099 124.458 416.766 125.75C417.432 127.042 417.849 128.625 418.016 130.5C418.099 131.208 418.141 132.292 418.141 133.75C418.141 133.917 418.141 134.333 418.141 135C418.141 135.625 418.12 136.771 418.078 138.438C418.078 140.104 418.078 142.229 418.078 144.812V144.938C418.078 145.146 418.099 145.354 418.141 145.562C418.182 145.729 418.203 145.875 418.203 146C418.245 146.083 418.328 146.188 418.453 146.312C418.578 146.396 418.661 146.458 418.703 146.5C418.786 146.542 418.932 146.604 419.141 146.688C419.391 146.729 419.557 146.75 419.641 146.75C419.766 146.75 419.995 146.771 420.328 146.812C420.703 146.854 420.974 146.896 421.141 146.938C421.766 147.021 422.078 147.417 422.078 148.125C422.078 148.958 421.745 149.375 421.078 149.375C420.953 149.375 420.661 149.333 420.203 149.25C419.745 149.208 419.099 149.146 418.266 149.062C417.474 149.021 416.62 149 415.703 149C415.161 149 414.62 149 414.078 149C413.536 149.042 413.057 149.083 412.641 149.125C412.266 149.167 411.911 149.208 411.578 149.25C411.245 149.292 410.974 149.333 410.766 149.375H410.453C409.87 149.375 409.578 148.958 409.578 148.125C409.578 147.667 409.703 147.375 409.953 147.25C410.203 147.125 410.87 146.979 411.953 146.812C412.328 146.729 412.641 146.667 412.891 146.625C413.307 146.542 413.578 146.417 413.703 146.25C413.87 146.042 413.953 145.667 413.953 145.125V135.188C413.953 132.062 413.661 129.75 413.078 128.25C412.453 126.833 411.516 125.854 410.266 125.312C409.016 124.729 407.828 124.438 406.703 124.438C405.078 124.438 403.62 124.938 402.328 125.938C401.036 126.938 400.307 127.812 400.141 128.562C400.057 128.896 400.016 129.188 400.016 129.438V144.75C400.016 145.833 400.495 146.438 401.453 146.562C403.328 146.854 404.349 147.083 404.516 147.25C404.766 147.458 404.891 147.812 404.891 148.312C404.891 149.062 404.62 149.438 404.078 149.438C404.036 149.438 403.891 149.417 403.641 149.375C403.432 149.375 403.141 149.354 402.766 149.312C402.391 149.271 401.974 149.208 401.516 149.125C401.057 149.083 400.516 149.042 399.891 149C399.307 149 398.724 149 398.141 149C397.557 149 396.974 149 396.391 149C395.807 149.042 395.286 149.083 394.828 149.125C394.411 149.167 394.036 149.208 393.703 149.25C393.37 149.292 393.099 149.312 392.891 149.312C392.682 149.354 392.557 149.375 392.516 149.375C391.807 149.375 391.453 149 391.453 148.25C391.453 147.667 391.578 147.312 391.828 147.188C392.12 147.021 392.828 146.854 393.953 146.688C394.703 146.562 395.161 146.333 395.328 146C395.536 145.667 395.641 145.167 395.641 144.5V129.25C395.641 128.5 395.536 128 395.328 127.75C395.12 127.458 394.266 126.75 392.766 125.625C392.516 125.375 392.391 125.167 392.391 125V124.938C392.391 124.729 392.536 124.542 392.828 124.375C393.12 124.167 394.016 123.667 395.516 122.875C396.682 122.25 397.661 121.729 398.453 121.312C398.703 121.146 398.911 121.062 399.078 121.062C399.578 121.062 399.828 121.375 399.828 122V124.5C399.828 124.542 399.807 124.625 399.766 124.75V124.875Z" fill="white"/>
<path d="M424.641 129.25C424.641 127.25 425.474 125.5 427.141 124C428.849 122.458 431.078 121.688 433.828 121.688C434.411 121.688 434.932 121.729 435.391 121.812C435.891 121.854 436.266 121.896 436.516 121.938C436.807 121.979 436.974 122 437.016 122C437.182 122 437.432 121.896 437.766 121.688C438.099 121.479 438.391 121.375 438.641 121.375C439.141 121.375 439.474 121.771 439.641 122.562C439.766 123.188 439.932 124.062 440.141 125.188C440.349 126.312 440.516 127.271 440.641 128.062C440.807 128.812 440.891 129.229 440.891 129.312C440.891 129.979 440.391 130.312 439.391 130.312C438.974 130.312 438.661 130.167 438.453 129.875C438.286 129.542 438.12 129.083 437.953 128.5C437.786 127.917 437.599 127.479 437.391 127.188C436.932 126.562 436.182 126 435.141 125.5C434.141 124.958 433.141 124.688 432.141 124.688C431.016 124.688 430.057 125 429.266 125.625C428.474 126.25 428.078 127.062 428.078 128.062C428.078 130.188 429.766 131.729 433.141 132.688C433.557 132.812 434.182 132.979 435.016 133.188C435.849 133.354 436.495 133.5 436.953 133.625C437.411 133.75 437.953 133.938 438.578 134.188C439.245 134.438 439.828 134.75 440.328 135.125C440.828 135.5 441.307 135.958 441.766 136.5C443.057 138 443.703 139.688 443.703 141.562C443.703 143.812 442.807 145.812 441.016 147.562C439.266 149.312 436.911 150.188 433.953 150.188C432.328 150.188 430.661 149.917 428.953 149.375C427.286 148.833 426.016 148.042 425.141 147C424.641 146.458 424.391 145.729 424.391 144.812C424.391 144.146 424.37 143.396 424.328 142.562C424.328 141.729 424.328 141.208 424.328 141C424.328 140.167 424.391 139.625 424.516 139.375C424.682 139.125 424.995 139 425.453 139C425.911 139 426.203 139.188 426.328 139.562C426.453 139.938 426.536 140.5 426.578 141.25C426.62 141.958 426.745 142.542 426.953 143C427.328 143.833 428.203 144.667 429.578 145.5C430.995 146.333 432.536 146.75 434.203 146.75C435.661 146.75 436.891 146.354 437.891 145.562C438.891 144.771 439.391 143.75 439.391 142.5C439.391 141.708 439.203 141.021 438.828 140.438C438.495 139.812 437.953 139.312 437.203 138.938C436.453 138.521 435.849 138.229 435.391 138.062C434.932 137.854 434.203 137.625 433.203 137.375L431.703 137.062C426.995 135.688 424.641 133.083 424.641 129.25Z" fill="white"/>
<path d="M463.016 148.5V148.062C463.016 147.854 463.016 147.688 463.016 147.562C463.057 147.438 463.12 147.333 463.203 147.25C463.328 147.125 463.432 147.042 463.516 147C463.641 146.958 463.807 146.917 464.016 146.875C464.266 146.833 464.474 146.812 464.641 146.812C464.849 146.771 465.141 146.729 465.516 146.688C465.932 146.646 466.307 146.604 466.641 146.562C467.266 146.479 467.641 146.146 467.766 145.562C467.891 144.979 467.953 143.458 467.953 141C467.953 136.833 467.682 133.833 467.141 132C466.641 130.125 465.891 128.646 464.891 127.562C463.349 126.021 461.62 125.25 459.703 125.25C458.411 125.25 457.203 125.604 456.078 126.312C454.953 126.979 454.307 127.667 454.141 128.375C454.099 128.542 454.078 128.833 454.078 129.25C454.078 139.5 454.12 144.771 454.203 145.062C454.328 145.688 454.641 146.125 455.141 146.375C455.682 146.625 456.224 146.75 456.766 146.75C457.349 146.708 457.87 146.792 458.328 147C458.786 147.208 459.016 147.562 459.016 148.062C459.016 148.938 458.766 149.375 458.266 149.375C458.224 149.375 458.099 149.354 457.891 149.312C457.682 149.312 457.391 149.292 457.016 149.25C456.641 149.208 456.224 149.167 455.766 149.125C455.307 149.083 454.766 149.042 454.141 149C453.557 149 452.974 149 452.391 149C451.766 149 451.141 149 450.516 149C449.932 149.042 449.391 149.083 448.891 149.125C448.432 149.167 448.016 149.208 447.641 149.25C447.266 149.292 446.974 149.312 446.766 149.312C446.557 149.354 446.432 149.375 446.391 149.375C445.891 149.375 445.641 148.958 445.641 148.125C445.641 147.625 445.766 147.312 446.016 147.188C446.266 147.062 446.911 146.896 447.953 146.688C448.411 146.604 448.766 146.438 449.016 146.188C449.266 145.896 449.391 145.667 449.391 145.5C449.432 145.292 449.474 144.958 449.516 144.5C449.724 138.042 449.828 132.188 449.828 126.938V126.688C449.828 117.229 449.745 112 449.578 111C449.495 110.458 448.703 110.021 447.203 109.688C445.745 109.354 445.016 108.896 445.016 108.312C445.016 107.854 445.37 107.438 446.078 107.062C450.786 104.354 453.224 103 453.391 103H453.453C454.12 103 454.453 103.396 454.453 104.188L454.391 123.938C454.391 124.229 454.495 124.375 454.703 124.375C454.745 124.375 455.099 124.188 455.766 123.812C456.432 123.396 457.349 123 458.516 122.625C459.724 122.208 460.974 122 462.266 122C466.266 122 469.12 123.938 470.828 127.812C471.495 129.396 471.932 131.188 472.141 133.188C472.391 135.146 472.578 139 472.703 144.75C472.703 145.333 472.807 145.771 473.016 146.062C473.224 146.354 473.453 146.542 473.703 146.625C473.953 146.667 474.411 146.729 475.078 146.812C475.786 146.896 476.141 147.292 476.141 148C476.141 148.917 475.87 149.375 475.328 149.375C475.286 149.375 475.161 149.354 474.953 149.312C474.745 149.312 474.453 149.292 474.078 149.25C473.703 149.208 473.286 149.167 472.828 149.125C472.411 149.083 471.891 149.042 471.266 149C470.641 149 470.036 149 469.453 149C468.87 149 468.286 149 467.703 149C467.12 149.042 466.599 149.083 466.141 149.125C465.682 149.167 465.266 149.208 464.891 149.25C464.557 149.292 464.286 149.312 464.078 149.312C463.87 149.354 463.745 149.375 463.703 149.375C463.245 149.375 463.016 149.083 463.016 148.5Z" fill="white"/>
<path d="M483.141 141.25C483.141 139.083 483.141 137.062 483.141 135.188C483.141 133.312 483.141 131.854 483.141 130.812C483.182 129.729 483.203 129.083 483.203 128.875C483.203 128.417 483.036 128.104 482.703 127.938C482.411 127.729 481.141 127.167 478.891 126.25C478.349 126.042 478.078 125.771 478.078 125.438C478.078 125.312 478.099 125.188 478.141 125.062C478.224 124.938 478.328 124.833 478.453 124.75C478.62 124.667 478.766 124.604 478.891 124.562C479.016 124.479 479.182 124.396 479.391 124.312C479.599 124.229 479.745 124.167 479.828 124.125C484.495 121.875 486.849 120.75 486.891 120.75H486.953C487.536 120.75 487.828 121.104 487.828 121.812L487.766 123.875C487.682 125.25 487.599 127.104 487.516 129.438C487.474 131.729 487.453 134.021 487.453 136.312V138.438C487.453 142.396 487.516 144.729 487.641 145.438C487.766 146.146 488.182 146.542 488.891 146.625C490.141 146.792 490.932 146.938 491.266 147.062C491.599 147.188 491.766 147.5 491.766 148C491.766 148.917 491.516 149.375 491.016 149.375C490.974 149.375 490.849 149.354 490.641 149.312C490.432 149.312 490.141 149.292 489.766 149.25C489.391 149.208 488.974 149.167 488.516 149.125C488.057 149.083 487.516 149.042 486.891 149C486.307 149 485.724 149 485.141 149C484.557 149 483.953 149 483.328 149C482.703 149.042 482.161 149.083 481.703 149.125C481.286 149.167 480.891 149.208 480.516 149.25C480.141 149.292 479.849 149.312 479.641 149.312C479.432 149.354 479.307 149.375 479.266 149.375C478.599 149.375 478.266 149.021 478.266 148.312C478.266 147.604 478.391 147.188 478.641 147.062C478.932 146.938 479.87 146.771 481.453 146.562C482.203 146.438 482.661 146.208 482.828 145.875C483.036 145.5 483.141 144.958 483.141 144.25V141.25ZM483.766 109.438C483.766 108.604 484.078 107.896 484.703 107.312C485.328 106.729 486.057 106.438 486.891 106.438C487.724 106.438 488.432 106.729 489.016 107.312C489.641 107.896 489.953 108.583 489.953 109.375C489.953 110.25 489.641 110.979 489.016 111.562C488.432 112.146 487.703 112.438 486.828 112.438C485.953 112.438 485.224 112.167 484.641 111.625C484.057 111.042 483.766 110.312 483.766 109.438Z" fill="white"/>
<path d="M508.641 147.25C511.349 147.25 513.703 146.229 515.703 144.188C517.745 142.146 518.766 139.583 518.766 136.5C518.766 133.458 517.745 130.812 515.703 128.562C513.703 126.312 511.411 125.188 508.828 125.188C507.245 125.188 505.828 125.646 504.578 126.562C503.37 127.396 502.766 128.708 502.766 130.5V144.25C502.766 145.083 503.307 145.75 504.391 146.25C505.724 146.917 507.141 147.25 508.641 147.25ZM510.953 121.438C514.453 121.438 517.328 122.792 519.578 125.5C521.87 128.208 523.016 131.458 523.016 135.25C523.016 139.458 521.599 142.875 518.766 145.5C515.932 148.125 512.286 149.438 507.828 149.438C507.411 149.438 506.995 149.417 506.578 149.375C506.161 149.375 505.786 149.354 505.453 149.312C505.12 149.271 504.828 149.229 504.578 149.188C504.328 149.146 504.12 149.125 503.953 149.125L503.703 149.062C503.411 149.062 503.266 149.292 503.266 149.75V158.75C503.266 159.75 503.745 160.292 504.703 160.375C505.12 160.417 505.599 160.458 506.141 160.5C506.724 160.542 507.141 160.562 507.391 160.562C507.641 160.604 507.932 160.646 508.266 160.688C508.599 160.729 508.828 160.792 508.953 160.875C509.12 160.958 509.266 161.062 509.391 161.188C509.557 161.312 509.661 161.458 509.703 161.625C509.745 161.833 509.766 162.083 509.766 162.375C509.766 163 509.516 163.312 509.016 163.312C508.932 163.312 508.62 163.292 508.078 163.25C507.578 163.208 506.87 163.167 505.953 163.125C505.036 163.083 504.057 163.062 503.016 163.062C501.641 163.062 500.266 163.104 498.891 163.188C497.557 163.271 496.495 163.354 495.703 163.438L494.516 163.562C493.807 163.562 493.453 163.146 493.453 162.312C493.453 162.188 493.453 162.062 493.453 161.938C493.495 161.854 493.536 161.771 493.578 161.688C493.661 161.646 493.724 161.583 493.766 161.5C493.807 161.458 493.891 161.396 494.016 161.312C494.182 161.271 494.307 161.229 494.391 161.188C494.516 161.188 494.682 161.146 494.891 161.062C495.141 161.021 495.349 160.979 495.516 160.938C495.724 160.938 495.995 160.896 496.328 160.812C496.661 160.729 496.953 160.667 497.203 160.625C498.12 160.458 498.578 159.875 498.578 158.875V129.188C498.578 128.521 498.307 128.083 497.766 127.875C497.182 127.625 496.474 127.312 495.641 126.938C494.557 126.479 493.911 126.188 493.703 126.062C493.536 125.938 493.453 125.792 493.453 125.625V125.562C493.453 125.396 494.391 124.771 496.266 123.688C497.766 122.812 499.12 122.021 500.328 121.312C500.453 121.229 500.578 121.167 500.703 121.125C500.828 121.042 500.911 120.979 500.953 120.938C501.036 120.854 501.099 120.812 501.141 120.812C501.224 120.771 501.307 120.75 501.391 120.75C501.724 120.75 501.891 121 501.891 121.5V125.25C501.891 125.5 501.974 125.625 502.141 125.625L502.953 124.75C503.495 124.167 504.349 123.542 505.516 122.875C506.682 122.167 507.995 121.708 509.453 121.5C509.786 121.458 510.286 121.438 510.953 121.438Z" fill="white"/>
<path d="M547.578 126.375C547.578 132.25 549.328 137.208 552.828 141.25C556.328 145.25 560.578 147.25 565.578 147.25C569.328 147.25 572.745 146.104 575.828 143.812C578.953 141.521 581.099 138.479 582.266 134.688C582.474 134.104 582.786 133.812 583.203 133.812C583.911 133.812 584.266 134.062 584.266 134.562C583.307 141.188 582.766 144.646 582.641 144.938C582.432 145.646 581.953 146 581.203 146H579.391C578.891 146 578.516 146.042 578.266 146.125C578.057 146.208 577.745 146.396 577.328 146.688C576.953 146.979 576.641 147.188 576.391 147.312C572.641 149.479 568.682 150.562 564.516 150.562C561.557 150.562 558.661 149.979 555.828 148.812C552.995 147.646 550.495 146.021 548.328 143.938C546.161 141.812 544.453 139.312 543.203 136.438C541.995 133.562 541.391 130.604 541.391 127.562C541.391 124.438 542.036 121.417 543.328 118.5C544.62 115.583 546.349 113.083 548.516 111C553.099 106.625 558.536 104.438 564.828 104.438H564.891C567.182 104.438 569.286 104.729 571.203 105.312C573.161 105.854 574.661 106.417 575.703 107C576.786 107.583 577.37 107.875 577.453 107.875C577.786 107.875 578.078 107.521 578.328 106.812C578.578 106.104 578.911 105.688 579.328 105.562C579.411 105.562 579.536 105.562 579.703 105.562C579.87 105.521 579.974 105.5 580.016 105.5C580.474 105.5 580.745 105.75 580.828 106.25L581.266 109.5C581.557 111.708 581.849 113.938 582.141 116.188C582.432 118.438 582.578 119.646 582.578 119.812C582.578 120.521 582.141 120.875 581.266 120.875C580.474 120.875 580.016 120.75 579.891 120.5C579.766 120.208 579.62 119.333 579.453 117.875C579.245 116.292 578.682 114.896 577.766 113.688C576.307 111.854 574.453 110.354 572.203 109.188C569.953 107.979 567.453 107.375 564.703 107.375C560.078 107.375 556.057 109.125 552.641 112.625C549.266 116.125 547.578 120.708 547.578 126.375Z" fill="white"/>
<path d="M586.828 126.938C586.828 125.688 587.828 124.438 589.828 123.188C591.87 121.896 594.141 121.25 596.641 121.25C597.432 121.25 598.245 121.333 599.078 121.5C599.911 121.667 600.849 121.958 601.891 122.375C602.974 122.792 603.87 123.521 604.578 124.562C605.328 125.562 605.786 126.792 605.953 128.25C606.036 129.25 606.078 130.021 606.078 130.562V143.188C606.078 143.938 606.224 144.542 606.516 145C606.807 145.458 607.099 145.75 607.391 145.875C607.682 145.958 607.974 146 608.266 146C608.849 146 609.307 145.833 609.641 145.5C609.974 145.125 610.224 144.771 610.391 144.438C610.599 144.062 610.828 143.875 611.078 143.875C611.453 143.875 611.641 144.146 611.641 144.688C611.641 145.688 611.182 146.792 610.266 148C609.349 149.167 608.161 149.75 606.703 149.75C606.161 149.75 605.641 149.667 605.141 149.5C604.641 149.333 604.224 149.125 603.891 148.875C603.557 148.583 603.245 148.312 602.953 148.062C602.703 147.812 602.495 147.583 602.328 147.375L602.141 147.125C602.099 147.125 602.078 147.125 602.078 147.125C602.078 147.083 602.057 147.062 602.016 147.062C601.932 147.062 601.87 147.104 601.828 147.188C601.786 147.271 601.641 147.438 601.391 147.688C601.141 147.938 600.786 148.208 600.328 148.5C598.453 149.667 596.474 150.25 594.391 150.25C592.224 150.25 590.453 149.562 589.078 148.188C587.745 146.812 587.078 145.125 587.078 143.125V143.062C587.078 140.646 587.974 138.75 589.766 137.375C590.391 136.875 591.203 136.438 592.203 136.062C593.203 135.646 594.182 135.333 595.141 135.125C596.141 134.917 597.078 134.75 597.953 134.625C598.828 134.458 599.557 134.354 600.141 134.312L601.016 134.25C601.349 134.167 601.516 133.875 601.516 133.375V131.062C601.516 128.854 601.016 127.146 600.016 125.938C598.974 124.812 597.724 124.25 596.266 124.25C594.016 124.25 592.182 125.667 590.766 128.5C590.391 129 589.932 129.25 589.391 129.25C588.724 129.25 588.12 129.042 587.578 128.625C587.078 128.208 586.828 127.646 586.828 126.938ZM595.891 146.75C596.849 146.75 597.745 146.542 598.578 146.125C599.453 145.708 600.057 145.333 600.391 145C600.724 144.667 600.995 144.375 601.203 144.125C601.453 143.792 601.578 143.312 601.578 142.688V138.5C601.578 137.708 601.536 137.208 601.453 137C601.411 136.75 601.245 136.625 600.953 136.625C599.911 136.625 598.599 136.792 597.016 137.125C595.474 137.458 594.245 138.062 593.328 138.938C592.328 139.771 591.828 140.938 591.828 142.438C591.828 144.021 592.266 145.188 593.141 145.938C593.724 146.479 594.641 146.75 595.891 146.75Z" fill="white"/>
<path d="M628.016 147.25C630.724 147.25 633.078 146.229 635.078 144.188C637.12 142.146 638.141 139.583 638.141 136.5C638.141 133.458 637.12 130.812 635.078 128.562C633.078 126.312 630.786 125.188 628.203 125.188C626.62 125.188 625.203 125.646 623.953 126.562C622.745 127.396 622.141 128.708 622.141 130.5V144.25C622.141 145.083 622.682 145.75 623.766 146.25C625.099 146.917 626.516 147.25 628.016 147.25ZM630.328 121.438C633.828 121.438 636.703 122.792 638.953 125.5C641.245 128.208 642.391 131.458 642.391 135.25C642.391 139.458 640.974 142.875 638.141 145.5C635.307 148.125 631.661 149.438 627.203 149.438C626.786 149.438 626.37 149.417 625.953 149.375C625.536 149.375 625.161 149.354 624.828 149.312C624.495 149.271 624.203 149.229 623.953 149.188C623.703 149.146 623.495 149.125 623.328 149.125L623.078 149.062C622.786 149.062 622.641 149.292 622.641 149.75V158.75C622.641 159.75 623.12 160.292 624.078 160.375C624.495 160.417 624.974 160.458 625.516 160.5C626.099 160.542 626.516 160.562 626.766 160.562C627.016 160.604 627.307 160.646 627.641 160.688C627.974 160.729 628.203 160.792 628.328 160.875C628.495 160.958 628.641 161.062 628.766 161.188C628.932 161.312 629.036 161.458 629.078 161.625C629.12 161.833 629.141 162.083 629.141 162.375C629.141 163 628.891 163.312 628.391 163.312C628.307 163.312 627.995 163.292 627.453 163.25C626.953 163.208 626.245 163.167 625.328 163.125C624.411 163.083 623.432 163.062 622.391 163.062C621.016 163.062 619.641 163.104 618.266 163.188C616.932 163.271 615.87 163.354 615.078 163.438L613.891 163.562C613.182 163.562 612.828 163.146 612.828 162.312C612.828 162.188 612.828 162.062 612.828 161.938C612.87 161.854 612.911 161.771 612.953 161.688C613.036 161.646 613.099 161.583 613.141 161.5C613.182 161.458 613.266 161.396 613.391 161.312C613.557 161.271 613.682 161.229 613.766 161.188C613.891 161.188 614.057 161.146 614.266 161.062C614.516 161.021 614.724 160.979 614.891 160.938C615.099 160.938 615.37 160.896 615.703 160.812C616.036 160.729 616.328 160.667 616.578 160.625C617.495 160.458 617.953 159.875 617.953 158.875V129.188C617.953 128.521 617.682 128.083 617.141 127.875C616.557 127.625 615.849 127.312 615.016 126.938C613.932 126.479 613.286 126.188 613.078 126.062C612.911 125.938 612.828 125.792 612.828 125.625V125.562C612.828 125.396 613.766 124.771 615.641 123.688C617.141 122.812 618.495 122.021 619.703 121.312C619.828 121.229 619.953 121.167 620.078 121.125C620.203 121.042 620.286 120.979 620.328 120.938C620.411 120.854 620.474 120.812 620.516 120.812C620.599 120.771 620.682 120.75 620.766 120.75C621.099 120.75 621.266 121 621.266 121.5V125.25C621.266 125.5 621.349 125.625 621.516 125.625L622.328 124.75C622.87 124.167 623.724 123.542 624.891 122.875C626.057 122.167 627.37 121.708 628.828 121.5C629.161 121.458 629.661 121.438 630.328 121.438Z" fill="white"/>
<path d="M649.578 141.25C649.578 139.083 649.578 137.062 649.578 135.188C649.578 133.312 649.578 131.854 649.578 130.812C649.62 129.729 649.641 129.083 649.641 128.875C649.641 128.417 649.474 128.104 649.141 127.938C648.849 127.729 647.578 127.167 645.328 126.25C644.786 126.042 644.516 125.771 644.516 125.438C644.516 125.312 644.536 125.188 644.578 125.062C644.661 124.938 644.766 124.833 644.891 124.75C645.057 124.667 645.203 124.604 645.328 124.562C645.453 124.479 645.62 124.396 645.828 124.312C646.036 124.229 646.182 124.167 646.266 124.125C650.932 121.875 653.286 120.75 653.328 120.75H653.391C653.974 120.75 654.266 121.104 654.266 121.812L654.203 123.875C654.12 125.25 654.036 127.104 653.953 129.438C653.911 131.729 653.891 134.021 653.891 136.312V138.438C653.891 142.396 653.953 144.729 654.078 145.438C654.203 146.146 654.62 146.542 655.328 146.625C656.578 146.792 657.37 146.938 657.703 147.062C658.036 147.188 658.203 147.5 658.203 148C658.203 148.917 657.953 149.375 657.453 149.375C657.411 149.375 657.286 149.354 657.078 149.312C656.87 149.312 656.578 149.292 656.203 149.25C655.828 149.208 655.411 149.167 654.953 149.125C654.495 149.083 653.953 149.042 653.328 149C652.745 149 652.161 149 651.578 149C650.995 149 650.391 149 649.766 149C649.141 149.042 648.599 149.083 648.141 149.125C647.724 149.167 647.328 149.208 646.953 149.25C646.578 149.292 646.286 149.312 646.078 149.312C645.87 149.354 645.745 149.375 645.703 149.375C645.036 149.375 644.703 149.021 644.703 148.312C644.703 147.604 644.828 147.188 645.078 147.062C645.37 146.938 646.307 146.771 647.891 146.562C648.641 146.438 649.099 146.208 649.266 145.875C649.474 145.5 649.578 144.958 649.578 144.25V141.25ZM650.203 109.438C650.203 108.604 650.516 107.896 651.141 107.312C651.766 106.729 652.495 106.438 653.328 106.438C654.161 106.438 654.87 106.729 655.453 107.312C656.078 107.896 656.391 108.583 656.391 109.375C656.391 110.25 656.078 110.979 655.453 111.562C654.87 112.146 654.141 112.438 653.266 112.438C652.391 112.438 651.661 112.167 651.078 111.625C650.495 111.042 650.203 110.312 650.203 109.438Z" fill="white"/>
<path d="M661.641 125.625C660.766 125.625 660.328 125.354 660.328 124.812C660.328 124.562 660.62 124.188 661.203 123.688C661.828 123.146 662.703 122.271 663.828 121.062C664.953 119.812 666.016 118.354 667.016 116.688C667.474 115.896 667.891 115.5 668.266 115.5C668.849 115.5 669.141 115.854 669.141 116.562C669.141 116.854 669.12 117.604 669.078 118.812C669.078 120.021 669.078 120.771 669.078 121.062C669.078 121.896 669.495 122.312 670.328 122.312H676.078C676.161 122.312 676.266 122.333 676.391 122.375C676.516 122.375 676.599 122.375 676.641 122.375C677.724 122.375 678.266 122.771 678.266 123.562C678.266 124.354 678.078 124.979 677.703 125.438C677.495 125.646 677.12 125.75 676.578 125.75H669.078C668.661 125.75 668.453 125.958 668.453 126.375C668.453 129.833 668.432 132.708 668.391 135C668.391 137.292 668.37 138.833 668.328 139.625C668.328 140.417 668.328 140.979 668.328 141.312C668.328 144.479 669.432 146.062 671.641 146.062C672.516 146.062 673.432 145.75 674.391 145.125C675.349 144.458 676.182 143.812 676.891 143.188C677.641 142.521 678.203 142.188 678.578 142.188C678.911 142.188 679.182 142.312 679.391 142.562C679.641 142.812 679.766 143.083 679.766 143.375C679.766 143.625 679.62 143.979 679.328 144.438C675.953 148.271 672.974 150.188 670.391 150.188C668.849 150.188 667.432 149.583 666.141 148.375C664.891 147.125 664.161 145.146 663.953 142.438C663.911 141.979 663.891 141.292 663.891 140.375C663.891 139.333 663.932 136.812 664.016 132.812C664.099 128.771 664.141 126.562 664.141 126.188C664.141 125.812 663.995 125.625 663.703 125.625H661.641Z" fill="white"/>
<path d="M682.203 126.938C682.203 125.688 683.203 124.438 685.203 123.188C687.245 121.896 689.516 121.25 692.016 121.25C692.807 121.25 693.62 121.333 694.453 121.5C695.286 121.667 696.224 121.958 697.266 122.375C698.349 122.792 699.245 123.521 699.953 124.562C700.703 125.562 701.161 126.792 701.328 128.25C701.411 129.25 701.453 130.021 701.453 130.562V143.188C701.453 143.938 701.599 144.542 701.891 145C702.182 145.458 702.474 145.75 702.766 145.875C703.057 145.958 703.349 146 703.641 146C704.224 146 704.682 145.833 705.016 145.5C705.349 145.125 705.599 144.771 705.766 144.438C705.974 144.062 706.203 143.875 706.453 143.875C706.828 143.875 707.016 144.146 707.016 144.688C707.016 145.688 706.557 146.792 705.641 148C704.724 149.167 703.536 149.75 702.078 149.75C701.536 149.75 701.016 149.667 700.516 149.5C700.016 149.333 699.599 149.125 699.266 148.875C698.932 148.583 698.62 148.312 698.328 148.062C698.078 147.812 697.87 147.583 697.703 147.375L697.516 147.125C697.474 147.125 697.453 147.125 697.453 147.125C697.453 147.083 697.432 147.062 697.391 147.062C697.307 147.062 697.245 147.104 697.203 147.188C697.161 147.271 697.016 147.438 696.766 147.688C696.516 147.938 696.161 148.208 695.703 148.5C693.828 149.667 691.849 150.25 689.766 150.25C687.599 150.25 685.828 149.562 684.453 148.188C683.12 146.812 682.453 145.125 682.453 143.125V143.062C682.453 140.646 683.349 138.75 685.141 137.375C685.766 136.875 686.578 136.438 687.578 136.062C688.578 135.646 689.557 135.333 690.516 135.125C691.516 134.917 692.453 134.75 693.328 134.625C694.203 134.458 694.932 134.354 695.516 134.312L696.391 134.25C696.724 134.167 696.891 133.875 696.891 133.375V131.062C696.891 128.854 696.391 127.146 695.391 125.938C694.349 124.812 693.099 124.25 691.641 124.25C689.391 124.25 687.557 125.667 686.141 128.5C685.766 129 685.307 129.25 684.766 129.25C684.099 129.25 683.495 129.042 682.953 128.625C682.453 128.208 682.203 127.646 682.203 126.938ZM691.266 146.75C692.224 146.75 693.12 146.542 693.953 146.125C694.828 145.708 695.432 145.333 695.766 145C696.099 144.667 696.37 144.375 696.578 144.125C696.828 143.792 696.953 143.312 696.953 142.688V138.5C696.953 137.708 696.911 137.208 696.828 137C696.786 136.75 696.62 136.625 696.328 136.625C695.286 136.625 693.974 136.792 692.391 137.125C690.849 137.458 689.62 138.062 688.703 138.938C687.703 139.771 687.203 140.938 687.203 142.438C687.203 144.021 687.641 145.188 688.516 145.938C689.099 146.479 690.016 146.75 691.266 146.75Z" fill="white"/>
<path d="M721.953 148.125C721.953 148.958 721.703 149.375 721.203 149.375C721.161 149.375 721.016 149.354 720.766 149.312C720.557 149.312 720.266 149.292 719.891 149.25C719.516 149.208 719.099 149.167 718.641 149.125C718.182 149.083 717.641 149.042 717.016 149C716.391 149 715.786 149 715.203 149C714.62 149 714.036 149 713.453 149C712.87 149.042 712.349 149.062 711.891 149.062C711.432 149.104 711.016 149.146 710.641 149.188C710.307 149.229 710.036 149.25 709.828 149.25C709.62 149.292 709.495 149.312 709.453 149.312C708.828 149.312 708.516 148.938 708.516 148.188V148C708.516 147.458 708.641 147.125 708.891 147C709.182 146.833 709.932 146.688 711.141 146.562C711.891 146.479 712.37 146.25 712.578 145.875C712.828 145.458 712.953 144.875 712.953 144.125V111.562C712.953 111.438 712.932 111.333 712.891 111.25C712.891 111.125 712.87 111.021 712.828 110.938C712.786 110.854 712.745 110.792 712.703 110.75C712.703 110.667 712.641 110.604 712.516 110.562C712.432 110.479 712.349 110.417 712.266 110.375C712.224 110.333 712.099 110.271 711.891 110.188C711.724 110.062 711.599 109.979 711.516 109.938C711.099 109.688 710.641 109.438 710.141 109.188C709.682 108.896 709.349 108.688 709.141 108.562C708.974 108.438 708.786 108.312 708.578 108.188C708.37 108.021 708.224 107.896 708.141 107.812C708.099 107.688 708.078 107.562 708.078 107.438V107.375C708.078 107.167 708.87 106.646 710.453 105.812C712.411 104.854 714.245 103.917 715.953 103C716.203 102.833 716.474 102.75 716.766 102.75C717.349 102.75 717.641 103.146 717.641 103.938V144.438C717.641 144.688 717.641 144.896 717.641 145.062C717.682 145.229 717.724 145.396 717.766 145.562C717.807 145.688 717.849 145.792 717.891 145.875C717.932 145.958 718.016 146.042 718.141 146.125C718.307 146.208 718.411 146.271 718.453 146.312C718.536 146.354 718.682 146.417 718.891 146.5C719.141 146.542 719.307 146.583 719.391 146.625C719.516 146.625 719.745 146.646 720.078 146.688C720.453 146.729 720.724 146.771 720.891 146.812C721.599 146.938 721.953 147.375 721.953 148.125Z" fill="white"/>
<path d="M47.8506 153C46.8106 153.04 45.4906 152.6 43.8906 151.68C42.3306 150.72 40.6306 149.42 38.7906 147.78C36.9106 149.38 34.7306 150.6 32.2506 151.44C29.8106 152.28 27.1706 152.7 24.3306 152.7C21.0506 152.7 18.1906 152.14 15.7506 151.02C13.3506 149.9 11.4906 148.34 10.1706 146.34C8.85063 144.3 8.19063 141.92 8.19063 139.2C8.19063 136 9.11063 133.12 10.9506 130.56C12.8306 128 15.3106 126.16 18.3906 125.04C17.1906 123.44 16.2306 121.94 15.5106 120.54C14.7906 119.1 14.4306 117.6 14.4306 116.04C14.4306 114.32 14.9106 112.82 15.8706 111.54C16.8706 110.26 18.2306 109.26 19.9506 108.54C21.7106 107.78 23.7306 107.4 26.0106 107.4C28.1706 107.4 30.0506 107.76 31.6506 108.48C33.2906 109.2 34.5706 110.2 35.4906 111.48C36.4106 112.76 36.8706 114.22 36.8706 115.86C36.8706 117.14 36.5306 118.38 35.8506 119.58C35.2106 120.74 34.3506 121.68 33.2706 122.4C32.2306 123.12 31.1106 123.48 29.9106 123.48C29.6306 123.44 29.3106 123.26 28.9506 122.94C28.5906 122.62 28.3306 122.26 28.1706 121.86C28.9706 121.62 29.6706 121.12 30.2706 120.36C30.8706 119.56 31.1706 118.54 31.1706 117.3C31.1706 115.34 30.5706 113.68 29.3706 112.32C28.2106 110.96 26.6506 110.28 24.6906 110.28C23.2506 110.28 22.0706 110.72 21.1506 111.6C20.2706 112.48 19.8306 113.62 19.8306 115.02C19.8306 116.06 20.1306 117.36 20.7306 118.92C21.3306 120.48 22.5306 122.4 24.3306 124.68C26.5706 127.56 28.9506 130.48 31.4706 133.44C33.9906 136.36 36.5506 139.02 39.1506 141.42C40.5506 138.78 41.2506 135.76 41.2506 132.36C41.2506 131.64 41.2106 130.88 41.1306 130.08C40.4506 130.04 39.8306 130.02 39.2706 130.02C37.5106 130.02 35.9906 130.32 34.7106 130.92L34.2906 129.06C34.2506 128.74 34.2706 128.46 34.3506 128.22C34.4706 127.94 34.6706 127.76 34.9506 127.68C36.1506 127.2 37.3506 126.9 38.5506 126.78C39.7506 126.62 40.9106 126.54 42.0306 126.54C42.7906 126.54 43.5106 126.56 44.1906 126.6C44.9106 126.6 45.6306 126.6 46.3506 126.6C47.7106 126.6 49.0306 126.5 50.3106 126.3C51.6306 126.1 52.8506 125.66 53.9706 124.98C54.6906 126.02 55.0306 127.04 54.9906 128.04C54.6306 129.12 53.9706 129.88 53.0106 130.32C52.0906 130.76 50.9906 130.98 49.7106 130.98C49.2306 130.98 48.7506 130.96 48.2706 130.92C47.7906 130.88 47.2906 130.84 46.7706 130.8C46.6106 133.4 46.1306 135.82 45.3306 138.06C44.5706 140.3 43.5506 142.32 42.2706 144.12C44.2706 145.68 46.2106 146.92 48.0906 147.84C50.0106 148.76 51.7906 149.18 53.4306 149.1C53.4306 149.74 53.4106 150.26 53.3706 150.66C53.3306 151.06 53.2306 151.48 53.0706 151.92C52.7506 152.2 52.0306 152.44 50.9106 152.64C49.7906 152.84 48.7706 152.96 47.8506 153ZM36.0306 145.32C33.4306 142.8 30.7306 139.94 27.9306 136.74C25.1706 133.54 22.6106 130.42 20.2506 127.38C18.3706 128.46 16.8906 130 15.8106 132C14.7306 133.96 14.1906 136.14 14.1906 138.54C14.1906 140.46 14.5706 142.22 15.3306 143.82C16.0906 145.38 17.3106 146.64 18.9906 147.6C20.7106 148.52 22.9306 148.98 25.6506 148.98C27.7706 148.98 29.7106 148.66 31.4706 148.02C33.2306 147.38 34.7506 146.48 36.0306 145.32Z" fill="white"/>
</svg>
